Yatra_0.ufo
<glyph name="dollar" format="1">
  <advance width="623"/>
  <unicode hex="0024"/>
  <outline>
    <contour>
      <point x="501" y="492" type="line"/>
      <point x="465" y="515"/>
      <point x="416" y="543"/>
      <point x="375" y="561" type="curve"/>
      <point x="374" y="683" type="line"/>
      <point x="276" y="724" type="line"/>
      <point x="276" y="576" type="line"/>
      <point x="190" y="560"/>
      <point x="75" y="495"/>
      <point x="98" y="394" type="curve" smooth="yes"/>
      <point x="106" y="359"/>
      <point x="166" y="297"/>
      <point x="202" y="270" type="curve" smooth="yes"/>
      <point x="253" y="232"/>
      <point x="477" y="310"/>
      <point x="470" y="292" type="curve" smooth="yes"/>
      <point x="397" y="101"/>
      <point x="169" y="198"/>
      <point x="123" y="223" type="curve"/>
      <point x="98" y="186" type="line"/>
      <point x="154" y="145"/>
      <point x="208" y="97"/>
      <point x="276" y="77" type="curve"/>
      <point x="276" y="-59" type="line"/>
      <point x="376" y="-88" type="line"/>
      <point x="374" y="69" type="line"/>
      <point x="530" y="87"/>
      <point x="626" y="242"/>
      <point x="464" y="382" type="curve" smooth="yes"/>
      <point x="433" y="408"/>
      <point x="191" y="364"/>
      <point x="194" y="378" type="curve" smooth="yes"/>
      <point x="227" y="511"/>
      <point x="363" y="496"/>
      <point x="474" y="452" type="curve"/>
    </contour>
  </outline>
</glyph>
<glyph name="ampersand" format="1">
  <advance width="679"/>
  <unicode hex="0026"/>
  <outline>
    <contour>
      <point x="497" y="491" type="curve" smooth="yes"/>
      <point x="509" y="457"/>
      <point x="438" y="381"/>
      <point x="359" y="307" type="curve"/>
      <point x="435" y="236" type="line"/>
      <point x="470" y="274"/>
      <point x="505" y="316"/>
      <point x="539" y="364" type="curve"/>
      <point x="635" y="271" type="line"/>
      <point x="606" y="227"/>
      <point x="572" y="183"/>
      <point x="536" y="143" type="curve"/>
      <point x="587" y="96"/>
      <point x="636" y="52"/>
      <point x="671" y="22" type="curve"/>
      <point x="610" y="-29" type="line"/>
      <point x="484" y="89" type="line"/>
      <point x="388" y="-2"/>
      <point x="287" y="-57"/>
      <point x="229" y="-11" type="curve" smooth="yes"/>
      <point x="159" y="43"/>
      <point x="117" y="85"/>
      <point x="70" y="151" type="curve" smooth="yes"/>
      <point x="24" y="214"/>
      <point x="117" y="280"/>
      <point x="210" y="352" type="curve"/>
      <point x="153" y="409"/>
      <point x="109" y="455"/>
      <point x="98" y="474" type="curve" smooth="yes"/>
      <point x="66" y="525"/>
      <point x="188" y="674"/>
      <point x="290" y="674" type="curve" smooth="yes"/>
      <point x="316" y="674"/>
      <point x="473" y="560"/>
    </contour>
    <contour>
      <point x="193" y="99" type="curve" smooth="yes"/>
      <point x="220" y="57"/>
      <point x="299" y="102"/>
      <point x="384" y="184" type="curve"/>
      <point x="305" y="258" type="line"/>
      <point x="227" y="191"/>
      <point x="162" y="147"/>
    </contour>
    <contour>
      <point x="361" y="573" type="curve" smooth="yes"/>
      <point x="300" y="608"/>
      <point x="158" y="517"/>
      <point x="258" y="405" type="curve" smooth="yes"/>
      <point x="259" y="403"/>
      <point x="262" y="400"/>
      <point x="265" y="397" type="curve"/>
      <point x="352" y="472"/>
      <point x="412" y="543"/>
    </contour>
  </outline>
</glyph>
<glyph name="quotesingle" format="1">
  <advance width="157"/>
  <unicode hex="0027"/>
  <outline>
    <contour>
      <point x="58" y="578" type="line"/>
      <point x="57" y="646"/>
      <point x="67" y="740"/>
      <point x="60" y="812" type="curve"/>
      <point x="57" y="835"/>
      <point x="174" y="794"/>
      <point x="183" y="782" type="curve"/>
      <point x="188" y="701"/>
      <point x="159" y="629"/>
      <point x="110" y="573" type="curve"/>
    </contour>
  </outline>
</glyph>
<glyph name="parenleft" format="1">
  <advance width="478"/>
  <unicode hex="0028"/>
  <outline>
    <contour>
      <point x="398" y="814" type="line"/>
      <point x="198" y="698"/>
      <point x="-21" y="317"/>
      <point x="108" y="147" type="curve" smooth="yes"/>
      <point x="174" y="60"/>
      <point x="363" y="-48"/>
      <point x="429" y="-94" type="curve"/>
      <point x="461" y="-56" type="line"/>
      <point x="393" y="-11"/>
      <point x="324" y="38"/>
      <point x="298" y="60" type="curve" smooth="yes"/>
      <point x="46" y="273"/>
      <point x="327" y="599"/>
      <point x="483" y="721" type="curve"/>
    </contour>
  </outline>
</glyph>
<glyph name="parenright" format="1">
  <advance width="530"/>
  <unicode hex="0029"/>
  <outline>
    <contour>
      <point x="31" y="-11" type="line"/>
      <point x="176" y="139"/>
      <point x="383" y="300"/>
      <point x="199" y="572" type="curve" smooth="yes"/>
      <point x="177" y="605"/>
      <point x="97" y="716"/>
      <point x="29" y="761" type="curve"/>
      <point x="56" y="812" type="line"/>
      <point x="122" y="766"/>
      <point x="301" y="578"/>
      <point x="369" y="477" type="curve" smooth="yes"/>
      <point x="479" y="313"/>
      <point x="284" y="60"/>
      <point x="116" y="-104" type="curve"/>
    </contour>
  </outline>
</glyph>
<glyph name="period" format="1">
  <advance width="237"/>
  <unicode hex="002E"/>
  <outline>
    <contour>
      <point x="142" y="-22" type="curve"/>
      <point x="114" y="-9"/>
      <point x="83" y="17"/>
      <point x="66" y="51" type="curve"/>
      <point x="69" y="74"/>
      <point x="120" y="116"/>
      <point x="141" y="121" type="curve"/>
      <point x="186" y="101"/>
      <point x="207" y="68"/>
      <point x="216" y="50" type="curve"/>
      <point x="207" y="27"/>
      <point x="183" y="-1"/>
    </contour>
  </outline>
</glyph>
<glyph name="zero" format="1">
  <advance width="613"/>
  <unicode hex="0030"/>
  <outline>
    <contour>
      <point x="404" y="723" type="move" name="top"/>
    </contour>
    <contour>
      <point x="390" y="579" type="curve" smooth="yes"/>
      <point x="530" y="519"/>
      <point x="384" y="-7"/>
      <point x="230" y="54" type="curve" smooth="yes"/>
      <point x="82" y="113"/>
      <point x="229" y="648"/>
    </contour>
    <contour>
      <point x="492" y="591" type="curve" smooth="yes"/>
      <point x="448" y="628"/>
      <point x="425" y="631"/>
      <point x="356" y="658" type="curve" smooth="yes"/>
      <point x="121" y="749"/>
      <point x="-97" y="193"/>
      <point x="139" y="28" type="curve" smooth="yes"/>
      <point x="176" y="2"/>
      <point x="230" y="-24"/>
      <point x="278" y="-29" type="curve" smooth="yes"/>
      <point x="546" y="-55"/>
      <point x="674" y="440"/>
    </contour>
  </outline>
</glyph>
<glyph name="two" format="1">
  <advance width="574"/>
  <unicode hex="0032"/>
  <outline>
    <contour>
      <point x="485" y="489" type="curve" smooth="yes"/>
      <point x="433" y="553"/>
      <point x="383" y="603"/>
      <point x="326" y="651" type="curve" smooth="yes"/>
      <point x="255" y="710"/>
      <point x="79" y="574"/>
      <point x="52" y="541" type="curve"/>
      <point x="133" y="440" type="line"/>
      <point x="170" y="474"/>
      <point x="310" y="597"/>
      <point x="369" y="529" type="curve" smooth="yes"/>
      <point x="434" y="455"/>
      <point x="340" y="369"/>
      <point x="245" y="273" type="curve" smooth="yes"/>
      <point x="198" y="225"/>
      <point x="38" y="106"/>
      <point x="30" y="100" type="curve"/>
      <point x="120" y="0" type="line"/>
      <point x="554" y="0" type="line"/>
      <point x="464" y="100" type="line"/>
      <point x="234" y="100" type="line"/>
      <point x="375" y="199"/>
      <point x="578" y="374"/>
    </contour>
  </outline>
</glyph>
<glyph name="three" format="1">
  <advance width="627"/>
  <unicode hex="0033"/>
  <outline>
    <contour>
      <point x="519" y="519" type="curve" smooth="yes"/>
      <point x="461" y="579"/>
      <point x="440" y="595"/>
      <point x="381" y="646" type="curve" smooth="yes"/>
      <point x="308" y="708"/>
      <point x="182" y="625"/>
      <point x="130" y="594" type="curve"/>
      <point x="199" y="511" type="line"/>
      <point x="277" y="557"/>
      <point x="408" y="625"/>
      <point x="443" y="533" type="curve" smooth="yes"/>
      <point x="479" y="442"/>
      <point x="391" y="379"/>
      <point x="253" y="363" type="curve"/>
      <point x="309" y="265" type="line"/>
      <point x="484" y="273"/>
      <point x="600" y="436"/>
    </contour>
    <contour>
      <point x="440" y="311" type="line"/>
      <point x="607" y="144"/>
      <point x="286" y="-29"/>
      <point x="134" y="180" type="curve"/>
      <point x="88" y="137" type="line"/>
      <point x="148" y="75"/>
      <point x="171" y="57"/>
      <point x="212" y="22" type="curve" smooth="yes"/>
      <point x="410" y="-148"/>
      <point x="674" y="155"/>
      <point x="580" y="253" type="curve" smooth="yes"/>
      <point x="551" y="284"/>
      <point x="525" y="309"/>
      <point x="482" y="346" type="curve"/>
    </contour>
  </outline>
</glyph>
<glyph name="nine" format="1">
  <advance width="538"/>
  <unicode hex="0039"/>
  <outline>
    <contour>
      <point x="198" y="-28" type="line"/>
      <point x="473" y="108"/>
      <point x="543" y="438"/>
      <point x="469" y="517" type="curve" smooth="yes"/>
      <point x="418" y="572"/>
      <point x="342" y="626"/>
      <point x="267" y="662" type="curve" smooth="yes"/>
      <point x="167" y="710"/>
      <point x="-36" y="503"/>
      <point x="57" y="382" type="curve" smooth="yes"/>
      <point x="80" y="352"/>
      <point x="129" y="315"/>
      <point x="194" y="265" type="curve" smooth="yes"/>
      <point x="212" y="251"/>
      <point x="275" y="257"/>
      <point x="316" y="265" type="curve"/>
      <point x="271" y="183"/>
      <point x="198" y="105"/>
      <point x="92" y="61" type="curve"/>
    </contour>
    <contour>
      <point x="335" y="555" type="curve"/>
      <point x="370" y="530"/>
      <point x="380" y="457"/>
      <point x="359" y="373" type="curve"/>
      <point x="-54" y="243"/>
      <point x="208" y="641"/>
    </contour>
  </outline>
</glyph>
<glyph name="equal" format="1">
  <advance width="672"/>
  <unicode hex="003D"/>
  <outline>
    <contour>
      <point x="148" y="216" type="line"/>
      <point x="571" y="216" type="line"/>
      <point x="541" y="289" type="line"/>
      <point x="118" y="289" type="line"/>
    </contour>
    <contour>
      <point x="148" y="377" type="line"/>
      <point x="571" y="377" type="line"/>
      <point x="541" y="450" type="line"/>
      <point x="118" y="450" type="line"/>
    </contour>
  </outline>
</glyph>
<glyph name="D" format="1">
  <advance width="809"/>
  <unicode hex="0044"/>
  <outline>
    <contour>
      <point x="390" y="683" type="move" name="top"/>
    </contour>
    <contour>
      <point x="215" y="1" type="line" smooth="yes"/>
      <point x="311" y="-21"/>
      <point x="457" y="-25"/>
      <point x="531" y="4" type="curve" smooth="yes"/>
      <point x="762" y="93"/>
      <point x="744" y="359"/>
      <point x="712" y="395" type="curve" smooth="yes"/>
      <point x="630" y="489"/>
      <point x="529" y="599"/>
      <point x="437" y="663" type="curve" smooth="yes"/>
      <point x="392" y="694"/>
      <point x="135" y="682"/>
      <point x="86" y="666" type="curve"/>
      <point x="86" y="665" type="line"/>
      <point x="85" y="666" type="line"/>
      <point x="85" y="30" type="line"/>
    </contour>
    <contour>
      <point x="527" y="506" type="curve" smooth="yes"/>
      <point x="699" y="349"/>
      <point x="503" y="-19"/>
      <point x="215" y="63" type="curve"/>
      <point x="213" y="570" type="line"/>
      <point x="301" y="587"/>
      <point x="424" y="599"/>
    </contour>
  </outline>
</glyph>
<glyph name="E" format="1">
  <advance width="632"/>
  <unicode hex="0045"/>
  <outline>
    <contour>
      <point x="425" y="101" type="move" name="ogonek"/>
    </contour>
    <contour>
      <point x="327" y="743" type="move" name="top"/>
    </contour>
    <contour>
      <point x="70" y="667" type="line"/>
      <point x="497" y="667" type="line"/>
      <point x="577" y="577" type="line"/>
      <point x="208" y="577" type="line"/>
      <point x="208" y="385" type="line"/>
      <point x="457" y="385" type="line"/>
      <point x="537" y="295" type="line"/>
      <point x="209" y="295" type="line"/>
      <point x="209" y="90" type="line"/>
      <point x="537" y="90" type="line"/>
      <point x="617" y="0" type="line"/>
      <point x="200" y="0" type="line"/>
      <point x="198" y="2" type="line"/>
      <point x="70" y="29" type="line"/>
    </contour>
  </outline>
</glyph>
<glyph name="F" format="1">
  <advance width="597"/>
  <unicode hex="0046"/>
  <outline>
    <contour>
      <point x="215" y="-29" type="line"/>
      <point x="85" y="0" type="line"/>
      <point x="85" y="666" type="line"/>
      <point x="86" y="665" type="line"/>
      <point x="85" y="667" type="line"/>
      <point x="512" y="667" type="line"/>
      <point x="592" y="577" type="line"/>
      <point x="213" y="577" type="line"/>
      <point x="213" y="355" type="line"/>
      <point x="472" y="355" type="line"/>
      <point x="552" y="265" type="line"/>
      <point x="214" y="265" type="line"/>
    </contour>
  </outline>
</glyph>
<glyph name="G" format="1">
  <advance width="813"/>
  <unicode hex="0047"/>
  <outline>
    <contour>
      <point x="442" y="723" type="move" name="top"/>
    </contour>
    <contour>
      <point x="370" y="338" type="line"/>
      <point x="603" y="338" type="line"/>
      <point x="683" y="248" type="line"/>
      <point x="450" y="248" type="line"/>
    </contour>
    <contour>
      <point x="741" y="297" type="line"/>
      <point x="741" y="297"/>
      <point x="743" y="76"/>
      <point x="743" y="47" type="curve" smooth="yes"/>
      <point x="743" y="-56"/>
      <point x="758" y="-91"/>
      <point x="828" y="-111" type="curve"/>
      <point x="735" y="-136"/>
      <point x="629" y="-76"/>
      <point x="622" y="30" type="curve" smooth="yes"/>
      <point x="603" y="338" type="line"/>
    </contour>
    <contour>
      <point x="636" y="531" type="curve"/>
      <point x="606" y="545"/>
      <point x="558" y="563"/>
      <point x="495" y="588" type="curve" smooth="yes"/>
      <point x="270" y="677"/>
      <point x="79" y="230"/>
      <point x="298" y="103" type="curve" smooth="yes"/>
      <point x="424" y="30"/>
      <point x="541" y="176"/>
      <point x="610" y="252" type="curve"/>
      <point x="692" y="139" type="line"/>
      <point x="593" y="55"/>
      <point x="479" y="-79"/>
      <point x="330" y="5" type="curve" smooth="yes"/>
      <point x="254" y="48"/>
      <point x="192" y="90"/>
      <point x="159" y="120" type="curve" smooth="yes"/>
      <point x="-129" y="385"/>
      <point x="221" y="796"/>
      <point x="446" y="693" type="curve" smooth="yes"/>
      <point x="571" y="636"/>
      <point x="610" y="619"/>
      <point x="679" y="584" type="curve"/>
      <point x="679" y="583"/>
      <point x="636" y="531"/>
    </contour>
  </outline>
</glyph>
<glyph name="K" format="1">
  <advance width="680"/>
  <unicode hex="004B"/>
  <outline>
    <contour>
      <point x="497" y="666" type="line"/>
      <point x="627" y="637" type="line"/>
      <point x="199" y="98" type="line"/>
      <point x="70" y="127" type="line"/>
    </contour>
    <contour>
      <point x="670" y="-29" type="line"/>
      <point x="540" y="0" type="line"/>
      <point x="283" y="390" type="line"/>
      <point x="408" y="361" type="line"/>
    </contour>
    <contour>
      <point x="213" y="-29" type="line"/>
      <point x="73" y="0" type="line"/>
      <point x="73" y="666" type="line"/>
      <point x="211" y="625" type="line"/>
    </contour>
  </outline>
</glyph>
<glyph name="N" format="1">
  <advance width="631"/>
  <unicode hex="004E"/>
  <outline>
    <contour>
      <point x="381" y="743" type="move" name="top"/>
    </contour>
    <contour>
      <point x="173" y="626" type="line"/>
      <point x="45" y="666" type="line"/>
      <point x="45" y="0" type="line"/>
      <point x="175" y="-29" type="line"/>
    </contour>
    <contour>
      <point x="587" y="626" type="line"/>
      <point x="457" y="666" type="line"/>
      <point x="457" y="0" type="line"/>
      <point x="587" y="-29" type="line"/>
    </contour>
    <contour>
      <point x="457" y="0" type="line"/>
      <point x="457" y="0"/>
      <point x="489" y="128"/>
      <point x="489" y="128" type="curve"/>
      <point x="489" y="128"/>
      <point x="173" y="626"/>
      <point x="173" y="626" type="curve" smooth="yes"/>
      <point x="173" y="626"/>
      <point x="74" y="599"/>
      <point x="74" y="599" type="curve" smooth="yes"/>
    </contour>
  </outline>
</glyph>
<glyph name="P" format="1">
  <advance width="664"/>
  <unicode hex="0050"/>
  <outline>
    <contour>
      <point x="613" y="506" type="curve" smooth="yes"/>
      <point x="578" y="547"/>
      <point x="467" y="657"/>
      <point x="430" y="690" type="curve" smooth="yes"/>
      <point x="399" y="719"/>
      <point x="199" y="700"/>
      <point x="85" y="669" type="curve"/>
      <point x="85" y="0" type="line"/>
      <point x="215" y="-29" type="line"/>
      <point x="214" y="221" type="line"/>
      <point x="530" y="115"/>
      <point x="664" y="445"/>
    </contour>
    <contour>
      <point x="461" y="563" type="curve" smooth="yes"/>
      <point x="530" y="492"/>
      <point x="465" y="259"/>
      <point x="214" y="284" type="curve"/>
      <point x="213" y="595" type="line"/>
      <point x="298" y="608"/>
      <point x="411" y="614"/>
    </contour>
  </outline>
</glyph>
<glyph name="R" format="1">
  <advance width="648"/>
  <unicode hex="0052"/>
  <outline>
    <contour>
      <point x="367" y="743" type="move" name="top"/>
    </contour>
    <contour>
      <point x="101" y="275" type="line"/>
      <point x="480" y="131"/>
      <point x="628" y="441"/>
      <point x="573" y="506" type="curve" smooth="yes"/>
      <point x="538" y="547"/>
      <point x="427" y="657"/>
      <point x="390" y="690" type="curve" smooth="yes"/>
      <point x="359" y="719"/>
      <point x="159" y="700"/>
      <point x="45" y="669" type="curve"/>
      <point x="99" y="582" type="line"/>
      <point x="176" y="597"/>
      <point x="368" y="646"/>
      <point x="435" y="577" type="curve" smooth="yes"/>
      <point x="511" y="499"/>
      <point x="409" y="237"/>
      <point x="93" y="323" type="curve"/>
    </contour>
    <contour>
      <point x="173" y="628" type="line"/>
      <point x="45" y="669" type="line"/>
      <point x="45" y="0" type="line"/>
      <point x="175" y="-29" type="line"/>
    </contour>
    <contour>
      <point x="590" y="106" type="curve" smooth="yes"/>
      <point x="541" y="201"/>
      <point x="509" y="263"/>
      <point x="474" y="332" type="curve"/>
      <point x="367" y="275" type="line"/>
      <point x="398" y="231"/>
      <point x="480" y="106"/>
      <point x="508" y="41" type="curve" smooth="yes"/>
      <point x="536" y="-28"/>
      <point x="545" y="-101"/>
      <point x="471" y="-137" type="curve"/>
      <point x="563" y="-139"/>
      <point x="668" y="-45"/>
    </contour>
  </outline>
</glyph>
<glyph name="T" format="1">
  <advance width="667"/>
  <unicode hex="0054"/>
  <outline>
    <contour>
      <point x="258" y="0" type="move" name="cedilla"/>
    </contour>
    <contour>
      <point x="430" y="743" type="move" name="top"/>
    </contour>
    <contour>
      <point x="90" y="577" type="line"/>
      <point x="278" y="577" type="line"/>
      <point x="278" y="0" type="line"/>
      <point x="408" y="-29" type="line"/>
      <point x="406" y="577" type="line"/>
      <point x="657" y="577" type="line"/>
      <point x="577" y="667" type="line"/>
      <point x="10" y="667" type="line"/>
    </contour>
  </outline>
</glyph>
<glyph name="V" format="1">
  <advance width="692"/>
  <unicode hex="0056"/>
  <outline>
    <contour>
      <point x="297" y="12" type="line"/>
      <point x="425" y="-29" type="line"/>
      <point x="667" y="637" type="line"/>
      <point x="537" y="666" type="line"/>
    </contour>
    <contour>
      <point x="149" y="637" type="line"/>
      <point x="149" y="637"/>
      <point x="30" y="666"/>
      <point x="30" y="666" type="curve"/>
      <point x="30" y="666"/>
      <point x="299" y="12"/>
      <point x="299" y="12" type="curve"/>
      <point x="299" y="12"/>
      <point x="378" y="38"/>
      <point x="378" y="38" type="curve"/>
    </contour>
  </outline>
</glyph>
<glyph name="W" format="1">
  <advance width="1108"/>
  <unicode hex="0057"/>
  <outline>
    <contour>
      <point x="277" y="12" type="line"/>
      <point x="405" y="-29" type="line"/>
      <point x="613" y="637" type="line"/>
      <point x="483" y="667" type="line"/>
    </contour>
    <contour>
      <point x="149" y="637" type="line"/>
      <point x="149" y="637"/>
      <point x="30" y="666"/>
      <point x="30" y="666" type="curve"/>
      <point x="30" y="666"/>
      <point x="279" y="12"/>
      <point x="279" y="12" type="curve"/>
      <point x="279" y="12"/>
      <point x="361" y="43"/>
      <point x="361" y="43" type="curve"/>
    </contour>
    <contour>
      <point x="741" y="12" type="line"/>
      <point x="869" y="-29" type="line"/>
      <point x="1077" y="637" type="line"/>
      <point x="947" y="667" type="line"/>
    </contour>
    <contour>
      <point x="613" y="637" type="line"/>
      <point x="613" y="637"/>
      <point x="494" y="664"/>
      <point x="494" y="664" type="curve"/>
      <point x="494" y="664"/>
      <point x="743" y="12"/>
      <point x="743" y="12" type="curve"/>
      <point x="743" y="12"/>
      <point x="825" y="43"/>
      <point x="825" y="43" type="curve"/>
    </contour>
  </outline>
</glyph>
<glyph name="X" format="1">
  <advance width="724"/>
  <unicode hex="0058"/>
  <outline>
    <contour>
      <point x="209" y="638" type="line"/>
      <point x="84" y="667" type="line"/>
      <point x="522" y="0" type="line"/>
      <point x="652" y="-29" type="line"/>
    </contour>
    <contour>
      <point x="72" y="0" type="line"/>
      <point x="201" y="-29" type="line"/>
      <point x="639" y="637" type="line"/>
      <point x="509" y="666" type="line"/>
    </contour>
  </outline>
</glyph>
<glyph name="Y" format="1">
  <advance width="591"/>
  <unicode hex="0059"/>
  <outline>
    <contour>
      <point x="328" y="743" type="move" name="top"/>
    </contour>
    <contour>
      <point x="125" y="638" type="line"/>
      <point x="0" y="667" type="line"/>
      <point x="246" y="275" type="line"/>
      <point x="246" y="0" type="line"/>
      <point x="386" y="-29" type="line"/>
      <point x="384" y="244" type="line"/>
      <point x="600" y="637" type="line"/>
      <point x="461" y="666" type="line"/>
      <point x="297" y="367" type="line"/>
    </contour>
  </outline>
</glyph>
<glyph name="bracketleft" format="1">
  <advance width="463"/>
  <unicode hex="005B"/>
  <outline>
    <contour>
      <point x="213" y="667" type="line"/>
      <point x="85" y="708" type="line"/>
      <point x="85" y="90" type="line"/>
      <point x="215" y="61" type="line"/>
    </contour>
    <contour>
      <point x="165" y="619" type="line"/>
      <point x="362" y="619" type="line"/>
      <point x="282" y="709" type="line"/>
      <point x="85" y="709" type="line"/>
    </contour>
    <contour>
      <point x="165" y="0" type="line"/>
      <point x="402" y="0" type="line"/>
      <point x="322" y="90" type="line"/>
      <point x="85" y="90" type="line"/>
    </contour>
  </outline>
</glyph>
<glyph name="backslash" format="1">
  <advance width="600"/>
  <unicode hex="005C"/>
  <outline>
    <contour>
      <point x="221" y="670" type="line"/>
      <point x="91" y="710" type="line"/>
      <point x="397" y="0" type="line"/>
      <point x="527" y="-29" type="line"/>
    </contour>
  </outline>
</glyph>
<glyph name="underscore" format="1">
  <advance width="619"/>
  <unicode hex="005F"/>
  <outline>
    <contour>
      <point x="64" y="0" type="line"/>
      <point x="597" y="0" type="line"/>
      <point x="567" y="73" type="line"/>
      <point x="34" y="73" type="line"/>
    </contour>
  </outline>
</glyph>
<glyph name="a" format="1">
  <advance width="577"/>
  <unicode hex="0061"/>
  <outline>
    <contour>
      <point x="396" y="7" type="move" name="ogonek"/>
    </contour>
    <contour>
      <point x="426" y="507" type="move" name="top"/>
    </contour>
    <contour>
      <point x="118" y="382" type="line"/>
      <point x="210" y="392"/>
      <point x="398" y="442"/>
      <point x="396" y="328" type="curve" smooth="yes"/>
      <point x="395" y="304" type="line"/>
      <point x="341" y="301"/>
      <point x="55" y="275"/>
      <point x="51" y="217" type="curve" smooth="yes"/>
      <point x="46" y="153"/>
      <point x="95" y="-18"/>
      <point x="249" y="-30" type="curve"/>
      <point x="298" y="-33"/>
      <point x="360" y="19"/>
      <point x="391" y="49" type="curve"/>
      <point x="390" y="0" type="line"/>
      <point x="504" y="-29" type="line"/>
      <point x="500" y="56"/>
      <point x="516" y="323"/>
      <point x="498" y="350" type="curve" smooth="yes"/>
      <point x="473" y="387"/>
      <point x="355" y="489"/>
      <point x="323" y="491" type="curve" smooth="yes"/>
      <point x="291" y="493"/>
      <point x="155" y="489"/>
      <point x="70" y="477" type="curve"/>
    </contour>
    <contour>
      <point x="157" y="114" type="curve" smooth="yes"/>
      <point x="112" y="199"/>
      <point x="357" y="225"/>
      <point x="394" y="229" type="curve"/>
      <point x="393" y="164" type="line"/>
      <point x="274" y="40"/>
      <point x="182" y="65"/>
    </contour>
  </outline>
</glyph>
<glyph name="b" format="1">
  <advance width="614"/>
  <unicode hex="0062"/>
  <outline>
    <contour>
      <point x="180" y="682" type="line"/>
      <point x="65" y="710" type="line"/>
      <point x="65" y="63" type="line"/>
      <point x="458" y="-228"/>
      <point x="664" y="246"/>
      <point x="503" y="386" type="curve" smooth="yes"/>
      <point x="456" y="426"/>
      <point x="427" y="446"/>
      <point x="378" y="473" type="curve" smooth="yes"/>
      <point x="332" y="498"/>
      <point x="242" y="503"/>
      <point x="180" y="423" type="curve"/>
    </contour>
    <contour>
      <point x="428" y="203" type="curve" smooth="yes"/>
      <point x="392" y="94"/>
      <point x="302" y="17"/>
      <point x="180" y="68" type="curve"/>
      <point x="180" y="239" type="line"/>
      <point x="274" y="455"/>
      <point x="506" y="437"/>
    </contour>
  </outline>
</glyph>
<glyph name="c" format="1">
  <advance width="545"/>
  <unicode hex="0063"/>
  <outline>
    <contour>
      <point x="154" y="7" type="move" name="cedilla"/>
    </contour>
    <contour>
      <point x="269" y="507" type="move" name="top"/>
    </contour>
    <contour>
      <point x="449" y="357" type="line"/>
      <point x="385" y="379"/>
      <point x="337" y="396"/>
      <point x="313" y="395" type="curve" smooth="yes"/>
      <point x="208" y="391"/>
      <point x="104" y="155"/>
      <point x="210" y="79" type="curve" smooth="yes"/>
      <point x="283" y="26"/>
      <point x="381" y="96"/>
      <point x="436" y="150" type="curve" smooth="yes"/>
      <point x="437" y="151"/>
      <point x="512" y="83"/>
      <point x="512" y="83" type="curve"/>
      <point x="390" y="-41"/>
      <point x="277" y="-55"/>
      <point x="184" y="7" type="curve" smooth="yes"/>
      <point x="-54" y="166"/>
      <point x="72" y="489"/>
      <point x="287" y="489" type="curve" smooth="yes"/>
      <point x="304" y="489"/>
      <point x="378" y="461"/>
      <point x="487" y="410" type="curve"/>
    </contour>
  </outline>
</glyph>
<glyph name="e" format="1">
  <advance width="558"/>
  <unicode hex="0065"/>
  <outline>
    <contour>
      <point x="288" y="43" type="move" name="ogonek"/>
    </contour>
    <contour>
      <point x="304" y="523" type="move" name="top"/>
    </contour>
    <contour>
      <point x="179" y="104" type="curve"/>
      <point x="186" y="94"/>
      <point x="218" y="63"/>
      <point x="240" y="59" type="curve" smooth="yes"/>
      <point x="299" y="48"/>
      <point x="387" y="100"/>
      <point x="450" y="152" type="curve" smooth="yes"/>
      <point x="451" y="153"/>
      <point x="528" y="70"/>
      <point x="528" y="70" type="curve"/>
      <point x="423" y="-7"/>
      <point x="346" y="-47"/>
      <point x="262" y="-15" type="curve" smooth="yes"/>
      <point x="217" y="2"/>
      <point x="150" y="46"/>
      <point x="100" y="101" type="curve" smooth="yes"/>
      <point x="-26" y="239"/>
      <point x="85" y="489"/>
      <point x="254" y="489" type="curve" smooth="yes"/>
      <point x="313" y="489"/>
      <point x="446" y="391"/>
      <point x="503" y="337" type="curve"/>
      <point x="501" y="330"/>
      <point x="179" y="104"/>
    </contour>
    <contour>
      <point x="285" y="412" type="curve" smooth="yes"/>
      <point x="214" y="412"/>
      <point x="149" y="295"/>
      <point x="150" y="198" type="curve"/>
      <point x="400" y="358" type="line"/>
      <point x="354" y="390"/>
      <point x="313" y="412"/>
    </contour>
  </outline>
</glyph>
<glyph name="f" format="1">
  <advance width="398"/>
  <unicode hex="0066"/>
  <outline>
    <contour>
      <point x="127" y="478" type="curve"/>
      <point x="127" y="565" type="line" smooth="yes"/>
      <point x="127" y="626"/>
      <point x="277" y="740"/>
      <point x="341" y="704" type="curve" smooth="yes"/>
      <point x="370" y="688"/>
      <point x="411" y="662"/>
      <point x="452" y="625" type="curve"/>
      <point x="430" y="598" type="line"/>
      <point x="294" y="681"/>
      <point x="250" y="571"/>
      <point x="248" y="478" type="curve"/>
      <point x="253" y="-29" type="line"/>
      <point x="128" y="-1" type="line"/>
      <point x="127" y="210"/>
      <point x="127" y="327"/>
    </contour>
    <contour>
      <point x="23" y="478" type="line"/>
      <point x="350" y="478" type="line"/>
      <point x="380" y="408" type="line"/>
      <point x="53" y="408" type="line"/>
    </contour>
  </outline>
</glyph>
<glyph name="h" format="1">
  <advance width="597"/>
  <unicode hex="0068"/>
  <outline>
    <contour>
      <point x="126" y="336" type="line"/>
      <point x="126" y="336"/>
      <point x="247" y="495"/>
      <point x="349" y="488" type="curve" smooth="yes"/>
      <point x="393" y="485"/>
      <point x="541" y="339"/>
      <point x="547" y="303" type="curve" smooth="yes"/>
      <point x="552" y="270"/>
      <point x="551" y="-29"/>
      <point x="551" y="-29" type="curve" smooth="yes"/>
      <point x="552" y="-29"/>
      <point x="427" y="-1"/>
      <point x="427" y="-1" type="curve"/>
      <point x="427" y="-1"/>
      <point x="433" y="342"/>
      <point x="422" y="362" type="curve" smooth="yes"/>
      <point x="379" y="440"/>
      <point x="227" y="307"/>
      <point x="163" y="213" type="curve"/>
    </contour>
    <contour>
      <point x="188" y="-29" type="line"/>
      <point x="63" y="-1" type="line"/>
      <point x="63" y="710" type="line"/>
      <point x="188" y="682" type="line"/>
    </contour>
  </outline>
</glyph>
<glyph name="j" format="1">
  <advance width="252"/>
  <unicode hex="006A"/>
  <outline>
    <contour>
      <point x="132" y="539" type="curve"/>
      <point x="173" y="560"/>
      <point x="197" y="588"/>
      <point x="206" y="611" type="curve"/>
      <point x="197" y="629"/>
      <point x="176" y="662"/>
      <point x="131" y="682" type="curve"/>
      <point x="110" y="677"/>
      <point x="59" y="635"/>
      <point x="56" y="612" type="curve"/>
      <point x="73" y="578"/>
      <point x="104" y="552"/>
    </contour>
    <contour>
      <point x="193" y="450" type="line"/>
      <point x="68" y="478" type="line"/>
      <point x="67" y="-8" type="line" smooth="yes"/>
      <point x="67" y="-87"/>
      <point x="2" y="-211"/>
      <point x="-158" y="-132" type="curve"/>
      <point x="-176" y="-168" type="line"/>
      <point x="-110" y="-197"/>
      <point x="-47" y="-226"/>
      <point x="-17" y="-232" type="curve" smooth="yes"/>
      <point x="55" y="-246"/>
      <point x="193" y="-136"/>
      <point x="193" y="-75" type="curve" smooth="yes"/>
    </contour>
  </outline>
</glyph>
<glyph name="k" format="1">
  <advance width="565"/>
  <unicode hex="006B"/>
  <outline>
    <contour>
      <point x="520" y="16" type="line"/>
      <point x="450" y="-30" type="line"/>
      <point x="255" y="228" type="line"/>
      <point x="188" y="165" type="line"/>
      <point x="188" y="-29" type="line"/>
      <point x="63" y="-1" type="line"/>
      <point x="63" y="710" type="line"/>
      <point x="188" y="682" type="line"/>
      <point x="188" y="301" type="line"/>
      <point x="377" y="479" type="line"/>
      <point x="492" y="451" type="line"/>
      <point x="309" y="279" type="line"/>
    </contour>
  </outline>
</glyph>
<glyph name="l" format="1">
  <advance width="241"/>
  <unicode hex="006C"/>
  <outline>
    <contour>
      <point x="251" y="733" type="move" name="top"/>
    </contour>
    <contour>
      <point x="188" y="682" type="line"/>
      <point x="63" y="710" type="line"/>
      <point x="63" y="-1" type="line"/>
      <point x="188" y="-29" type="line"/>
    </contour>
  </outline>
</glyph>
<glyph name="m" format="1">
  <advance width="877"/>
  <unicode hex="006D"/>
  <outline>
    <contour>
      <point x="155" y="295" type="curve"/>
      <point x="202" y="400"/>
      <point x="349" y="458"/>
      <point x="393" y="382" type="curve"/>
      <point x="402" y="362"/>
      <point x="399" y="0"/>
      <point x="399" y="0" type="curve"/>
      <point x="399" y="0"/>
      <point x="509" y="-28"/>
      <point x="508" y="-28" type="curve" smooth="yes"/>
      <point x="508" y="-28"/>
      <point x="509" y="314"/>
      <point x="504" y="347" type="curve" smooth="yes"/>
      <point x="499" y="383"/>
      <point x="386" y="529"/>
      <point x="344" y="532" type="curve" smooth="yes"/>
      <point x="247" y="539"/>
      <point x="123" y="370"/>
      <point x="123" y="370" type="curve"/>
      <point x="124" y="370"/>
      <point x="146" y="250"/>
    </contour>
    <contour>
      <point x="173" y="522" type="line"/>
      <point x="60" y="522" type="line"/>
      <point x="60" y="-1" type="line"/>
      <point x="174" y="-29" type="line"/>
    </contour>
    <contour>
      <point x="501" y="321" type="line"/>
      <point x="548" y="426"/>
      <point x="677" y="458"/>
      <point x="721" y="382" type="curve"/>
      <point x="730" y="362"/>
      <point x="727" y="0"/>
      <point x="727" y="0" type="curve"/>
      <point x="727" y="0"/>
      <point x="837" y="-28"/>
      <point x="836" y="-28" type="curve" smooth="yes"/>
      <point x="836" y="-28"/>
      <point x="837" y="314"/>
      <point x="832" y="347" type="curve" smooth="yes"/>
      <point x="827" y="383"/>
      <point x="714" y="529"/>
      <point x="672" y="532" type="curve" smooth="yes"/>
      <point x="575" y="539"/>
      <point x="438" y="392"/>
      <point x="438" y="392" type="curve"/>
    </contour>
  </outline>
</glyph>
<glyph name="n" format="1">
  <advance width="597"/>
  <unicode hex="006E"/>
  <outline>
    <contour>
      <point x="291" y="507" type="move" name="top"/>
    </contour>
    <contour>
      <point x="193" y="-29" type="line"/>
      <point x="63" y="-1" type="line"/>
      <point x="63" y="478" type="line"/>
      <point x="193" y="450" type="line"/>
      <point x="193" y="409" type="line"/>
      <point x="237" y="450"/>
      <point x="295" y="491"/>
      <point x="349" y="488" type="curve" smooth="yes"/>
      <point x="393" y="485"/>
      <point x="541" y="339"/>
      <point x="547" y="303" type="curve" smooth="yes"/>
      <point x="552" y="270"/>
      <point x="551" y="-29"/>
      <point x="551" y="-29" type="curve"/>
      <point x="552" y="-29"/>
      <point x="427" y="-1"/>
      <point x="427" y="-1" type="curve"/>
      <point x="427" y="-1"/>
      <point x="433" y="342"/>
      <point x="422" y="362" type="curve" smooth="yes"/>
      <point x="385" y="429"/>
      <point x="266" y="339"/>
      <point x="193" y="252" type="curve"/>
    </contour>
  </outline>
</glyph>
<glyph name="p" format="1">
  <advance width="578"/>
  <unicode hex="0070"/>
  <outline>
    <contour>
      <point x="354" y="125" type="curve"/>
      <point x="293" y="47"/>
      <point x="206" y="63"/>
      <point x="175" y="83" type="curve"/>
      <point x="177" y="366" type="line"/>
      <point x="395" y="528"/>
      <point x="481" y="291"/>
    </contour>
    <contour>
      <point x="287" y="-25" type="curve" smooth="yes"/>
      <point x="439" y="-64"/>
      <point x="672" y="265"/>
      <point x="419" y="432" type="curve" smooth="yes"/>
      <point x="291" y="516"/>
      <point x="192" y="493"/>
      <point x="52" y="453" type="curve"/>
      <point x="49" y="439"/>
      <point x="52" y="-226"/>
      <point x="52" y="-226" type="curve"/>
      <point x="177" y="-254" type="line"/>
      <point x="177" y="31" type="line"/>
      <point x="191" y="21"/>
      <point x="251" y="-16"/>
    </contour>
  </outline>
</glyph>
<glyph name="q" format="1">
  <advance width="639"/>
  <unicode hex="0071"/>
  <outline>
    <contour>
      <point x="466" y="-222" type="line"/>
      <point x="581" y="-250" type="line"/>
      <point x="581" y="392" type="line"/>
      <point x="259" y="680"/>
      <point x="-77" y="268"/>
      <point x="193" y="35" type="curve" smooth="yes"/>
      <point x="297" y="-55"/>
      <point x="404" y="-43"/>
      <point x="466" y="37" type="curve"/>
    </contour>
    <contour>
      <point x="242" y="84" type="curve" smooth="yes"/>
      <point x="135" y="175"/>
      <point x="295" y="480"/>
      <point x="466" y="394" type="curve"/>
      <point x="466" y="201" type="line"/>
      <point x="420" y="124"/>
      <point x="313" y="24"/>
    </contour>
  </outline>
</glyph>
<glyph name="s" format="1">
  <advance width="555"/>
  <unicode hex="0073"/>
  <outline>
    <contour>
      <point x="269" y="7" type="move" name="cedilla"/>
    </contour>
    <contour>
      <point x="360" y="507" type="move" name="top"/>
    </contour>
    <contour>
      <point x="429" y="355" type="line"/>
      <point x="377" y="379"/>
      <point x="314" y="405"/>
      <point x="299" y="406" type="curve" smooth="yes"/>
      <point x="268" y="408"/>
      <point x="171" y="350"/>
      <point x="172" y="282" type="curve" smooth="yes"/>
      <point x="172" y="259"/>
      <point x="370" y="306"/>
      <point x="405" y="286" type="curve" smooth="yes"/>
      <point x="615" y="166"/>
      <point x="504" y="-39"/>
      <point x="317" y="-30" type="curve" smooth="yes"/>
      <point x="232" y="-26"/>
      <point x="169" y="4"/>
      <point x="40" y="98" type="curve"/>
      <point x="62" y="148" type="line"/>
      <point x="193" y="46"/>
      <point x="381" y="-3"/>
      <point x="417" y="202" type="curve" smooth="yes"/>
      <point x="420" y="222"/>
      <point x="221" y="157"/>
      <point x="170" y="195" type="curve" smooth="yes"/>
      <point x="134" y="222"/>
      <point x="78" y="249"/>
      <point x="70" y="284" type="curve" smooth="yes"/>
      <point x="44" y="402"/>
      <point x="186" y="489"/>
      <point x="269" y="489" type="curve" smooth="yes"/>
      <point x="303" y="489"/>
      <point x="398" y="444"/>
      <point x="462" y="413" type="curve"/>
    </contour>
  </outline>
</glyph>
<glyph name="t" format="1">
  <advance width="454"/>
  <unicode hex="0074"/>
  <outline>
    <contour>
      <point x="197" y="15" type="move" name="cedilla"/>
    </contour>
    <contour>
      <point x="235" y="578" type="line"/>
      <point x="122" y="606" type="line"/>
      <point x="122" y="478" type="line"/>
      <point x="40" y="478" type="line"/>
      <point x="70" y="408" type="line"/>
      <point x="122" y="408" type="line"/>
      <point x="122" y="122" type="line" smooth="yes"/>
      <point x="122" y="61"/>
      <point x="272" y="-53"/>
      <point x="336" y="-17" type="curve" smooth="yes"/>
      <point x="365" y="-1"/>
      <point x="392" y="20"/>
      <point x="433" y="57" type="curve"/>
      <point x="414" y="70" type="line"/>
      <point x="221" y="-12"/>
      <point x="230" y="192"/>
      <point x="235" y="281" type="curve"/>
      <point x="235" y="408" type="line"/>
      <point x="397" y="408" type="line"/>
      <point x="367" y="478" type="line"/>
      <point x="235" y="478" type="line"/>
    </contour>
  </outline>
</glyph>
<glyph name="u" format="1">
  <advance width="599"/>
  <unicode hex="0075"/>
  <outline>
    <contour>
      <point x="275" y="7" type="move" name="ogonek"/>
    </contour>
    <contour>
      <point x="279" y="507" type="move" name="top"/>
    </contour>
    <contour>
      <point x="419" y="-2" type="line"/>
      <point x="534" y="-30" type="line"/>
      <point x="534" y="449" type="line"/>
      <point x="419" y="477" type="line"/>
      <point x="419" y="156" type="line"/>
      <point x="306" y="54"/>
      <point x="203" y="67"/>
      <point x="185" y="119" type="curve" smooth="yes"/>
      <point x="179" y="135"/>
      <point x="180" y="449"/>
      <point x="180" y="449" type="curve"/>
      <point x="180" y="449"/>
      <point x="65" y="477"/>
      <point x="66" y="477" type="curve" smooth="yes"/>
      <point x="66" y="477"/>
      <point x="65" y="178"/>
      <point x="70" y="145" type="curve" smooth="yes"/>
      <point x="76" y="109"/>
      <point x="194" y="-27"/>
      <point x="238" y="-30" type="curve" smooth="yes"/>
      <point x="302" y="-34"/>
      <point x="373" y="4"/>
      <point x="419" y="35" type="curve"/>
    </contour>
  </outline>
</glyph>
<glyph name="v" format="1">
  <advance width="515"/>
  <unicode hex="0076"/>
  <outline>
    <contour>
      <point x="117" y="450" type="line"/>
      <point x="2" y="478" type="line"/>
      <point x="200" y="-1" type="line"/>
      <point x="315" y="-29" type="line"/>
    </contour>
    <contour>
      <point x="502" y="450" type="line"/>
      <point x="387" y="478" type="line"/>
      <point x="201" y="-1" type="line"/>
      <point x="316" y="-29" type="line"/>
    </contour>
  </outline>
</glyph>
<glyph name="y" format="1">
  <advance width="548"/>
  <unicode hex="0079"/>
  <outline>
    <contour>
      <point x="340" y="507" type="move" name="top"/>
    </contour>
    <contour>
      <point x="487" y="450" type="line"/>
      <point x="372" y="478" type="line"/>
      <point x="372" y="166" type="line"/>
      <point x="312" y="96"/>
      <point x="214" y="60"/>
      <point x="182" y="119" type="curve" smooth="yes"/>
      <point x="171" y="139"/>
      <point x="175" y="452"/>
      <point x="175" y="452" type="curve"/>
      <point x="175" y="452"/>
      <point x="60" y="480"/>
      <point x="61" y="480" type="curve" smooth="yes"/>
      <point x="61" y="480"/>
      <point x="62" y="178"/>
      <point x="67" y="145" type="curve" smooth="yes"/>
      <point x="73" y="109"/>
      <point x="203" y="-26"/>
      <point x="247" y="-29" type="curve" smooth="yes"/>
      <point x="291" y="-32"/>
      <point x="336" y="4"/>
      <point x="372" y="45" type="curve"/>
      <point x="372" y="-3" type="line" smooth="yes"/>
      <point x="372" y="-88"/>
      <point x="267" y="-176"/>
      <point x="179" y="-132" type="curve" smooth="yes"/>
      <point x="149" y="-117"/>
      <point x="123" y="-101"/>
      <point x="99" y="-87" type="curve"/>
      <point x="73" y="-126" type="line"/>
      <point x="132" y="-160"/>
      <point x="208" y="-208"/>
      <point x="238" y="-221" type="curve" smooth="yes"/>
      <point x="305" y="-250"/>
      <point x="481" y="-156"/>
      <point x="487" y="-62" type="curve"/>
    </contour>
  </outline>
</glyph>
<glyph name="z" format="1">
  <advance width="489"/>
  <unicode hex="007A"/>
  <outline>
    <contour>
      <point x="226" y="507" type="move" name="top"/>
    </contour>
    <contour>
      <point x="447" y="404" type="line"/>
      <point x="442" y="405" type="line"/>
      <point x="447" y="405" type="line"/>
      <point x="417" y="478" type="line"/>
      <point x="10" y="478" type="line"/>
      <point x="40" y="405" type="line"/>
      <point x="301" y="405" type="line"/>
      <point x="139" y="197" type="line"/>
      <point x="146" y="194" type="line"/>
      <point x="147" y="194" type="line"/>
      <point x="177" y="182"/>
      <point x="279" y="141"/>
      <point x="315" y="117" type="curve" smooth="yes"/>
      <point x="392" y="64"/>
      <point x="290" y="-219"/>
      <point x="91" y="-141" type="curve" smooth="yes"/>
      <point x="74" y="-134"/>
      <point x="54" y="-122"/>
      <point x="35" y="-109" type="curve"/>
      <point x="12" y="-133" type="line"/>
      <point x="67" y="-187"/>
      <point x="151" y="-241"/>
      <point x="192" y="-248" type="curve" smooth="yes"/>
      <point x="358" y="-276"/>
      <point x="585" y="36"/>
      <point x="403" y="128" type="curve"/>
      <point x="277" y="188" type="line"/>
    </contour>
  </outline>
</glyph>
<glyph name="braceright" format="1">
  <advance width="626"/>
  <unicode hex="007D"/>
  <outline>
    <contour>
      <point x="122" y="749" type="line"/>
      <point x="122" y="749"/>
      <point x="190" y="779"/>
      <point x="234" y="744" type="curve" smooth="yes"/>
      <point x="273" y="713"/>
      <point x="250" y="536"/>
      <point x="250" y="431" type="curve" smooth="yes"/>
      <point x="250" y="383"/>
      <point x="319" y="369"/>
      <point x="318" y="363" type="curve" smooth="yes"/>
      <point x="317" y="356"/>
      <point x="250" y="345"/>
      <point x="250" y="295" type="curve" smooth="yes"/>
      <point x="250" y="180"/>
      <point x="260" y="41"/>
      <point x="195" y="10" type="curve" smooth="yes"/>
      <point x="146" y="-14"/>
      <point x="86" y="-29"/>
      <point x="86" y="-29" type="curve"/>
      <point x="160" y="-113" type="line"/>
      <point x="160" y="-113"/>
      <point x="270" y="-98"/>
      <point x="328" y="-59" type="curve" smooth="yes"/>
      <point x="343" y="-49"/>
      <point x="366" y="119"/>
      <point x="366" y="264" type="curve" smooth="yes"/>
      <point x="366" y="312"/>
      <point x="441" y="353"/>
      <point x="440" y="363" type="curve" smooth="yes"/>
      <point x="439" y="371"/>
      <point x="371" y="418"/>
      <point x="366" y="452" type="curve" smooth="yes"/>
      <point x="353" y="552"/>
      <point x="391" y="716"/>
      <point x="363" y="742" type="curve" smooth="yes"/>
      <point x="324" y="778"/>
      <point x="292" y="802"/>
      <point x="239" y="829" type="curve" smooth="yes"/>
      <point x="203" y="847"/>
      <point x="74" y="790"/>
      <point x="74" y="790" type="curve"/>
    </contour>
  </outline>
</glyph>
<glyph name="sterling" format="1">
  <advance width="722"/>
  <unicode hex="00A3"/>
  <outline>
    <contour>
      <point x="327" y="1" type="curve"/>
      <point x="315" y="2"/>
      <point x="241" y="-51"/>
      <point x="195" y="-48" type="curve" smooth="yes"/>
      <point x="148" y="-45"/>
      <point x="52" y="19"/>
      <point x="52" y="63" type="curve" smooth="yes"/>
      <point x="52" y="77"/>
      <point x="121" y="163"/>
      <point x="132" y="153" type="curve" smooth="yes"/>
      <point x="221" y="72"/>
      <point x="384" y="-41"/>
      <point x="586" y="67" type="curve"/>
      <point x="697" y="5" type="line"/>
      <point x="605" y="-40"/>
      <point x="560" y="-56"/>
      <point x="502" y="-56" type="curve" smooth="yes"/>
      <point x="477" y="-56"/>
      <point x="350" y="-9"/>
    </contour>
    <contour>
      <point x="327" y="1" type="line"/>
      <point x="198" y="29" type="line"/>
      <point x="259" y="407" type="line" smooth="yes"/>
      <point x="280" y="537"/>
      <point x="429" y="644"/>
      <point x="465" y="623" type="curve"/>
      <point x="533" y="581"/>
      <point x="594" y="513"/>
      <point x="621" y="489" type="curve" smooth="yes"/>
      <point x="659" y="455"/>
      <point x="629" y="360"/>
      <point x="544" y="303" type="curve" smooth="yes"/>
      <point x="474" y="255"/>
      <point x="296" y="271"/>
      <point x="176" y="281" type="curve"/>
      <point x="140" y="345" type="line"/>
      <point x="246" y="322"/>
      <point x="419" y="324"/>
      <point x="484" y="371" type="curve" smooth="yes"/>
      <point x="554" y="420"/>
      <point x="559" y="501"/>
      <point x="533" y="523" type="curve" smooth="yes"/>
      <point x="487" y="562"/>
      <point x="407" y="488"/>
      <point x="388" y="371" type="curve" smooth="yes"/>
    </contour>
  </outline>
</glyph>
<glyph name="currency" format="1">
  <advance width="600"/>
  <unicode hex="00A4"/>
  <outline>
    <contour>
      <point x="62" y="117" type="line"/>
      <point x="132" y="59" type="line"/>
      <point x="235" y="161" type="line"/>
      <point x="243" y="156"/>
      <point x="252" y="151"/>
      <point x="263" y="146" type="curve" smooth="yes"/>
      <point x="318" y="118"/>
      <point x="368" y="127"/>
      <point x="407" y="153" type="curve"/>
      <point x="500" y="58" type="line"/>
      <point x="533" y="98" type="line"/>
      <point x="438" y="181" type="line"/>
      <point x="494" y="244"/>
      <point x="510" y="349"/>
      <point x="451" y="407" type="curve"/>
      <point x="556" y="511" type="line"/>
      <point x="489" y="566" type="line"/>
      <point x="376" y="460" type="line"/>
      <point x="363" y="468"/>
      <point x="349" y="475"/>
      <point x="332" y="484" type="curve" smooth="yes"/>
      <point x="284" y="508"/>
      <point x="231" y="491"/>
      <point x="190" y="456" type="curve"/>
      <point x="93" y="553" type="line"/>
      <point x="57" y="516" type="line"/>
      <point x="161" y="424" type="line"/>
      <point x="118" y="364"/>
      <point x="105" y="278"/>
      <point x="165" y="214" type="curve"/>
    </contour>
    <contour>
      <point x="362" y="412" type="curve" smooth="yes"/>
      <point x="458" y="350"/>
      <point x="356" y="144"/>
      <point x="256" y="203" type="curve" smooth="yes"/>
      <point x="156" y="261"/>
      <point x="268" y="474"/>
    </contour>
  </outline>
</glyph>
<glyph name="guillemotleft" format="1">
  <advance width="675"/>
  <unicode hex="00AB"/>
  <outline>
    <contour>
      <point x="523" y="489" type="line"/>
      <point x="615" y="421" type="line"/>
      <point x="387" y="222" type="line"/>
      <point x="306" y="285" type="line"/>
    </contour>
    <contour>
      <point x="608" y="119" type="line"/>
      <point x="561" y="67" type="line"/>
      <point x="306" y="285" type="line"/>
      <point x="361" y="321" type="line"/>
    </contour>
    <contour>
      <point x="227" y="489" type="line"/>
      <point x="319" y="421" type="line"/>
      <point x="91" y="222" type="line"/>
      <point x="10" y="285" type="line"/>
    </contour>
    <contour>
      <point x="312" y="119" type="line"/>
      <point x="265" y="67" type="line"/>
      <point x="10" y="285" type="line"/>
      <point x="65" y="321" type="line"/>
    </contour>
  </outline>
</glyph>
<glyph name="twosuperior" format="1">
  <advance width="328"/>
  <unicode hex="00B2"/>
  <outline>
    <contour>
      <point x="271" y="619" type="curve" smooth="yes"/>
      <point x="246" y="649"/>
      <point x="200" y="693"/>
      <point x="173" y="716" type="curve" smooth="yes"/>
      <point x="139" y="745"/>
      <point x="24" y="651"/>
      <point x="10" y="635" type="curve"/>
      <point x="65" y="573" type="line"/>
      <point x="79" y="595"/>
      <point x="170" y="671"/>
      <point x="194" y="645" type="curve" smooth="yes"/>
      <point x="213" y="624"/>
      <point x="203" y="591"/>
      <point x="136" y="538" type="curve" smooth="yes"/>
      <point x="99" y="509"/>
      <point x="18" y="450"/>
      <point x="18" y="450" type="curve"/>
      <point x="76" y="388" type="line"/>
      <point x="318" y="388" type="line"/>
      <point x="260" y="450" type="line"/>
      <point x="153" y="450" type="line"/>
      <point x="201" y="489" type="line" smooth="yes"/>
      <point x="242" y="523"/>
      <point x="302" y="581"/>
    </contour>
  </outline>
</glyph>
<glyph name="periodcentered" format="1">
  <advance width="237"/>
  <unicode hex="00B7"/>
  <outline>
    <contour>
      <point x="142" y="210" type="curve"/>
      <point x="114" y="223"/>
      <point x="83" y="249"/>
      <point x="66" y="283" type="curve"/>
      <point x="69" y="306"/>
      <point x="120" y="348"/>
      <point x="141" y="353" type="curve"/>
      <point x="186" y="333"/>
      <point x="207" y="300"/>
      <point x="216" y="282" type="curve"/>
      <point x="207" y="259"/>
      <point x="183" y="231"/>
    </contour>
  </outline>
</glyph>
<glyph name="cedilla" format="1">
  <advance width="301"/>
  <unicode hex="00B8"/>
  <outline>
    <contour>
      <point x="120" y="-114" type="line"/>
      <point x="120" y="-114"/>
      <point x="197" y="-113"/>
      <point x="203" y="-118" type="curve" smooth="yes"/>
      <point x="223" y="-134"/>
      <point x="196" y="-189"/>
      <point x="169" y="-194" type="curve" smooth="yes"/>
      <point x="133" y="-201"/>
      <point x="124" y="-196"/>
      <point x="93" y="-192" type="curve"/>
      <point x="82" y="-210" type="line"/>
      <point x="152" y="-244"/>
      <point x="213" y="-246"/>
      <point x="225" y="-245" type="curve" smooth="yes"/>
      <point x="306" y="-237"/>
      <point x="314" y="-115"/>
      <point x="289" y="-77" type="curve" smooth="yes"/>
      <point x="279" y="-62"/>
      <point x="247" y="-72"/>
      <point x="198" y="-81" type="curve"/>
      <point x="231" y="36" type="line"/>
      <point x="150" y="55" type="line"/>
    </contour>
  </outline>
</glyph>
<glyph name="onequarter" format="1">
  <advance width="831"/>
  <unicode hex="00BC"/>
  <outline>
    <contour>
      <point x="663" y="680" type="line"/>
      <point x="571" y="713" type="line"/>
      <point x="160" y="1" type="line"/>
      <point x="250" y="-30" type="line"/>
    </contour>
    <contour>
      <point x="562" y="83" type="line"/>
      <point x="714" y="83" type="line"/>
      <point x="714" y="-7" type="line"/>
      <point x="816" y="-30" type="line"/>
      <point x="815" y="353" type="line"/>
      <point x="714" y="382" type="line"/>
      <point x="714" y="160" type="line"/>
      <point x="598" y="160" type="line"/>
      <point x="684" y="305" type="line"/>
      <point x="593" y="327" type="line"/>
      <point x="492" y="160" type="line"/>
      <point x="491" y="160" type="line"/>
      <point x="491" y="159" type="line"/>
      <point x="492" y="159" type="line"/>
    </contour>
    <contour>
      <point x="239" y="685" type="line"/>
      <point x="140" y="714" type="line"/>
      <point x="10" y="582" type="line"/>
      <point x="93" y="553" type="line"/>
      <point x="140" y="605" type="line"/>
      <point x="140" y="325" type="line"/>
      <point x="241" y="303" type="line"/>
    </contour>
  </outline>
</glyph>
<glyph name="threequarters" format="1">
  <advance width="841"/>
  <unicode hex="00BE"/>
  <outline>
    <contour>
      <point x="233" y="540" type="line"/>
      <point x="266" y="518"/>
      <point x="306" y="497"/>
      <point x="328" y="478" type="curve" smooth="yes"/>
      <point x="400" y="421"/>
      <point x="221" y="256"/>
      <point x="107" y="348" type="curve" smooth="yes"/>
      <point x="77" y="371"/>
      <point x="53" y="397"/>
      <point x="20" y="447" type="curve"/>
      <point x="52" y="465" type="line"/>
      <point x="151" y="310"/>
      <point x="336" y="446"/>
      <point x="209" y="520" type="curve"/>
    </contour>
    <contour>
      <point x="301" y="612" type="curve" smooth="yes"/>
      <point x="328" y="574"/>
      <point x="276" y="482"/>
      <point x="143" y="476" type="curve"/>
      <point x="107" y="545" type="line"/>
      <point x="213" y="554"/>
      <point x="254" y="608"/>
      <point x="222" y="644" type="curve" smooth="yes"/>
      <point x="192" y="678"/>
      <point x="135" y="628"/>
      <point x="80" y="575" type="curve"/>
      <point x="24" y="644" type="line"/>
      <point x="48" y="668"/>
      <point x="151" y="754"/>
      <point x="202" y="712" type="curve" smooth="yes"/>
      <point x="242" y="680"/>
      <point x="273" y="650"/>
    </contour>
    <contour>
      <point x="501" y="160" type="line"/>
      <point x="745" y="160" type="line"/>
      <point x="816" y="83" type="line"/>
      <point x="572" y="83" type="line"/>
    </contour>
    <contour>
      <point x="599" y="144" type="line"/>
      <point x="501" y="159" type="line"/>
      <point x="603" y="327" type="line"/>
      <point x="694" y="305" type="line"/>
    </contour>
    <contour>
      <point x="826" y="-30" type="line"/>
      <point x="724" y="-7" type="line"/>
      <point x="724" y="382" type="line"/>
      <point x="825" y="353" type="line"/>
    </contour>
    <contour>
      <point x="260" y="-30" type="line"/>
      <point x="170" y="1" type="line"/>
      <point x="581" y="713" type="line"/>
      <point x="673" y="680" type="line"/>
    </contour>
  </outline>
</glyph>
<glyph name="Acircumflex" format="1">
  <advance width="631"/>
  <unicode hex="00C2"/>
  <outline>
    <contour>
      <point x="397" y="8" type="move" name="ogonek"/>
    </contour>
    <contour>
      <point x="332" y="743" type="move" name="top"/>
    </contour>
  </outline>
</glyph>
<glyph name="Adieresis" format="1">
  <advance width="657"/>
  <unicode hex="00C4"/>
  <outline>
    <contour>
      <point x="397" y="8" type="move" name="ogonek"/>
    </contour>
    <contour>
      <point x="332" y="743" type="move" name="top"/>
    </contour>
    <component base="A"/>
    <component base="dieresis" xOffset="145" yOffset="159"/>
  </outline>
</glyph>
<glyph name="Ccedilla" format="1">
  <advance width="629"/>
  <unicode hex="00C7"/>
  <outline>
    <contour>
      <point x="208" y="8" type="move" name="cedilla"/>
    </contour>
    <contour>
      <point x="438" y="743" type="move" name="top"/>
    </contour>
  </outline>
</glyph>
<glyph name="Igrave" format="1">
  <advance width="300"/>
  <unicode hex="00CC"/>
  <outline>
    <contour>
      <point x="77" y="8" type="move" name="ogonek"/>
    </contour>
    <contour>
      <point x="234" y="743" type="move" name="top"/>
    </contour>
    <component base="I"/>
    <component base="grave" xOffset="-137" yOffset="157"/>
  </outline>
</glyph>
<glyph name="Idieresis" format="1">
  <advance width="300"/>
  <unicode hex="00CF"/>
  <outline>
    <contour>
      <point x="77" y="8" type="move" name="ogonek"/>
    </contour>
    <contour>
      <point x="234" y="743" type="move" name="top"/>
    </contour>
    <component base="I"/>
    <component base="dieresis" xOffset="-26" yOffset="159"/>
  </outline>
</glyph>
<glyph name="Thorn" format="1">
  <advance width="565"/>
  <unicode hex="00DE"/>
  <outline>
    <contour>
      <point x="178" y="-29" type="line"/>
      <point x="63" y="-1" type="line"/>
      <point x="63" y="710" type="line"/>
      <point x="178" y="682" type="line"/>
      <point x="178" y="569" type="line"/>
      <point x="253" y="597"/>
      <point x="339" y="597"/>
      <point x="421" y="543" type="curve" smooth="yes"/>
      <point x="674" y="376"/>
      <point x="459" y="78"/>
      <point x="307" y="117" type="curve" smooth="yes"/>
      <point x="281" y="123"/>
      <point x="214" y="149"/>
      <point x="178" y="164" type="curve"/>
    </contour>
    <contour>
      <point x="385" y="273" type="curve" smooth="yes"/>
      <point x="429" y="337"/>
      <point x="454" y="479"/>
      <point x="373" y="516" type="curve" smooth="yes"/>
      <point x="320" y="540"/>
      <point x="221" y="521"/>
      <point x="178" y="435" type="curve"/>
      <point x="178" y="212" type="line"/>
      <point x="226" y="192"/>
      <point x="317" y="175"/>
    </contour>
  </outline>
</glyph>
<glyph name="agrave" format="1">
  <advance width="580"/>
  <unicode hex="00E0"/>
  <outline>
    <contour>
      <point x="344" y="7" type="move" name="ogonek"/>
    </contour>
    <contour>
      <point x="374" y="507" type="move" name="top"/>
    </contour>
    <component base="a" xOffset="14"/>
    <component base="grave" xOffset="7"/>
  </outline>
</glyph>
<glyph name="adieresis" format="1">
  <advance width="580"/>
  <unicode hex="00E4"/>
  <outline>
    <contour>
      <point x="344" y="7" type="move" name="ogonek"/>
    </contour>
    <contour>
      <point x="374" y="507" type="move" name="top"/>
    </contour>
    <component base="a"/>
    <component base="dieresis" xOffset="140"/>
  </outline>
</glyph>
<glyph name="edieresis" format="1">
  <advance width="454"/>
  <unicode hex="00EB"/>
  <outline>
    <contour>
      <point x="279" y="43" type="move" name="ogonek"/>
    </contour>
    <contour>
      <point x="263" y="507" type="move" name="top"/>
    </contour>
  </outline>
</glyph>
<glyph name="eth" format="1">
  <advance width="604"/>
  <unicode hex="00F0"/>
  <outline>
    <contour>
      <point x="242" y="642" type="line"/>
      <point x="267" y="623"/>
      <point x="289" y="601"/>
      <point x="309" y="579" type="curve"/>
      <point x="221" y="551" type="line"/>
      <point x="291" y="493" type="line"/>
      <point x="356" y="515" type="line"/>
      <point x="380" y="474"/>
      <point x="398" y="431"/>
      <point x="409" y="388" type="curve"/>
      <point x="366" y="415"/>
      <point x="323" y="439"/>
      <point x="294" y="449" type="curve" smooth="yes"/>
      <point x="226" y="472"/>
      <point x="31" y="255"/>
      <point x="76" y="170" type="curve" smooth="yes"/>
      <point x="113" y="98"/>
      <point x="244" y="-28"/>
      <point x="350" y="-28" type="curve" smooth="yes"/>
      <point x="473" y="-28"/>
      <point x="539" y="72"/>
      <point x="552" y="201" type="curve" smooth="yes"/>
      <point x="563" y="311"/>
      <point x="536" y="443"/>
      <point x="472" y="554" type="curve"/>
      <point x="562" y="585" type="line"/>
      <point x="495" y="640" type="line"/>
      <point x="429" y="618" type="line"/>
      <point x="403" y="653"/>
      <point x="372" y="684"/>
      <point x="337" y="710" type="curve"/>
    </contour>
    <contour>
      <point x="424" y="245" type="curve" smooth="yes"/>
      <point x="416" y="90"/>
      <point x="328" y="32"/>
      <point x="244" y="73" type="curve" smooth="yes"/>
      <point x="137" y="126"/>
      <point x="206" y="421"/>
      <point x="421" y="322" type="curve"/>
      <point x="424" y="296"/>
      <point x="425" y="269"/>
    </contour>
  </outline>
</glyph>
<glyph name="odieresis" format="1">
  <advance width="590"/>
  <unicode hex="00F6"/>
  <outline>
    <contour>
      <point x="287" y="507" type="move" name="top"/>
    </contour>
    <component base="o"/>
    <component base="dieresis" xOffset="143"/>
  </outline>
</glyph>
<glyph name="ugrave" format="1">
  <advance width="479"/>
  <unicode hex="00F9"/>
  <outline>
    <contour>
      <point x="283" y="7" type="move" name="ogonek"/>
    </contour>
    <contour>
      <point x="287" y="507" type="move" name="top"/>
    </contour>
  </outline>
</glyph>
<glyph name="thorn" format="1">
  <advance width="526"/>
  <unicode hex="00FE"/>
  <outline>
    <contour>
      <point x="188" y="662" type="line"/>
      <point x="63" y="690" type="line"/>
      <point x="63" y="-227" type="line"/>
      <point x="188" y="-255" type="line"/>
      <point x="188" y="13" type="line"/>
      <point x="215" y="0"/>
      <point x="253" y="-18"/>
      <point x="274" y="-24" type="curve" smooth="yes"/>
      <point x="426" y="-63"/>
      <point x="659" y="246"/>
      <point x="406" y="413" type="curve" smooth="yes"/>
      <point x="329" y="463"/>
      <point x="255" y="462"/>
      <point x="188" y="436" type="curve"/>
    </contour>
    <contour>
      <point x="363" y="147" type="curve"/>
      <point x="297" y="61"/>
      <point x="231" y="57"/>
      <point x="188" y="68" type="curve"/>
      <point x="188" y="286" type="line"/>
      <point x="368" y="500"/>
      <point x="483" y="308"/>
    </contour>
  </outline>
</glyph>
<glyph name="Aogonek" format="1">
  <advance width="657"/>
  <unicode hex="0104"/>
  <outline>
    <contour>
      <point x="397" y="8" type="move" name="ogonek"/>
    </contour>
    <contour>
      <point x="332" y="743" type="move" name="top"/>
    </contour>
    <contour>
      <point x="140" y="-29" type="line"/>
      <point x="10" y="0" type="line"/>
      <point x="252" y="666" type="line"/>
      <point x="380" y="625" type="line"/>
      <point x="379" y="622" type="line"/>
      <point x="647" y="-29" type="line"/>
      <point x="554" y="-86"/>
      <point x="489" y="-153"/>
      <point x="538" y="-172" type="curve" smooth="yes"/>
      <point x="561" y="-181"/>
      <point x="593" y="-170"/>
      <point x="650" y="-126" type="curve" smooth="yes"/>
      <point x="651" y="-125"/>
      <point x="718" y="-195"/>
      <point x="718" y="-195" type="curve"/>
      <point x="638" y="-246"/>
      <point x="615" y="-258"/>
      <point x="570" y="-245" type="curve" smooth="yes"/>
      <point x="540" y="-236"/>
      <point x="479" y="-196"/>
      <point x="450" y="-161" type="curve" smooth="yes"/>
      <point x="419" y="-123"/>
      <point x="405" y="-111"/>
      <point x="528" y="0" type="curve"/>
      <point x="458" y="183" type="line"/>
      <point x="212" y="167" type="line"/>
    </contour>
    <contour>
      <point x="244" y="254" type="line"/>
      <point x="426" y="266" type="line"/>
      <point x="335" y="503" type="line"/>
    </contour>
  </outline>
</glyph>
<glyph name="Cacute" format="1">
  <advance width="629"/>
  <unicode hex="0106"/>
  <outline>
    <contour>
      <point x="208" y="8" type="move" name="cedilla"/>
    </contour>
    <contour>
      <point x="438" y="743" type="move" name="top"/>
    </contour>
  </outline>
</glyph>
<glyph name="Dcroat" format="1">
  <advance width="882"/>
  <unicode hex="0110"/>
  <outline>
    <contour>
      <point x="502" y="683" type="move" name="top"/>
    </contour>
    <contour>
      <point x="45" y="383" type="line"/>
      <point x="428" y="383" type="line"/>
      <point x="459" y="302" type="line"/>
      <point x="76" y="302" type="line"/>
    </contour>
    <component base="D" xOffset="73"/>
  </outline>
</glyph>
<glyph name="emacron" format="1">
  <advance width="454"/>
  <unicode hex="0113"/>
  <outline>
    <contour>
      <point x="279" y="43" type="move" name="ogonek"/>
    </contour>
    <contour>
      <point x="263" y="507" type="move" name="top"/>
    </contour>
  </outline>
</glyph>
<glyph name="imacron" format="1">
  <advance width="260"/>
  <unicode hex="012B"/>
  <outline>
    <contour>
      <point x="53" y="7" type="move" name="ogonek"/>
    </contour>
    <contour>
      <point x="183" y="507" type="move" name="top"/>
    </contour>
  </outline>
</glyph>
<glyph name="Lslash" format="1">
  <advance width="670"/>
  <unicode hex="0141"/>
  <outline>
    <contour>
      <point x="307" y="657" type="move" name="top"/>
    </contour>
    <contour>
      <point x="215" y="0" type="line"/>
      <point x="85" y="29" type="line"/>
      <point x="85" y="291" type="line"/>
      <point x="34" y="277" type="line"/>
      <point x="19" y="334" type="line"/>
      <point x="85" y="358" type="line"/>
      <point x="85" y="667" type="line"/>
      <point x="213" y="626" type="line"/>
      <point x="213" y="406" type="line"/>
      <point x="339" y="452" type="line"/>
      <point x="375" y="375" type="line"/>
      <point x="214" y="328" type="line"/>
      <point x="214" y="90" type="line"/>
      <point x="532" y="90" type="line"/>
      <point x="612" y="0" type="line"/>
    </contour>
  </outline>
</glyph>
<glyph name="lslash" format="1">
  <advance width="383"/>
  <unicode hex="0142"/>
  <outline>
    <contour>
      <point x="300" y="733" type="move" name="top"/>
    </contour>
  </outline>
</glyph>
<glyph name="OE" format="1">
  <advance width="1190"/>
  <unicode hex="0152"/>
  <outline>
    <contour>
      <point x="723" y="0" type="line"/>
      <point x="1140" y="0" type="line"/>
      <point x="1060" y="90" type="line"/>
      <point x="645" y="90" type="line"/>
    </contour>
    <contour>
      <point x="673" y="295" type="line"/>
      <point x="1060" y="295" type="line"/>
      <point x="980" y="385" type="line"/>
      <point x="593" y="385" type="line"/>
    </contour>
    <contour>
      <point x="673" y="577" type="line"/>
      <point x="1100" y="577" type="line"/>
      <point x="1020" y="667" type="line"/>
      <point x="593" y="667" type="line"/>
    </contour>
    <contour>
      <point x="721" y="626" type="line"/>
      <point x="593" y="667" type="line"/>
      <point x="593" y="29" type="line"/>
      <point x="723" y="0" type="line"/>
    </contour>
    <contour>
      <point x="507" y="576" type="curve" smooth="yes"/>
      <point x="717" y="435"/>
      <point x="500" y="-29"/>
      <point x="290" y="114" type="curve" smooth="yes"/>
      <point x="96" y="246"/>
      <point x="287" y="724"/>
    </contour>
    <contour>
      <point x="649" y="528" type="curve" smooth="yes"/>
      <point x="594" y="586"/>
      <point x="537" y="632"/>
      <point x="445" y="686" type="curve" smooth="yes"/>
      <point x="205" y="825"/>
      <point x="-45" y="354"/>
      <point x="141" y="163" type="curve" smooth="yes"/>
      <point x="225" y="75"/>
      <point x="266" y="57"/>
      <point x="332" y="17" type="curve" smooth="yes"/>
      <point x="597" y="-144"/>
      <point x="842" y="327"/>
    </contour>
  </outline>
</glyph>
<glyph name="Sacute" format="1">
  <advance width="756"/>
  <unicode hex="015A"/>
  <outline>
    <contour>
      <point x="191" y="0" type="move" name="cedilla"/>
    </contour>
    <contour>
      <point x="400" y="743" type="move" name="top"/>
    </contour>
    <component base="S" xOffset="15"/>
    <component base="acute" xOffset="172" yOffset="160"/>
  </outline>
</glyph>
<glyph name="Tcaron" format="1">
  <advance width="505"/>
  <unicode hex="0164"/>
  <outline>
    <contour>
      <point x="156" y="0" type="move" name="cedilla"/>
    </contour>
    <contour>
      <point x="328" y="743" type="move" name="top"/>
    </contour>
  </outline>
</glyph>
<glyph name="Umacron" format="1">
  <advance width="578"/>
  <unicode hex="016A"/>
  <outline>
    <contour>
      <point x="241" y="23" type="move" name="ogonek"/>
    </contour>
    <contour>
      <point x="313" y="743" type="move" name="top"/>
    </contour>
  </outline>
</glyph>
<glyph name="uring" format="1">
  <advance width="479"/>
  <unicode hex="016F"/>
  <outline>
    <contour>
      <point x="283" y="7" type="move" name="ogonek"/>
    </contour>
    <contour>
      <point x="287" y="507" type="move" name="top"/>
    </contour>
  </outline>
</glyph>
<glyph name="Ydieresis" format="1">
  <advance width="561"/>
  <unicode hex="0178"/>
  <outline>
    <contour>
      <point x="336" y="743" type="move" name="top"/>
    </contour>
  </outline>
</glyph>
<glyph name="Zcaron" format="1">
  <advance width="835"/>
  <unicode hex="017D"/>
  <outline>
    <contour>
      <point x="378" y="743" type="move" name="top"/>
    </contour>
    <component base="Z"/>
    <component base="caron" xOffset="227" yOffset="185"/>
  </outline>
</glyph>
<glyph name="florin" format="1">
  <advance width="525"/>
  <unicode hex="0192"/>
  <outline>
    <contour>
      <point x="164" y="548" type="curve" smooth="yes"/>
      <point x="193" y="715"/>
      <point x="278" y="741"/>
      <point x="341" y="704" type="curve" smooth="yes"/>
      <point x="371" y="687"/>
      <point x="474" y="564"/>
      <point x="474" y="547" type="curve" smooth="yes"/>
      <point x="474" y="514"/>
      <point x="394" y="207"/>
      <point x="230" y="291" type="curve"/>
      <point x="201" y="303" type="line"/>
      <point x="326" y="307"/>
      <point x="430" y="535"/>
      <point x="367" y="625" type="curve" smooth="yes"/>
      <point x="332" y="675"/>
      <point x="259" y="584"/>
      <point x="247" y="441" type="curve" smooth="yes"/>
      <point x="238" y="326"/>
      <point x="221" y="27"/>
      <point x="203" y="-94" type="curve" smooth="yes"/>
      <point x="192" y="-171"/>
      <point x="94" y="-198"/>
      <point x="-16" y="-146" type="curve"/>
      <point x="78" y="-146"/>
      <point x="98" y="-100"/>
      <point x="102" y="-69" type="curve" smooth="yes"/>
      <point x="125" y="117"/>
      <point x="142" y="421"/>
    </contour>
    <contour>
      <point x="81" y="308" type="line"/>
      <point x="408" y="308" type="line"/>
      <point x="438" y="238" type="line"/>
      <point x="111" y="238" type="line"/>
    </contour>
  </outline>
</glyph>
<glyph name="circumflex" format="1">
  <advance width="354"/>
  <unicode hex="02C6"/>
  <outline>
    <contour>
      <point x="35" y="551" type="curve"/>
      <point x="44" y="554"/>
      <point x="148" y="656"/>
      <point x="155" y="661" type="curve"/>
      <point x="164" y="653"/>
      <point x="260" y="550"/>
      <point x="274" y="549" type="curve"/>
      <point x="279" y="546"/>
      <point x="350" y="605"/>
      <point x="350" y="611" type="curve" smooth="yes"/>
      <point x="351" y="618"/>
      <point x="186" y="752"/>
      <point x="178" y="754" type="curve" smooth="yes"/>
      <point x="172" y="755"/>
      <point x="-9" y="601"/>
      <point x="-9" y="596" type="curve" smooth="yes"/>
      <point x="-8" y="591"/>
      <point x="27" y="552"/>
    </contour>
  </outline>
</glyph>
<glyph name="caron" format="1">
  <advance width="350"/>
  <unicode hex="02C7"/>
  <outline>
    <contour>
      <point x="50" y="719" type="line"/>
      <point x="17" y="679" type="line"/>
      <point x="167" y="515" type="line"/>
      <point x="356" y="657" type="line"/>
      <point x="297" y="719" type="line"/>
      <point x="156" y="585" type="line"/>
    </contour>
  </outline>
</glyph>
<glyph name="ring" format="1">
  <advance width="260"/>
  <unicode hex="02DA"/>
  <outline>
    <contour>
      <point x="165" y="725" type="curve" smooth="yes"/>
      <point x="222" y="690"/>
      <point x="166" y="572"/>
      <point x="105" y="603" type="curve" smooth="yes"/>
      <point x="39" y="637"/>
      <point x="105" y="762"/>
    </contour>
    <contour>
      <point x="226" y="735" type="curve" smooth="yes"/>
      <point x="202" y="754"/>
      <point x="183" y="765"/>
      <point x="150" y="782" type="curve" smooth="yes"/>
      <point x="63" y="826"/>
      <point x="-51" y="672"/>
      <point x="50" y="590" type="curve" smooth="yes"/>
      <point x="63" y="579"/>
      <point x="74" y="571"/>
      <point x="103" y="556" type="curve" smooth="yes"/>
      <point x="218" y="499"/>
      <point x="303" y="670"/>
    </contour>
  </outline>
</glyph>
<glyph name="tilde" format="1">
  <advance width="414"/>
  <unicode hex="02DC"/>
  <outline>
    <contour>
      <point x="134" y="717" type="curve" smooth="yes"/>
      <point x="107" y="720"/>
      <point x="0" y="640"/>
      <point x="-2" y="632" type="curve"/>
      <point x="-2" y="621"/>
      <point x="55" y="543"/>
      <point x="64" y="541" type="curve"/>
      <point x="77" y="545"/>
      <point x="132" y="626"/>
      <point x="163" y="627" type="curve" smooth="yes"/>
      <point x="178" y="628"/>
      <point x="261" y="539"/>
      <point x="288" y="539" type="curve" smooth="yes"/>
      <point x="338" y="539"/>
      <point x="424" y="631"/>
      <point x="423" y="637" type="curve" smooth="yes"/>
      <point x="422" y="644"/>
      <point x="355" y="713"/>
      <point x="349" y="714" type="curve"/>
      <point x="341" y="713"/>
      <point x="277" y="625"/>
      <point x="254" y="625" type="curve" smooth="yes"/>
      <point x="233" y="625"/>
      <point x="161" y="714"/>
    </contour>
  </outline>
</glyph>
<glyph name="danda" format="1">
  <advance width="406"/>
  <unicode hex="0964"/>
  <outline>
    <contour>
      <point x="325" y="613" type="line"/>
      <point x="201" y="669" type="line"/>
      <point x="201" y="-1" type="line"/>
      <point x="325" y="-57" type="line"/>
    </contour>
  </outline>
</glyph>
<glyph name="fraction" format="1">
  <advance width="538"/>
  <unicode hex="2044"/>
  <outline>
    <contour>
      <point x="521" y="680" type="line"/>
      <point x="429" y="713" type="line"/>
      <point x="18" y="1" type="line"/>
      <point x="108" y="-30" type="line"/>
    </contour>
  </outline>
</glyph>
<glyph name="Euro" format="1">
  <advance width="586"/>
  <unicode hex="20AC"/>
  <outline>
    <contour>
      <point x="59" y="346" type="line"/>
      <point x="119" y="346" type="line"/>
      <point x="117" y="327"/>
      <point x="116" y="308"/>
      <point x="116" y="289" type="curve"/>
      <point x="39" y="289" type="line"/>
      <point x="69" y="216" type="line"/>
      <point x="125" y="216" type="line"/>
      <point x="137" y="169"/>
      <point x="160" y="123"/>
      <point x="197" y="83" type="curve" smooth="yes"/>
      <point x="237" y="39"/>
      <point x="306" y="-4"/>
      <point x="333" y="-15" type="curve" smooth="yes"/>
      <point x="395" y="-41"/>
      <point x="493" y="-22"/>
      <point x="544" y="12" type="curve"/>
      <point x="544" y="13"/>
      <point x="470" y="93"/>
      <point x="468" y="94" type="curve"/>
      <point x="403" y="47"/>
      <point x="333" y="47"/>
      <point x="291" y="76" type="curve" smooth="yes"/>
      <point x="253" y="102"/>
      <point x="235" y="155"/>
      <point x="231" y="216" type="curve"/>
      <point x="492" y="216" type="line"/>
      <point x="462" y="289" type="line"/>
      <point x="233" y="289" type="line"/>
      <point x="235" y="308"/>
      <point x="238" y="327"/>
      <point x="242" y="346" type="curve"/>
      <point x="482" y="346" type="line"/>
      <point x="452" y="419" type="line"/>
      <point x="265" y="419" type="line"/>
      <point x="295" y="496"/>
      <point x="343" y="556"/>
      <point x="401" y="564" type="curve" smooth="yes"/>
      <point x="430" y="568"/>
      <point x="479" y="552"/>
      <point x="513" y="536" type="curve" smooth="yes"/>
      <point x="514" y="535"/>
      <point x="545" y="580"/>
      <point x="545" y="580" type="curve"/>
      <point x="499" y="606"/>
      <point x="489" y="611"/>
      <point x="400" y="654" type="curve" smooth="yes"/>
      <point x="315" y="695"/>
      <point x="186" y="574"/>
      <point x="136" y="419" type="curve"/>
      <point x="29" y="419" type="line"/>
    </contour>
  </outline>
</glyph>
<glyph name="trademark" format="1">
  <advance width="729"/>
  <unicode hex="2122"/>
  <outline>
    <contour>
      <point x="645" y="424" type="line"/>
      <point x="582" y="438" type="line"/>
      <point x="582" y="697" type="line"/>
      <point x="644" y="677" type="line"/>
    </contour>
    <contour>
      <point x="359" y="670" type="line"/>
      <point x="359" y="670"/>
      <point x="401" y="677"/>
      <point x="401" y="677" type="curve"/>
      <point x="401" y="677"/>
      <point x="494" y="483"/>
      <point x="494" y="483" type="curve"/>
      <point x="494" y="483"/>
      <point x="461" y="448"/>
      <point x="461" y="448" type="curve"/>
    </contour>
    <contour>
      <point x="523" y="434" type="line"/>
      <point x="461" y="448" type="line"/>
      <point x="581" y="697" type="line"/>
      <point x="644" y="677" type="line"/>
    </contour>
    <contour>
      <point x="401" y="424" type="line"/>
      <point x="339" y="438" type="line"/>
      <point x="339" y="697" type="line"/>
      <point x="401" y="677" type="line"/>
    </contour>
    <contour>
      <point x="40" y="697" type="line"/>
      <point x="272" y="697" type="line"/>
      <point x="310" y="654" type="line"/>
      <point x="78" y="654" type="line"/>
    </contour>
    <contour>
      <point x="211" y="424" type="line"/>
      <point x="148" y="438" type="line"/>
      <point x="148" y="697" type="line"/>
      <point x="210" y="677" type="line"/>
    </contour>
  </outline>
</glyph>
<glyph name="summation" format="1">
  <advance width="833"/>
  <unicode hex="2211"/>
  <outline>
    <contour>
      <point x="137" y="90" type="line"/>
      <point x="139" y="90" type="line"/>
      <point x="422" y="369" type="line"/>
      <point x="141" y="577" type="line"/>
      <point x="140" y="577" type="line"/>
      <point x="140" y="578" type="line"/>
      <point x="142" y="667" type="line"/>
      <point x="142" y="668" type="line"/>
      <point x="143" y="667" type="line"/>
      <point x="652" y="667" type="line"/>
      <point x="732" y="577" type="line"/>
      <point x="265" y="577" type="line"/>
      <point x="523" y="386" type="line"/>
      <point x="521" y="297" type="line"/>
      <point x="521" y="296" type="line"/>
      <point x="520" y="296" type="line"/>
      <point x="310" y="90" type="line"/>
      <point x="692" y="90" type="line"/>
      <point x="772" y="0" type="line"/>
      <point x="215" y="0" type="line"/>
    </contour>
  </outline>
</glyph>
<glyph name="greaterequal" format="1">
  <advance width="513"/>
  <unicode hex="2265"/>
  <outline>
    <contour>
      <point x="460" y="341" type="line"/>
      <point x="345" y="282" type="line"/>
      <point x="344" y="282" type="line"/>
      <point x="94" y="155" type="line"/>
      <point x="39" y="219" type="line"/>
      <point x="282" y="331" type="line"/>
      <point x="44" y="520" type="line"/>
      <point x="141" y="582" type="line"/>
    </contour>
    <contour>
      <point x="457" y="91" type="line"/>
      <point x="36" y="32" type="line"/>
      <point x="66" y="105" type="line"/>
      <point x="487" y="164" type="line"/>
    </contour>
  </outline>
</glyph>
<glyph name="fl" format="1">
  <advance width="700"/>
  <unicode hex="FB02"/>
  <outline>
    <contour>
      <point x="95" y="408" type="line"/>
      <point x="422" y="408" type="line"/>
      <point x="392" y="478" type="line"/>
      <point x="65" y="478" type="line"/>
    </contour>
    <contour>
      <point x="635" y="651" type="line"/>
      <point x="520" y="679" type="line" smooth="yes"/>
      <point x="468" y="692"/>
      <point x="410" y="707"/>
      <point x="378" y="710" type="curve" smooth="yes"/>
      <point x="305" y="716"/>
      <point x="169" y="626"/>
      <point x="169" y="565" type="curve" smooth="yes"/>
      <point x="169" y="478" type="line" smooth="yes"/>
      <point x="169" y="327"/>
      <point x="169" y="210"/>
      <point x="170" y="-1" type="curve"/>
      <point x="285" y="-29" type="line"/>
      <point x="280" y="478" type="line"/>
      <point x="282" y="571"/>
      <point x="323" y="699"/>
      <point x="520" y="632" type="curve"/>
      <point x="520" y="-1" type="line"/>
      <point x="635" y="-29" type="line"/>
    </contour>
  </outline>
</glyph>
<glyph name="dvA" format="1">
  <advance width="800"/>
  <outline>
    <contour>
      <point x="645" y="-10" type="move" name="blwm.virama"/>
    </contour>
    <contour>
      <point x="695" y="619" type="move" name="abvm.bindu"/>
    </contour>
    <contour>
      <point x="645" y="0" type="move" name="blwm.u"/>
    </contour>
    <contour>
      <point x="680" y="619" type="move" name="abvm.e"/>
    </contour>
    <component base="dvA.init"/>
  </outline>
</glyph>
<glyph name="dvB" format="1">
  <advance width="375"/>
  <outline>
    <contour>
      <point x="421" y="314" type="line"/>
      <point x="352" y="374"/>
      <point x="278" y="367"/>
      <point x="223" y="336" type="curve"/>
      <point x="345" y="218" type="line"/>
      <point x="369" y="239"/>
      <point x="393" y="267"/>
      <point x="417" y="306" type="curve"/>
      <point x="442" y="214" type="line"/>
      <point x="442" y="214"/>
      <point x="374" y="72"/>
      <point x="272" y="71" type="curve"/>
      <point x="166" y="71"/>
      <point x="91" y="191"/>
      <point x="54" y="263" type="curve" smooth="yes"/>
      <point x="9" y="348"/>
      <point x="228" y="500"/>
      <point x="287" y="460" type="curve" smooth="yes"/>
      <point x="321" y="436"/>
      <point x="388" y="391"/>
      <point x="424" y="368" type="curve"/>
    </contour>
    <contour>
      <point x="-8" y="619" type="line"/>
      <point x="594" y="619" type="line"/>
      <point x="594" y="523" type="line"/>
      <point x="-8" y="523" type="line"/>
    </contour>
    <contour>
      <point x="151" y="201" type="curve" smooth="yes"/>
      <point x="170" y="180"/>
      <point x="238" y="148"/>
      <point x="316" y="196" type="curve"/>
      <point x="192" y="315" type="line"/>
      <point x="148" y="277"/>
      <point x="127" y="226"/>
    </contour>
  </outline>
</glyph>
<glyph name="dvBHA" format="1">
  <advance width="695"/>
  <outline>
    <contour>
      <point x="356" y="523" type="line"/>
      <point x="500" y="523" type="line"/>
      <point x="500" y="269" type="line"/>
      <point x="344" y="268" type="line"/>
      <point x="344" y="381" type="line"/>
      <point x="344" y="381"/>
      <point x="345" y="460"/>
      <point x="341" y="467" type="curve"/>
      <point x="303" y="510"/>
      <point x="250" y="554"/>
      <point x="187" y="607" type="curve" smooth="yes"/>
      <point x="101" y="679"/>
      <point x="-21" y="519"/>
      <point x="42" y="462" type="curve"/>
      <point x="93" y="414"/>
      <point x="119" y="400"/>
      <point x="174" y="345" type="curve" smooth="yes"/>
      <point x="178" y="340"/>
      <point x="197" y="338"/>
      <point x="220" y="340" type="curve"/>
      <point x="220" y="268" type="line"/>
      <point x="160" y="268" type="line" smooth="yes"/>
      <point x="99" y="268"/>
      <point x="42" y="166"/>
      <point x="96" y="122" type="curve" smooth="yes"/>
      <point x="127" y="97"/>
      <point x="170" y="60"/>
      <point x="191" y="43" type="curve" smooth="yes"/>
      <point x="217" y="21"/>
      <point x="344" y="29"/>
      <point x="344" y="134" type="curve" smooth="yes"/>
      <point x="344" y="172" type="line"/>
      <point x="500" y="172" type="line"/>
      <point x="500" y="0" type="line"/>
      <point x="624" y="-56" type="line"/>
      <point x="624" y="523" type="line"/>
      <point x="699" y="523" type="line"/>
      <point x="699" y="619" type="line"/>
      <point x="318" y="619" type="line"/>
    </contour>
    <contour>
      <point x="220" y="432" type="curve"/>
      <point x="183" y="426"/>
      <point x="138" y="426"/>
      <point x="124" y="437" type="curve" smooth="yes"/>
      <point x="90" y="465"/>
      <point x="163" y="580"/>
      <point x="214" y="528" type="curve" smooth="yes"/>
      <point x="221" y="521"/>
      <point x="220" y="472"/>
    </contour>
  </outline>
</glyph>
<glyph name="dvBH_NA" format="1">
  <advance width="844"/>
  <outline>
    <contour>
      <point x="660" y="0" type="line"/>
      <point x="784" y="-56" type="line"/>
      <point x="784" y="523" type="line"/>
      <point x="859" y="523" type="line"/>
      <point x="859" y="619" type="line"/>
      <point x="318" y="619" type="line"/>
      <point x="356" y="523" type="line"/>
      <point x="660" y="523" type="line"/>
      <point x="660" y="271" type="line"/>
      <point x="344" y="270" type="line"/>
      <point x="344" y="391" type="line"/>
      <point x="346" y="467" type="line"/>
      <point x="308" y="510"/>
      <point x="250" y="554"/>
      <point x="187" y="607" type="curve" smooth="yes"/>
      <point x="101" y="679"/>
      <point x="-21" y="519"/>
      <point x="42" y="462" type="curve"/>
      <point x="93" y="414"/>
      <point x="119" y="400"/>
      <point x="174" y="345" type="curve" smooth="yes"/>
      <point x="178" y="340"/>
      <point x="197" y="338"/>
      <point x="220" y="340" type="curve"/>
      <point x="220" y="273" type="line"/>
      <point x="62" y="280"/>
      <point x="51" y="156"/>
      <point x="82" y="119" type="curve" smooth="yes"/>
      <point x="115" y="80"/>
      <point x="166" y="41"/>
      <point x="188" y="26" type="curve" smooth="yes"/>
      <point x="216" y="7"/>
      <point x="344" y="-9"/>
      <point x="344" y="172" type="curve"/>
      <point x="627" y="172" type="line"/>
      <point x="481" y="131"/>
      <point x="429" y="118"/>
      <point x="413" y="114" type="curve"/>
      <point x="414" y="114"/>
      <point x="414" y="113"/>
      <point x="413" y="113" type="curve" smooth="yes"/>
      <point x="360" y="74"/>
      <point x="331" y="-8"/>
      <point x="395" y="-50" type="curve" smooth="yes"/>
      <point x="436" y="-77"/>
      <point x="466" y="-93"/>
      <point x="521" y="-117" type="curve"/>
      <point x="567" y="-139"/>
      <point x="682" y="-8"/>
      <point x="593" y="66" type="curve"/>
      <point x="660" y="83" type="line"/>
    </contour>
    <contour>
      <point x="220" y="432" type="curve"/>
      <point x="183" y="426"/>
      <point x="138" y="426"/>
      <point x="124" y="437" type="curve" smooth="yes"/>
      <point x="90" y="465"/>
      <point x="163" y="580"/>
      <point x="214" y="528" type="curve" smooth="yes"/>
      <point x="221" y="521"/>
      <point x="220" y="472"/>
    </contour>
    <contour>
      <point x="219" y="176" type="curve"/>
      <point x="220" y="99"/>
      <point x="173" y="97"/>
      <point x="157" y="115" type="curve" smooth="yes"/>
      <point x="137" y="138"/>
      <point x="153" y="184"/>
    </contour>
  </outline>
</glyph>
<glyph name="dvBH_YA" format="1">
  <advance width="1031"/>
  <outline>
    <contour>
      <point x="314" y="619" type="line"/>
      <point x="695" y="619" type="line"/>
      <point x="695" y="523" type="line"/>
      <point x="352" y="523" type="line"/>
    </contour>
    <component base="dvBH" xOffset="-52"/>
    <component base="dvYA" xOffset="360"/>
  </outline>
</glyph>
<glyph name="dvB_DA_mUU" format="1">
  <advance width="945"/>
  <outline>
    <contour>
      <point x="769" y="619" type="move" name="abvm.bindu"/>
    </contour>
    <contour>
      <point x="754" y="619" type="move" name="abvm.e"/>
    </contour>
    <component base="dvB"/>
    <component base="dvDA" xOffset="340"/>
    <component base="dvmUU" xOffset="794"/>
  </outline>
</glyph>
<glyph name="dvB_LA" format="1">
  <advance width="1026"/>
  <outline>
    <contour>
      <point x="414" y="314" type="line"/>
      <point x="264" y="445"/>
      <point x="90" y="258"/>
      <point x="144" y="201" type="curve" smooth="yes"/>
      <point x="171" y="171"/>
      <point x="297" y="120"/>
      <point x="410" y="306" type="curve"/>
      <point x="410" y="306"/>
      <point x="435" y="214"/>
      <point x="435" y="214" type="curve"/>
      <point x="435" y="214"/>
      <point x="367" y="72"/>
      <point x="265" y="71" type="curve"/>
      <point x="159" y="71"/>
      <point x="84" y="191"/>
      <point x="47" y="263" type="curve" smooth="yes"/>
      <point x="2" y="348"/>
      <point x="221" y="500"/>
      <point x="280" y="460" type="curve" smooth="yes"/>
      <point x="314" y="436"/>
      <point x="402" y="378"/>
      <point x="438" y="355" type="curve"/>
    </contour>
    <contour>
      <point x="160" y="340" type="line"/>
      <point x="184" y="368" type="line"/>
      <point x="382" y="176" type="line"/>
      <point x="358" y="149" type="line"/>
    </contour>
    <contour>
      <point x="-15" y="619" type="line"/>
      <point x="587" y="619" type="line"/>
      <point x="587" y="523" type="line"/>
      <point x="-15" y="523" type="line"/>
    </contour>
    <component base="dvLA" xOffset="325"/>
  </outline>
</glyph>
<glyph name="dvB_NA" format="1">
  <advance width="624"/>
  <outline>
    <contour>
      <point x="526" y="147" type="line"/>
      <point x="217" y="28" type="line" smooth="yes"/>
      <point x="-3" y="-57"/>
      <point x="258" y="-150"/>
      <point x="215" y="37" type="curve"/>
      <point x="215" y="37"/>
      <point x="252" y="57"/>
      <point x="252" y="57" type="curve"/>
      <point x="376" y="-1"/>
      <point x="268" y="-159"/>
      <point x="216" y="-142" type="curve" smooth="yes"/>
      <point x="159" y="-123"/>
      <point x="128" y="-111"/>
      <point x="84" y="-88" type="curve" smooth="yes"/>
      <point x="16" y="-53"/>
      <point x="37" y="32"/>
      <point x="85" y="76" type="curve" smooth="yes"/>
      <point x="95" y="84"/>
      <point x="67" y="68"/>
      <point x="491" y="236" type="curve"/>
    </contour>
    <contour>
      <point x="457" y="314" type="line"/>
      <point x="307" y="445"/>
      <point x="133" y="258"/>
      <point x="187" y="201" type="curve" smooth="yes"/>
      <point x="214" y="171"/>
      <point x="340" y="120"/>
      <point x="453" y="306" type="curve"/>
      <point x="453" y="306"/>
      <point x="478" y="214"/>
      <point x="478" y="214" type="curve"/>
      <point x="478" y="214"/>
      <point x="410" y="72"/>
      <point x="308" y="71" type="curve"/>
      <point x="202" y="71"/>
      <point x="127" y="191"/>
      <point x="90" y="263" type="curve" smooth="yes"/>
      <point x="45" y="348"/>
      <point x="264" y="500"/>
      <point x="323" y="460" type="curve" smooth="yes"/>
      <point x="357" y="436"/>
      <point x="424" y="391"/>
      <point x="460" y="368" type="curve"/>
    </contour>
    <contour>
      <point x="203" y="340" type="line"/>
      <point x="227" y="368" type="line"/>
      <point x="425" y="176" type="line"/>
      <point x="401" y="149" type="line"/>
    </contour>
    <contour>
      <point x="430" y="538" type="line"/>
      <point x="555" y="538" type="line"/>
      <point x="555" y="-55" type="line"/>
      <point x="430" y="1" type="line"/>
    </contour>
    <contour>
      <point x="-12" y="619" type="line"/>
      <point x="630" y="619" type="line"/>
      <point x="630" y="523" type="line"/>
      <point x="-12" y="523" type="line"/>
    </contour>
  </outline>
</glyph>
<glyph name="dvCA" format="1">
  <advance width="756"/>
  <outline>
    <contour>
      <point x="-8" y="402" type="line"/>
      <point x="310" y="402" type="line"/>
      <point x="408" y="319" type="line"/>
      <point x="88" y="319" type="line"/>
    </contour>
    <contour>
      <point x="408" y="319" type="line"/>
      <point x="97" y="212"/>
      <point x="333" y="24"/>
      <point x="569" y="347" type="curve"/>
      <point x="647" y="275" type="line"/>
      <point x="532" y="73"/>
      <point x="365" y="39"/>
      <point x="303" y="89" type="curve" smooth="yes"/>
      <point x="242" y="138"/>
      <point x="218" y="159"/>
      <point x="165" y="220" type="curve" smooth="yes"/>
      <point x="109" y="284"/>
      <point x="245" y="401"/>
      <point x="318" y="395" type="curve"/>
    </contour>
    <contour>
      <point x="564" y="537" type="line"/>
      <point x="688" y="537" type="line"/>
      <point x="688" y="-56" type="line"/>
      <point x="564" y="0" type="line"/>
    </contour>
    <contour>
      <point x="-70" y="619" type="line"/>
      <point x="774" y="619" type="line"/>
      <point x="774" y="523" type="line"/>
      <point x="-70" y="523" type="line"/>
    </contour>
  </outline>
</glyph>
<glyph name="dvCH" format="1">
  <advance width="599"/>
  <outline>
    <contour>
      <point x="-28" y="619" type="line"/>
      <point x="697" y="619" type="line"/>
      <point x="697" y="523" type="line"/>
      <point x="-28" y="523" type="line"/>
    </contour>
    <contour>
      <point x="637" y="397" type="curve" smooth="yes"/>
      <point x="736" y="223"/>
      <point x="334" y="-125"/>
      <point x="202" y="7" type="curve" smooth="yes"/>
      <point x="143" y="66"/>
      <point x="106" y="112"/>
      <point x="56" y="177" type="curve" smooth="yes"/>
      <point x="15" y="231"/>
      <point x="174" y="342"/>
      <point x="251" y="351" type="curve"/>
      <point x="322" y="279" type="line"/>
      <point x="227" y="241"/>
      <point x="123" y="173"/>
      <point x="175" y="114" type="curve" smooth="yes"/>
      <point x="298" y="-25"/>
      <point x="648" y="341"/>
      <point x="555" y="439" type="curve" smooth="yes"/>
      <point x="518" y="478"/>
      <point x="398" y="271"/>
      <point x="496" y="181" type="curve"/>
      <point x="478" y="160" type="line"/>
      <point x="443" y="191"/>
      <point x="392" y="250"/>
      <point x="376" y="276" type="curve" smooth="yes"/>
      <point x="345" y="323"/>
      <point x="425" y="532"/>
      <point x="520" y="532" type="curve" smooth="yes"/>
      <point x="545" y="532"/>
      <point x="620" y="426"/>
    </contour>
    <contour>
      <point x="169" y="560" type="curve"/>
      <point x="289" y="530" type="line"/>
      <point x="155" y="479"/>
      <point x="75" y="404"/>
      <point x="186" y="310" type="curve"/>
      <point x="151" y="285" type="line"/>
      <point x="78" y="325"/>
      <point x="-92" y="458"/>
    </contour>
  </outline>
</glyph>
<glyph name="dvCHA" format="1">
  <advance width="778"/>
  <outline>
    <contour>
      <point x="341" y="0" type="move" name="blwm.virama"/>
    </contour>
    <contour>
      <point x="608" y="616" type="move" name="abvm.bindu"/>
    </contour>
    <contour>
      <point x="391" y="-10" type="move" name="blwm.u"/>
    </contour>
    <contour>
      <point x="590" y="620" type="move" name="abvm.e"/>
    </contour>
    <contour>
      <point x="161" y="392" type="curve" smooth="yes"/>
      <point x="114" y="439"/>
      <point x="108" y="478"/>
      <point x="183" y="523" type="curve"/>
      <point x="-8" y="523" type="line"/>
      <point x="-8" y="619" type="line"/>
      <point x="787" y="619" type="line"/>
      <point x="787" y="523" type="line"/>
      <point x="608" y="523" type="line"/>
      <point x="641" y="497"/>
      <point x="694" y="421"/>
      <point x="708" y="397" type="curve" smooth="yes"/>
      <point x="751" y="321"/>
      <point x="702" y="211"/>
      <point x="622" y="123" type="curve"/>
      <point x="671" y="73"/>
      <point x="732" y="11"/>
      <point x="732" y="11" type="curve"/>
      <point x="700" y="-20" type="line"/>
      <point x="599" y="98" type="line"/>
      <point x="498" y="0"/>
      <point x="361" y="-61"/>
      <point x="293" y="7" type="curve" smooth="yes"/>
      <point x="234" y="66"/>
      <point x="197" y="112"/>
      <point x="147" y="177" type="curve" smooth="yes"/>
      <point x="121" y="211"/>
      <point x="178" y="270"/>
      <point x="242" y="312" type="curve"/>
      <point x="230" y="322"/>
      <point x="216" y="335"/>
    </contour>
    <contour>
      <point x="351" y="359" type="curve"/>
      <point x="413" y="298" type="line"/>
      <point x="318" y="260"/>
      <point x="187" y="196"/>
      <point x="260" y="110" type="curve" smooth="yes"/>
      <point x="329" y="28"/>
      <point x="448" y="83"/>
      <point x="536" y="171" type="curve"/>
      <point x="503" y="204"/>
      <point x="461" y="253"/>
      <point x="447" y="276" type="curve" smooth="yes"/>
      <point x="420" y="317"/>
      <point x="478" y="482"/>
      <point x="556" y="523" type="curve"/>
      <point x="355" y="523" type="line"/>
      <point x="360" y="521" type="line"/>
      <point x="240" y="472"/>
      <point x="163" y="419"/>
      <point x="268" y="327" type="curve"/>
      <point x="298" y="344"/>
      <point x="328" y="356"/>
    </contour>
    <contour>
      <point x="626" y="439" type="curve" smooth="yes"/>
      <point x="577" y="490"/>
      <point x="477" y="288"/>
      <point x="556" y="192" type="curve"/>
      <point x="633" y="278"/>
      <point x="677" y="387"/>
    </contour>
  </outline>
</glyph>
<glyph name="dvCH_RA" format="1">
  <advance width="728"/>
  <outline>
    <contour>
      <point x="695" y="-14" type="move" name="blwm.virama"/>
    </contour>
    <contour>
      <point x="604" y="619" type="move" name="abvm.bindu"/>
    </contour>
    <contour>
      <point x="685" y="-14" type="move" name="blwm.u"/>
    </contour>
    <contour>
      <point x="591" y="621" type="move" name="abvm.e"/>
    </contour>
    <component base="dvCHA" xOffset="-29"/>
    <component base="dvRashtrasign" xOffset="617"/>
  </outline>
</glyph>
<glyph name="dvC_CHA" format="1">
  <advance width="1149"/>
  <outline>
    <contour>
      <point x="1159" y="-8" type="move" name="blwm.virama"/>
    </contour>
    <contour>
      <point x="995" y="619" type="move" name="abvm.bindu"/>
    </contour>
    <contour>
      <point x="1166" y="-10" type="move" name="blwm.u"/>
    </contour>
    <contour>
      <point x="1006" y="619" type="move" name="abvm.e"/>
    </contour>
    <component base="dvCHA" xOffset="454"/>
    <component base="dvC" xOffset="50"/>
  </outline>
</glyph>
<glyph name="dvC_CH_VA" format="1">
  <advance width="1123"/>
  <outline>
    <contour>
      <point x="947" y="-173" type="move" name="blwm.virama"/>
    </contour>
    <contour>
      <point x="974" y="619" type="move" name="abvm.bindu"/>
    </contour>
    <contour>
      <point x="973" y="-147" type="move" name="blwm.u"/>
    </contour>
    <contour>
      <point x="980" y="619" type="move" name="abvm.e"/>
    </contour>
    <contour>
      <point x="24" y="402" type="line"/>
      <point x="342" y="402" type="line"/>
      <point x="440" y="319" type="line"/>
      <point x="431" y="319" type="line" smooth="yes"/>
      <point x="320" y="317"/>
      <point x="240" y="227"/>
      <point x="303" y="169" type="curve" smooth="yes"/>
      <point x="361" y="114"/>
      <point x="552" y="233"/>
      <point x="598" y="351" type="curve"/>
      <point x="659" y="251" type="line"/>
      <point x="581" y="89"/>
      <point x="377" y="37"/>
      <point x="319" y="92" type="curve" smooth="yes"/>
      <point x="259" y="148"/>
      <point x="240" y="159"/>
      <point x="187" y="220" type="curve" smooth="yes"/>
      <point x="162" y="248"/>
      <point x="176" y="285"/>
      <point x="206" y="319" type="curve"/>
      <point x="120" y="319" type="line"/>
    </contour>
    <contour>
      <point x="-48" y="619" type="line"/>
      <point x="679" y="619" type="line"/>
      <point x="679" y="522" type="line"/>
      <point x="-48" y="522" type="line"/>
    </contour>
    <contour>
      <point x="913" y="48" type="line"/>
      <point x="848" y="3"/>
      <point x="712" y="-78"/>
      <point x="809" y="-131" type="curve" smooth="yes"/>
      <point x="844" y="-150"/>
      <point x="938" y="-107"/>
      <point x="988" y="105" type="curve"/>
      <point x="1054" y="15" type="line"/>
      <point x="969" y="-253"/>
      <point x="836" y="-230"/>
      <point x="701" y="-96" type="curve" smooth="yes"/>
      <point x="650" y="-45"/>
      <point x="758" y="58"/>
      <point x="828" y="105" type="curve"/>
    </contour>
    <component base="dvCHA" xOffset="374"/>
  </outline>
</glyph>
<glyph name="dvC_R" format="1">
  <advance width="555"/>
  <outline>
    <contour>
      <point x="-8" y="402" type="line"/>
      <point x="310" y="402" type="line"/>
      <point x="408" y="319" type="line"/>
      <point x="97" y="212"/>
      <point x="310" y="49"/>
      <point x="569" y="347" type="curve"/>
      <point x="647" y="275" type="line"/>
      <point x="626" y="247" type="line"/>
      <point x="598" y="186"/>
      <point x="470" y="49"/>
      <point x="378" y="-38" type="curve"/>
      <point x="294" y="28" type="line"/>
      <point x="317" y="45"/>
      <point x="345" y="67"/>
      <point x="374" y="91" type="curve"/>
      <point x="333" y="86"/>
      <point x="301" y="92"/>
      <point x="285" y="107" type="curve" smooth="yes"/>
      <point x="235" y="152"/>
      <point x="216" y="172"/>
      <point x="174" y="225" type="curve" smooth="yes"/>
      <point x="152" y="253"/>
      <point x="160" y="288"/>
      <point x="183" y="319" type="curve"/>
      <point x="88" y="319" type="line"/>
    </contour>
    <contour>
      <point x="-70" y="619" type="line"/>
      <point x="744" y="619" type="line"/>
      <point x="744" y="523" type="line"/>
      <point x="-70" y="523" type="line"/>
    </contour>
  </outline>
</glyph>
<glyph name="dvDA_mUU" format="1">
  <advance width="605"/>
  <outline>
    <contour>
      <point x="428" y="619" type="move" name="abvm.bindu"/>
    </contour>
    <contour>
      <point x="415" y="619" type="move" name="abvm.e"/>
    </contour>
    <contour>
      <point x="349" y="468" type="line"/>
      <point x="349" y="546" type="line"/>
      <point x="460" y="546" type="line"/>
      <point x="460" y="381" type="line"/>
      <point x="269" y="381" type="line"/>
      <point x="164" y="380"/>
      <point x="121" y="92"/>
      <point x="286" y="79" type="curve" smooth="yes"/>
      <point x="388" y="71"/>
      <point x="432" y="151"/>
      <point x="483" y="212" type="curve"/>
      <point x="568" y="137" type="line"/>
      <point x="509" y="55"/>
      <point x="458" y="-9"/>
      <point x="343" y="-20" type="curve"/>
      <point x="293" y="-24"/>
      <point x="261" y="-4"/>
      <point x="228" y="23" type="curve" smooth="yes"/>
      <point x="164" y="75"/>
      <point x="102" y="125"/>
      <point x="60" y="187" type="curve" smooth="yes"/>
      <point x="10" y="261"/>
      <point x="88" y="449"/>
      <point x="165" y="457" type="curve"/>
    </contour>
    <contour>
      <point x="-8" y="619" type="line"/>
      <point x="655" y="619" type="line"/>
      <point x="655" y="523" type="line"/>
      <point x="-8" y="523" type="line"/>
    </contour>
    <contour>
      <point x="522" y="-144" type="line"/>
      <point x="378" y="149"/>
      <point x="359" y="169"/>
      <point x="366" y="183" type="curve" smooth="yes"/>
      <point x="381" y="213"/>
      <point x="411" y="237"/>
      <point x="429" y="248" type="curve" smooth="yes"/>
      <point x="476" y="278"/>
      <point x="511" y="250"/>
      <point x="543" y="212" type="curve" smooth="yes"/>
      <point x="570" y="180"/>
      <point x="585" y="140"/>
      <point x="555" y="110" type="curve" smooth="yes"/>
      <point x="479" y="32" type="line"/>
      <point x="561" y="-132" type="line"/>
    </contour>
    <contour>
      <point x="398" y="-375" type="curve" smooth="yes"/>
      <point x="370" y="-369"/>
      <point x="299" y="-300"/>
      <point x="252" y="-251" type="curve" smooth="yes"/>
      <point x="166" y="-160"/>
      <point x="321" y="-18"/>
      <point x="443" y="-38" type="curve" smooth="yes"/>
      <point x="489" y="-46"/>
      <point x="624" y="-191"/>
      <point x="733" y="-299" type="curve"/>
      <point x="715" y="-320" type="line"/>
      <point x="540" y="-167"/>
      <point x="467" y="-80"/>
      <point x="376" y="-153" type="curve" smooth="yes"/>
      <point x="301" y="-213"/>
      <point x="346" y="-321"/>
      <point x="447" y="-272" type="curve" smooth="yes"/>
      <point x="497" y="-248" type="line"/>
      <point x="559" y="-322" type="line"/>
      <point x="504" y="-355"/>
      <point x="421" y="-381"/>
    </contour>
  </outline>
</glyph>
<glyph name="dvDA_mvR" format="1">
  <advance width="534"/>
  <outline>
    <contour>
      <point x="-20" y="619" type="line"/>
      <point x="540" y="619" type="line"/>
      <point x="540" y="523" type="line"/>
      <point x="-20" y="523" type="line"/>
    </contour>
    <contour>
      <point x="516" y="56" type="line"/>
      <point x="433" y="7"/>
      <point x="257" y="-49"/>
      <point x="214" y="-19" type="curve" smooth="yes"/>
      <point x="151" y="25"/>
      <point x="110" y="70"/>
      <point x="58" y="136" type="curve" smooth="yes"/>
      <point x="-3" y="213"/>
      <point x="194" y="313"/>
      <point x="341" y="289" type="curve"/>
      <point x="406" y="206" type="line"/>
      <point x="7" y="229"/>
      <point x="130" y="-56"/>
      <point x="441" y="131" type="curve"/>
    </contour>
    <contour>
      <point x="110" y="454" type="curve" smooth="yes"/>
      <point x="127" y="461"/>
      <point x="298" y="469"/>
      <point x="298" y="469" type="curve"/>
      <point x="300" y="547" type="line"/>
      <point x="410" y="546" type="line"/>
      <point x="409" y="388" type="line"/>
      <point x="409" y="388"/>
      <point x="246" y="385"/>
      <point x="205" y="385" type="curve" smooth="yes"/>
      <point x="139" y="385"/>
      <point x="114" y="301"/>
      <point x="154" y="264" type="curve"/>
      <point x="116" y="240" type="line"/>
      <point x="23" y="318"/>
      <point x="40" y="426"/>
    </contour>
  </outline>
</glyph>
<glyph name="dvDDH_VA" format="1">
  <advance width="604"/>
  <outline>
    <contour>
      <point x="243" y="-395" type="move" name="blwm.virama"/>
    </contour>
    <contour>
      <point x="460" y="662" type="move" name="abvm.bindu"/>
    </contour>
    <contour>
      <point x="243" y="-380" type="move" name="blwm.u"/>
    </contour>
    <contour>
      <point x="487" y="672" type="move" name="abvm.e"/>
    </contour>
    <contour>
      <point x="-10" y="619" type="line"/>
      <point x="649" y="619" type="line"/>
      <point x="649" y="523" type="line"/>
      <point x="-10" y="523" type="line"/>
    </contour>
    <contour>
      <point x="349" y="467" type="line"/>
      <point x="349" y="545" type="line"/>
      <point x="460" y="545" type="line"/>
      <point x="460" y="390" type="line"/>
      <point x="301" y="389" type="line" smooth="yes"/>
      <point x="164" y="388"/>
      <point x="111" y="79"/>
      <point x="358" y="132" type="curve"/>
      <point x="338" y="154"/>
      <point x="317" y="186"/>
      <point x="306" y="211" type="curve" smooth="yes"/>
      <point x="276" y="281"/>
      <point x="392" y="344"/>
      <point x="417" y="344" type="curve" smooth="yes"/>
      <point x="442" y="344"/>
      <point x="580" y="210"/>
      <point x="569" y="193" type="curve" smooth="yes"/>
      <point x="424" y="-31"/>
      <point x="258" y="-25"/>
      <point x="92" y="235" type="curve" smooth="yes"/>
      <point x="44" y="311"/>
      <point x="117" y="448"/>
      <point x="194" y="456" type="curve"/>
    </contour>
    <contour>
      <point x="389" y="145" type="curve"/>
      <point x="439" y="183"/>
      <point x="498" y="241"/>
      <point x="476" y="263" type="curve" smooth="yes"/>
      <point x="453" y="286"/>
      <point x="365" y="221"/>
    </contour>
    <contour>
      <point x="261" y="56" type="line"/>
      <point x="183" y="19"/>
      <point x="159" y="-40"/>
      <point x="193" y="-75" type="curve"/>
      <point x="220" y="-105"/>
      <point x="334" y="-148"/>
      <point x="447" y="38" type="curve"/>
      <point x="447" y="38"/>
      <point x="470" y="-73"/>
      <point x="470" y="-73" type="curve"/>
      <point x="307" y="-302"/>
      <point x="183" y="-183"/>
      <point x="96" y="-13" type="curve" smooth="yes"/>
      <point x="67" y="42"/>
      <point x="129" y="115"/>
      <point x="206" y="153" type="curve"/>
    </contour>
    <contour>
      <point x="386" y="136" type="line"/>
      <point x="496" y="144" type="line"/>
      <point x="496" y="-264" type="line"/>
      <point x="386" y="-216" type="line"/>
    </contour>
  </outline>
</glyph>
<glyph name="dvDD_DDA" format="1">
  <advance width="534"/>
  <outline>
    <contour>
      <point x="222" y="-417" type="move" name="blwm.virama"/>
    </contour>
    <contour>
      <point x="407" y="662" type="move" name="abvm.bindu"/>
    </contour>
    <contour>
      <point x="254" y="-413" type="move" name="blwm.u"/>
    </contour>
    <contour>
      <point x="420" y="672" type="move" name="abvm.e"/>
    </contour>
  </outline>
</glyph>
<glyph name="dvDD_VA" format="1">
  <advance width="620"/>
  <outline>
    <contour>
      <point x="359" y="-332" type="move" name="blwm.virama"/>
    </contour>
    <contour>
      <point x="474" y="662" type="move" name="abvm.bindu"/>
    </contour>
    <contour>
      <point x="359" y="-322" type="move" name="blwm.u"/>
    </contour>
    <contour>
      <point x="474" y="672" type="move" name="abvm.e"/>
    </contour>
    <contour>
      <point x="386" y="122" type="line"/>
      <point x="390" y="122" type="line"/>
      <point x="440" y="146"/>
      <point x="475" y="190"/>
      <point x="488" y="237" type="curve" smooth="yes"/>
      <point x="506" y="303"/>
      <point x="295" y="146"/>
      <point x="239" y="186" type="curve" smooth="yes"/>
      <point x="191" y="220"/>
      <point x="137" y="260"/>
      <point x="99" y="300" type="curve" smooth="yes"/>
      <point x="58" y="345"/>
      <point x="134" y="455"/>
      <point x="188" y="459" type="curve" smooth="yes"/>
      <point x="349" y="470" type="line"/>
      <point x="349" y="523" type="line"/>
      <point x="-10" y="523" type="line"/>
      <point x="-10" y="619" type="line"/>
      <point x="649" y="619" type="line"/>
      <point x="649" y="523" type="line"/>
      <point x="461" y="523" type="line"/>
      <point x="461" y="393" type="line"/>
      <point x="240" y="393" type="line" smooth="yes"/>
      <point x="194" y="393"/>
      <point x="162" y="263"/>
      <point x="248" y="286" type="curve" smooth="yes"/>
      <point x="294" y="298"/>
      <point x="442" y="351"/>
      <point x="456" y="339" type="curve" smooth="yes"/>
      <point x="504" y="299"/>
      <point x="581" y="198"/>
      <point x="570" y="167" type="curve" smooth="yes"/>
      <point x="553" y="119"/>
      <point x="528" y="83"/>
      <point x="496" y="58" type="curve"/>
      <point x="496" y="-278" type="line"/>
      <point x="386" y="-230" type="line"/>
      <point x="386" y="-178" type="line"/>
      <point x="263" y="-271"/>
      <point x="167" y="-166"/>
      <point x="96" y="-27" type="curve"/>
      <point x="71" y="19"/>
      <point x="106" y="71"/>
      <point x="164" y="109" type="curve"/>
      <point x="127" y="140"/>
      <point x="91" y="180"/>
      <point x="59" y="229" type="curve"/>
      <point x="79" y="248" type="line"/>
      <point x="192" y="102"/>
      <point x="306" y="84"/>
      <point x="386" y="120" type="curve"/>
    </contour>
    <contour>
      <point x="263" y="45" type="curve"/>
      <point x="187" y="8"/>
      <point x="160" y="-53"/>
      <point x="193" y="-89" type="curve"/>
      <point x="216" y="-112"/>
      <point x="296" y="-146"/>
      <point x="386" y="-56" type="curve"/>
      <point x="386" y="19" type="line"/>
      <point x="347" y="18"/>
      <point x="305" y="26"/>
    </contour>
  </outline>
</glyph>
<glyph name="dvDHA" format="1">
  <advance width="692"/>
  <outline>
    <contour>
      <point x="414" y="522" type="line"/>
      <point x="489" y="522" type="line"/>
      <point x="489" y="345" type="line"/>
      <point x="454" y="215"/>
      <point x="256" y="116"/>
      <point x="200" y="170" type="curve" smooth="yes"/>
      <point x="136" y="230"/>
      <point x="269" y="294"/>
      <point x="377" y="313" type="curve"/>
      <point x="311" y="380" type="line"/>
      <point x="282" y="382"/>
      <point x="231" y="367"/>
      <point x="184" y="345" type="curve"/>
      <point x="166" y="359"/>
      <point x="153" y="373"/>
      <point x="143" y="386" type="curve"/>
      <point x="250" y="371"/>
      <point x="393" y="478"/>
      <point x="323" y="542" type="curve" smooth="yes"/>
      <point x="296" y="566"/>
      <point x="282" y="583"/>
      <point x="214" y="625" type="curve"/>
      <point x="178" y="646"/>
      <point x="-45" y="516"/>
      <point x="42" y="433" type="curve"/>
      <point x="105" y="371"/>
      <point x="126" y="349"/>
      <point x="152" y="329" type="curve"/>
      <point x="96" y="296"/>
      <point x="55" y="253"/>
      <point x="83" y="221" type="curve" smooth="yes"/>
      <point x="137" y="160"/>
      <point x="156" y="149"/>
      <point x="216" y="93" type="curve" smooth="yes"/>
      <point x="262" y="49"/>
      <point x="396" y="78"/>
      <point x="489" y="171" type="curve"/>
      <point x="489" y="2" type="line"/>
      <point x="613" y="-54" type="line"/>
      <point x="613" y="522" type="line"/>
      <point x="697" y="522" type="line"/>
      <point x="697" y="619" type="line"/>
      <point x="375" y="619" type="line"/>
    </contour>
    <contour>
      <point x="266" y="539" type="curve" smooth="yes"/>
      <point x="286" y="521"/>
      <point x="204" y="441"/>
      <point x="121" y="444" type="curve"/>
      <point x="120" y="520"/>
      <point x="236" y="564"/>
    </contour>
  </outline>
</glyph>
<glyph name="dvDH_NA" format="1">
  <advance width="692"/>
  <outline>
    <contour>
      <point x="526" y="189" type="line"/>
      <point x="108" y="64" type="line"/>
      <point x="53" y="28"/>
      <point x="29" y="-57"/>
      <point x="93" y="-99" type="curve"/>
      <point x="136" y="-125"/>
      <point x="166" y="-139"/>
      <point x="220" y="-164" type="curve"/>
      <point x="268" y="-183"/>
      <point x="379" y="-52"/>
      <point x="288" y="20" type="curve"/>
      <point x="553" y="97" type="line"/>
    </contour>
    <component base="dvDHA"/>
  </outline>
</glyph>
<glyph name="dvDH_N_YA" format="1">
  <advance width="1058"/>
  <outline>
    <contour>
      <point x="556" y="168" type="line"/>
      <point x="412" y="115"/>
      <point x="357" y="78"/>
      <point x="302" y="43" type="curve" smooth="yes"/>
      <point x="298" y="40" type="line"/>
      <point x="460" y="-16"/>
      <point x="335" y="-169"/>
      <point x="277" y="-154" type="curve" smooth="yes"/>
      <point x="219" y="-140"/>
      <point x="219" y="-140"/>
      <point x="162" y="-122" type="curve" smooth="yes"/>
      <point x="83" y="-97"/>
      <point x="107" y="30"/>
      <point x="146" y="59" type="curve" smooth="yes"/>
      <point x="202" y="101"/>
      <point x="338" y="165"/>
      <point x="482" y="214" type="curve"/>
    </contour>
  </outline>
</glyph>
<glyph name="dvDH_VA" format="1">
  <advance width="977"/>
  <outline>
    <contour>
      <point x="379" y="313" type="line"/>
      <point x="271" y="294"/>
      <point x="138" y="230"/>
      <point x="202" y="170" type="curve" smooth="yes"/>
      <point x="243" y="131"/>
      <point x="379" y="178"/>
      <point x="456" y="251" type="curve"/>
      <point x="516" y="182" type="line"/>
      <point x="423" y="83"/>
      <point x="265" y="48"/>
      <point x="218" y="93" type="curve" smooth="yes"/>
      <point x="158" y="149"/>
      <point x="139" y="160"/>
      <point x="85" y="221" type="curve" smooth="yes"/>
      <point x="57" y="253"/>
      <point x="98" y="296"/>
      <point x="154" y="329" type="curve"/>
      <point x="128" y="349"/>
      <point x="107" y="371"/>
      <point x="44" y="433" type="curve"/>
      <point x="-43" y="516"/>
      <point x="180" y="646"/>
      <point x="216" y="625" type="curve"/>
      <point x="284" y="583"/>
      <point x="298" y="566"/>
      <point x="325" y="542" type="curve" smooth="yes"/>
      <point x="395" y="478"/>
      <point x="252" y="371"/>
      <point x="145" y="386" type="curve"/>
      <point x="155" y="373"/>
      <point x="168" y="359"/>
      <point x="186" y="345" type="curve"/>
      <point x="233" y="367"/>
      <point x="284" y="382"/>
      <point x="313" y="380" type="curve"/>
    </contour>
    <contour>
      <point x="337" y="619" type="line"/>
      <point x="664" y="619" type="line"/>
      <point x="664" y="523" type="line"/>
      <point x="376" y="523" type="line"/>
    </contour>
    <contour>
      <point x="268" y="539" type="curve" smooth="yes"/>
      <point x="238" y="564"/>
      <point x="122" y="520"/>
      <point x="123" y="444" type="curve"/>
      <point x="206" y="441"/>
      <point x="288" y="521"/>
    </contour>
    <component base="dvVA" xOffset="388"/>
  </outline>
</glyph>
<glyph name="dvD_BA" format="1">
  <advance width="605"/>
  <outline>
    <contour>
      <point x="555" y="-73" type="move" name="blwm.virama"/>
    </contour>
    <contour>
      <point x="382" y="620" type="move" name="abvm.bindu"/>
    </contour>
    <contour>
      <point x="539" y="-89" type="move" name="blwm.u"/>
    </contour>
    <contour>
      <point x="396" y="619" type="move" name="abvm.e"/>
    </contour>
    <contour>
      <point x="442" y="-84" type="line"/>
      <point x="456" y="-51" type="line"/>
      <point x="194" y="34" type="line"/>
      <point x="179" y="0" type="line"/>
    </contour>
    <component base="dvD_VA"/>
  </outline>
</glyph>
<glyph name="dvD_BHA" format="1">
  <advance width="694"/>
  <outline>
    <contour>
      <point x="389" y="-407" type="move" name="blwm.virama"/>
    </contour>
    <contour>
      <point x="481" y="619" type="move" name="abvm.bindu"/>
    </contour>
    <contour>
      <point x="389" y="-397" type="move" name="blwm.u"/>
    </contour>
    <contour>
      <point x="467" y="619" type="move" name="abvm.e"/>
    </contour>
    <contour>
      <point x="606" y="-139" type="line"/>
      <point x="587" y="-110"/>
      <point x="570" y="-84"/>
      <point x="555" y="-59" type="curve"/>
      <point x="387" y="-126" type="line"/>
      <point x="427" y="-241"/>
      <point x="345" y="-260"/>
      <point x="311" y="-255" type="curve" smooth="yes"/>
      <point x="285" y="-251"/>
      <point x="225" y="-214"/>
      <point x="200" y="-194" type="curve"/>
      <point x="154" y="-160"/>
      <point x="212" y="-105"/>
      <point x="279" y="-78" type="curve"/>
      <point x="258" y="-44" type="line"/>
      <point x="239" y="-57"/>
      <point x="215" y="-64"/>
      <point x="209" y="-63" type="curve" smooth="yes"/>
      <point x="168" y="-59"/>
      <point x="141" y="-59"/>
      <point x="108" y="-50" type="curve" smooth="yes"/>
      <point x="27" y="-28"/>
      <point x="33" y="147"/>
      <point x="143" y="124" type="curve" smooth="yes"/>
      <point x="183" y="116"/>
      <point x="199" y="117"/>
      <point x="253" y="99" type="curve"/>
      <point x="261" y="95"/>
      <point x="302" y="16"/>
      <point x="346" y="-56" type="curve"/>
      <point x="508" y="16" type="line"/>
      <point x="499" y="30"/>
      <point x="491" y="43"/>
      <point x="484" y="56" type="curve"/>
      <point x="428" y="22"/>
      <point x="367" y="19"/>
      <point x="297" y="77" type="curve" smooth="yes"/>
      <point x="233" y="129"/>
      <point x="194" y="162"/>
      <point x="152" y="224" type="curve" smooth="yes"/>
      <point x="102" y="298"/>
      <point x="168" y="447"/>
      <point x="245" y="455" type="curve"/>
      <point x="405" y="468" type="line"/>
      <point x="405" y="523" type="line"/>
      <point x="-11" y="523" type="line"/>
      <point x="-11" y="619" type="line"/>
      <point x="705" y="619" type="line"/>
      <point x="705" y="523" type="line"/>
      <point x="516" y="523" type="line"/>
      <point x="516" y="391" type="line"/>
      <point x="349" y="389" type="line" smooth="yes"/>
      <point x="244" y="388"/>
      <point x="172" y="136"/>
      <point x="354" y="123" type="curve" smooth="yes"/>
      <point x="386" y="121"/>
      <point x="413" y="127"/>
      <point x="435" y="139" type="curve"/>
      <point x="404" y="198"/>
      <point x="397" y="221"/>
      <point x="401" y="228" type="curve" smooth="yes"/>
      <point x="416" y="258"/>
      <point x="453" y="286"/>
      <point x="471" y="297" type="curve" smooth="yes"/>
      <point x="518" y="327"/>
      <point x="553" y="299"/>
      <point x="585" y="261" type="curve" smooth="yes"/>
      <point x="612" y="229"/>
      <point x="630" y="181"/>
      <point x="599" y="153" type="curve" smooth="yes"/>
      <point x="526" y="88" type="line"/>
      <point x="645" y="-112" type="line"/>
    </contour>
    <contour>
      <point x="215" y="28" type="curve"/>
      <point x="194" y="100"/>
      <point x="139" y="67"/>
      <point x="130" y="26" type="curve" smooth="yes"/>
      <point x="123" y="-6"/>
      <point x="133" y="-32"/>
    </contour>
    <contour>
      <point x="323" y="-149" type="curve"/>
      <point x="295" y="-158"/>
      <point x="246" y="-179"/>
      <point x="259" y="-197" type="curve" smooth="yes"/>
      <point x="271" y="-213"/>
      <point x="342" y="-197"/>
    </contour>
  </outline>
</glyph>
<glyph name="dvD_B_RA" format="1">
  <advance width="605"/>
  <outline>
    <contour>
      <point x="315" y="-275" type="move" name="blwm.virama"/>
    </contour>
    <contour>
      <point x="450" y="662" type="move" name="abvm.bindu"/>
    </contour>
    <contour>
      <point x="315" y="-265" type="move" name="blwm.u"/>
    </contour>
    <contour>
      <point x="450" y="672" type="move" name="abvm.e"/>
    </contour>
    <contour>
      <point x="336" y="468" type="line"/>
      <point x="336" y="523" type="line"/>
      <point x="-30" y="523" type="line"/>
      <point x="-30" y="619" type="line"/>
      <point x="636" y="619" type="line"/>
      <point x="636" y="523" type="line"/>
      <point x="447" y="523" type="line"/>
      <point x="447" y="391" type="line"/>
      <point x="280" y="389" type="line" smooth="yes"/>
      <point x="175" y="388"/>
      <point x="103" y="136"/>
      <point x="285" y="123" type="curve" smooth="yes"/>
      <point x="324" y="120"/>
      <point x="356" y="130"/>
      <point x="381" y="148" type="curve"/>
      <point x="345" y="196"/>
      <point x="329" y="222"/>
      <point x="332" y="228" type="curve" smooth="yes"/>
      <point x="347" y="258"/>
      <point x="384" y="286"/>
      <point x="402" y="297" type="curve" smooth="yes"/>
      <point x="449" y="327"/>
      <point x="484" y="299"/>
      <point x="516" y="261" type="curve" smooth="yes"/>
      <point x="543" y="229"/>
      <point x="560" y="183"/>
      <point x="530" y="153" type="curve" smooth="yes"/>
      <point x="477" y="100" type="line"/>
      <point x="665" y="-133" type="line"/>
      <point x="626" y="-160" type="line"/>
      <point x="559" y="-77" type="line"/>
      <point x="554" y="-127"/>
      <point x="554" y="-190"/>
      <point x="518" y="-274" type="curve"/>
      <point x="440" y="-264" type="line"/>
      <point x="471" y="-197"/>
      <point x="490" y="-158"/>
      <point x="502" y="-110" type="curve"/>
      <point x="412" y="-282"/>
      <point x="269" y="-221"/>
      <point x="150" y="-103" type="curve" smooth="yes"/>
      <point x="108" y="-61"/>
      <point x="173" y="17"/>
      <point x="237" y="70" type="curve"/>
      <point x="234" y="72"/>
      <point x="231" y="74"/>
      <point x="228" y="77" type="curve" smooth="yes"/>
      <point x="164" y="129"/>
      <point x="125" y="162"/>
      <point x="83" y="224" type="curve" smooth="yes"/>
      <point x="33" y="298"/>
      <point x="99" y="447"/>
      <point x="176" y="455" type="curve"/>
    </contour>
    <contour>
      <point x="261" y="-132" type="curve" smooth="yes"/>
      <point x="285" y="-145"/>
      <point x="358" y="-154"/>
      <point x="417" y="-88" type="curve"/>
      <point x="250" y="-34" type="line"/>
      <point x="219" y="-67"/>
      <point x="211" y="-104"/>
    </contour>
    <contour>
      <point x="283" y="-6" type="curve"/>
      <point x="440" y="-57" type="line"/>
      <point x="454" y="-35"/>
      <point x="466" y="-7"/>
      <point x="476" y="27" type="curve"/>
      <point x="463" y="44"/>
      <point x="450" y="59"/>
      <point x="439" y="73" type="curve"/>
      <point x="415" y="54"/>
      <point x="391" y="41"/>
      <point x="365" y="35" type="curve"/>
      <point x="338" y="26"/>
      <point x="308" y="11"/>
    </contour>
  </outline>
</glyph>
<glyph name="dvD_DHA" format="1">
  <advance width="721"/>
  <outline>
    <contour>
      <point x="455" y="-407" type="move" name="blwm.virama"/>
    </contour>
    <contour>
      <point x="671" y="662" type="move" name="abvm.bindu"/>
    </contour>
    <contour>
      <point x="455" y="-397" type="move" name="blwm.u"/>
    </contour>
    <contour>
      <point x="671" y="672" type="move" name="abvm.e"/>
    </contour>
    <contour>
      <point x="450" y="468" type="line"/>
      <point x="450" y="523" type="line"/>
      <point x="-13" y="523" type="line"/>
      <point x="-13" y="619" type="line"/>
      <point x="750" y="619" type="line"/>
      <point x="750" y="523" type="line"/>
      <point x="561" y="523" type="line"/>
      <point x="561" y="391" type="line"/>
      <point x="394" y="389" type="line" smooth="yes"/>
      <point x="289" y="388"/>
      <point x="217" y="136"/>
      <point x="399" y="123" type="curve" smooth="yes"/>
      <point x="437" y="120"/>
      <point x="469" y="130"/>
      <point x="494" y="147" type="curve"/>
      <point x="448" y="207"/>
      <point x="442" y="220"/>
      <point x="446" y="228" type="curve" smooth="yes"/>
      <point x="461" y="258"/>
      <point x="498" y="286"/>
      <point x="516" y="297" type="curve" smooth="yes"/>
      <point x="563" y="327"/>
      <point x="598" y="299"/>
      <point x="630" y="261" type="curve" smooth="yes"/>
      <point x="657" y="229"/>
      <point x="674" y="183"/>
      <point x="644" y="153" type="curve" smooth="yes"/>
      <point x="591" y="100" type="line"/>
      <point x="706" y="-43" type="line"/>
      <point x="667" y="-70" type="line"/>
      <point x="638" y="-33"/>
      <point x="612" y="-2"/>
      <point x="590" y="26" type="curve"/>
      <point x="541" y="-141"/>
      <point x="364" y="-263"/>
      <point x="298" y="-222" type="curve" smooth="yes"/>
      <point x="228" y="-179"/>
      <point x="207" y="-172"/>
      <point x="142" y="-124" type="curve" smooth="yes"/>
      <point x="108" y="-98"/>
      <point x="120" y="-55"/>
      <point x="150" y="-17" type="curve"/>
      <point x="125" y="-7"/>
      <point x="95" y="7"/>
      <point x="30" y="37" type="curve" smooth="yes"/>
      <point x="-80" y="86"/>
      <point x="86" y="284"/>
      <point x="127" y="276" type="curve" smooth="yes"/>
      <point x="150" y="271"/>
      <point x="167" y="266"/>
      <point x="182" y="262" type="curve"/>
      <point x="167" y="340"/>
      <point x="225" y="448"/>
      <point x="290" y="455" type="curve"/>
    </contour>
    <contour>
      <point x="352" y="-4" type="line"/>
      <point x="250" y="-45"/>
      <point x="192" y="-104"/>
      <point x="266" y="-150" type="curve" smooth="yes"/>
      <point x="321" y="-184"/>
      <point x="450" y="-77"/>
      <point x="493" y="39" type="curve"/>
      <point x="447" y="24"/>
      <point x="397" y="31"/>
      <point x="342" y="77" type="curve"/>
      <point x="316" y="97"/>
      <point x="295" y="115"/>
      <point x="276" y="132" type="curve"/>
      <point x="250" y="85"/>
      <point x="197" y="39"/>
      <point x="141" y="27" type="curve"/>
      <point x="151" y="21"/>
      <point x="162" y="15"/>
      <point x="176" y="9" type="curve"/>
      <point x="203" y="34"/>
      <point x="236" y="52"/>
      <point x="263" y="56" type="curve"/>
    </contour>
    <contour>
      <point x="211" y="203" type="curve"/>
      <point x="209" y="206"/>
      <point x="207" y="210"/>
      <point x="204" y="213" type="curve"/>
      <point x="167" y="225"/>
      <point x="74" y="146"/>
      <point x="100" y="75" type="curve"/>
      <point x="169" y="96"/>
      <point x="216" y="175"/>
    </contour>
  </outline>
</glyph>
<glyph name="dvD_GA" format="1">
  <advance width="608"/>
  <outline>
    <contour>
      <point x="387" y="-220" type="move" name="blwm.virama"/>
    </contour>
    <contour>
      <point x="420" y="619" type="move" name="abvm.bindu"/>
    </contour>
    <contour>
      <point x="473" y="-126" type="move" name="blwm.u"/>
    </contour>
    <contour>
      <point x="408" y="619" type="move" name="abvm.e"/>
    </contour>
    <contour>
      <point x="527" y="-118" type="line"/>
      <point x="490" y="-43"/>
      <point x="460" y="15"/>
      <point x="435" y="61" type="curve"/>
      <point x="401" y="38"/>
      <point x="365" y="26"/>
      <point x="327" y="33" type="curve"/>
      <point x="376" y="-104"/>
      <point x="308" y="-168"/>
      <point x="269" y="-168" type="curve" smooth="yes"/>
      <point x="227" y="-168"/>
      <point x="144" y="-50"/>
      <point x="204" y="-29" type="curve" smooth="yes"/>
      <point x="220" y="-24"/>
      <point x="261" y="-38"/>
      <point x="267" y="-47" type="curve"/>
      <point x="273" y="-10"/>
      <point x="273" y="22"/>
      <point x="260" y="63" type="curve"/>
      <point x="241" y="77" type="line"/>
      <point x="177" y="129"/>
      <point x="138" y="162"/>
      <point x="96" y="224" type="curve" smooth="yes"/>
      <point x="46" y="298"/>
      <point x="112" y="447"/>
      <point x="189" y="455" type="curve"/>
      <point x="349" y="468" type="line"/>
      <point x="349" y="523" type="line"/>
      <point x="-10" y="523" type="line"/>
      <point x="-10" y="619" type="line"/>
      <point x="649" y="619" type="line"/>
      <point x="649" y="523" type="line"/>
      <point x="460" y="523" type="line"/>
      <point x="460" y="391" type="line"/>
      <point x="293" y="389" type="line" smooth="yes"/>
      <point x="188" y="388"/>
      <point x="116" y="136"/>
      <point x="298" y="123" type="curve" smooth="yes"/>
      <point x="334" y="120"/>
      <point x="364" y="129"/>
      <point x="388" y="144" type="curve"/>
      <point x="354" y="203"/>
      <point x="341" y="220"/>
      <point x="345" y="228" type="curve" smooth="yes"/>
      <point x="360" y="258"/>
      <point x="397" y="286"/>
      <point x="415" y="297" type="curve" smooth="yes"/>
      <point x="462" y="327"/>
      <point x="497" y="299"/>
      <point x="529" y="261" type="curve" smooth="yes"/>
      <point x="556" y="229"/>
      <point x="574" y="182"/>
      <point x="543" y="153" type="curve" smooth="yes"/>
      <point x="475" y="91" type="line"/>
      <point x="591" y="-87" type="line"/>
    </contour>
  </outline>
</glyph>
<glyph name="dvD_NA" format="1">
  <advance width="605"/>
  <outline>
    <contour>
      <point x="375" y="-204" type="move" name="blwm.virama"/>
    </contour>
    <contour>
      <point x="450" y="662" type="move" name="abvm.bindu"/>
    </contour>
    <contour>
      <point x="394" y="-194" type="move" name="blwm.u"/>
    </contour>
    <contour>
      <point x="450" y="672" type="move" name="abvm.e"/>
    </contour>
    <contour>
      <point x="496" y="29" type="line"/>
      <point x="343" y="-34" type="line"/>
      <point x="441" y="-95"/>
      <point x="347" y="-238"/>
      <point x="297" y="-225" type="curve"/>
      <point x="240" y="-206"/>
      <point x="209" y="-196"/>
      <point x="163" y="-175" type="curve"/>
      <point x="95" y="-141"/>
      <point x="109" y="-54"/>
      <point x="159" y="-11" type="curve"/>
      <point x="159" y="-10" type="line"/>
      <point x="184" y="0"/>
      <point x="260" y="31"/>
      <point x="459" y="117" type="curve"/>
    </contour>
    <component base="dvDA"/>
  </outline>
</glyph>
<glyph name="dvD_R" format="1">
  <advance width="595"/>
  <outline>
    <contour>
      <point x="419" y="74" type="line"/>
      <point x="470" y="26" type="line"/>
      <point x="241" y="-142" type="line"/>
      <point x="166" y="-67" type="line"/>
    </contour>
    <component base="dvVirama" xOffset="534" yOffset="-95"/>
    <component base="dvDA"/>
  </outline>
</glyph>
<glyph name="dvD_VA" format="1">
  <advance width="627"/>
  <outline>
    <contour>
      <point x="315" y="-275" type="move" name="blwm.virama"/>
    </contour>
    <contour>
      <point x="450" y="662" type="move" name="abvm.bindu"/>
    </contour>
    <contour>
      <point x="315" y="-265" type="move" name="blwm.u"/>
    </contour>
    <contour>
      <point x="450" y="672" type="move" name="abvm.e"/>
    </contour>
    <contour>
      <point x="336" y="468" type="line"/>
      <point x="336" y="523" type="line"/>
      <point x="-30" y="523" type="line"/>
      <point x="-30" y="619" type="line"/>
      <point x="636" y="619" type="line"/>
      <point x="636" y="523" type="line"/>
      <point x="447" y="523" type="line"/>
      <point x="447" y="391" type="line"/>
      <point x="280" y="389" type="line" smooth="yes"/>
      <point x="175" y="388"/>
      <point x="103" y="136"/>
      <point x="285" y="123" type="curve" smooth="yes"/>
      <point x="323" y="120"/>
      <point x="355" y="130"/>
      <point x="380" y="147" type="curve"/>
      <point x="334" y="207"/>
      <point x="328" y="220"/>
      <point x="332" y="228" type="curve" smooth="yes"/>
      <point x="347" y="258"/>
      <point x="384" y="286"/>
      <point x="402" y="297" type="curve" smooth="yes"/>
      <point x="449" y="327"/>
      <point x="484" y="299"/>
      <point x="516" y="261" type="curve" smooth="yes"/>
      <point x="543" y="229"/>
      <point x="560" y="183"/>
      <point x="530" y="153" type="curve" smooth="yes"/>
      <point x="477" y="100" type="line"/>
      <point x="592" y="-43" type="line"/>
      <point x="553" y="-70" type="line"/>
      <point x="531" y="-42" type="line"/>
      <point x="445" y="-296"/>
      <point x="283" y="-235"/>
      <point x="150" y="-103" type="curve" smooth="yes"/>
      <point x="108" y="-61"/>
      <point x="173" y="17"/>
      <point x="237" y="70" type="curve"/>
      <point x="234" y="72"/>
      <point x="231" y="74"/>
      <point x="228" y="77" type="curve" smooth="yes"/>
      <point x="164" y="129"/>
      <point x="125" y="162"/>
      <point x="83" y="224" type="curve" smooth="yes"/>
      <point x="33" y="298"/>
      <point x="99" y="447"/>
      <point x="176" y="455" type="curve"/>
    </contour>
    <contour>
      <point x="261" y="-132" type="curve" smooth="yes"/>
      <point x="294" y="-150"/>
      <point x="422" y="-161"/>
      <point x="476" y="27" type="curve"/>
      <point x="462" y="43"/>
      <point x="450" y="59"/>
      <point x="439" y="73" type="curve"/>
      <point x="415" y="54"/>
      <point x="391" y="41"/>
      <point x="365" y="35" type="curve"/>
      <point x="283" y="9"/>
      <point x="165" y="-79"/>
    </contour>
  </outline>
</glyph>
<glyph name="dvEight" format="1">
  <advance width="516"/>
  <outline>
    <contour>
      <point x="476" y="175" type="line"/>
      <point x="376" y="82"/>
      <point x="246" y="27"/>
      <point x="180" y="93" type="curve" smooth="yes"/>
      <point x="121" y="152"/>
      <point x="84" y="198"/>
      <point x="34" y="263" type="curve" smooth="yes"/>
      <point x="-7" y="317"/>
      <point x="214" y="558"/>
      <point x="282" y="623" type="curve"/>
      <point x="384" y="552" type="line"/>
      <point x="305" y="485"/>
      <point x="112" y="261"/>
      <point x="170" y="186" type="curve" smooth="yes"/>
      <point x="206" y="140"/>
      <point x="316" y="183"/>
      <point x="391" y="276" type="curve"/>
    </contour>
  </outline>
</glyph>
<glyph name="dvFour" format="1">
  <advance width="483"/>
  <outline>
    <contour>
      <point x="36" y="165" type="curve" smooth="yes"/>
      <point x="55" y="137"/>
      <point x="237" y="-18"/>
      <point x="262" y="-18" type="curve" smooth="yes"/>
      <point x="357" y="-18"/>
      <point x="453" y="173"/>
      <point x="422" y="220" type="curve" smooth="yes"/>
      <point x="411" y="236"/>
      <point x="348" y="290"/>
      <point x="295" y="335" type="curve"/>
      <point x="360" y="396"/>
      <point x="428" y="461"/>
      <point x="445" y="532" type="curve"/>
      <point x="365" y="608" type="line"/>
      <point x="341" y="540"/>
      <point x="278" y="470"/>
      <point x="213" y="405" type="curve"/>
      <point x="173" y="440"/>
      <point x="80" y="525"/>
      <point x="50" y="609" type="curve"/>
      <point x="10" y="565" type="line"/>
      <point x="34" y="511"/>
      <point x="134" y="415"/>
      <point x="181" y="373" type="curve"/>
      <point x="89" y="284"/>
      <point x="6" y="207"/>
    </contour>
    <contour>
      <point x="203" y="83" type="curve" smooth="yes"/>
      <point x="110" y="148"/>
      <point x="171" y="219"/>
      <point x="255" y="298" type="curve"/>
      <point x="368" y="154"/>
      <point x="249" y="50"/>
    </contour>
  </outline>
</glyph>
<glyph name="dvGA" format="1">
  <advance width="653"/>
  <outline>
    <contour>
      <point x="451" y="0" type="line"/>
      <point x="575" y="-56" type="line"/>
      <point x="575" y="522" type="line"/>
      <point x="657" y="522" type="line"/>
      <point x="657" y="619" type="line"/>
      <point x="-5" y="619" type="line"/>
      <point x="-5" y="522" type="line"/>
      <point x="156" y="522" type="line"/>
      <point x="215" y="443"/>
      <point x="223" y="296"/>
      <point x="164" y="212" type="curve"/>
      <point x="158" y="237"/>
      <point x="157" y="250"/>
      <point x="145" y="261" type="curve" smooth="yes"/>
      <point x="137" y="268"/>
      <point x="88" y="299"/>
      <point x="84" y="298" type="curve" smooth="yes"/>
      <point x="48" y="285"/>
      <point x="32" y="193"/>
      <point x="44" y="165" type="curve" smooth="yes"/>
      <point x="53" y="145"/>
      <point x="116" y="70"/>
      <point x="141" y="70" type="curve" smooth="yes"/>
      <point x="314" y="70"/>
      <point x="387" y="326"/>
      <point x="208" y="522" type="curve"/>
      <point x="451" y="522" type="line"/>
    </contour>
  </outline>
</glyph>
<glyph name="dvGH" format="1">
  <advance width="492"/>
  <outline>
    <contour>
      <point x="-11" y="619" type="line"/>
      <point x="716" y="619" type="line"/>
      <point x="716" y="523" type="line"/>
      <point x="-11" y="523" type="line"/>
    </contour>
    <contour>
      <point x="398" y="329" type="line"/>
      <point x="290" y="310"/>
      <point x="157" y="229"/>
      <point x="220" y="169" type="curve" smooth="yes"/>
      <point x="278" y="114"/>
      <point x="477" y="244"/>
      <point x="524" y="362" type="curve"/>
      <point x="592" y="266" type="line"/>
      <point x="513" y="104"/>
      <point x="294" y="37"/>
      <point x="236" y="92" type="curve" smooth="yes"/>
      <point x="177" y="148"/>
      <point x="158" y="159"/>
      <point x="104" y="220" type="curve" smooth="yes"/>
      <point x="48" y="284"/>
      <point x="251" y="412"/>
      <point x="324" y="406" type="curve"/>
    </contour>
    <contour>
      <point x="105" y="414" type="curve" smooth="yes"/>
      <point x="47" y="474"/>
      <point x="74" y="504"/>
      <point x="225" y="567" type="curve"/>
      <point x="324" y="523" type="line"/>
      <point x="203" y="474"/>
      <point x="124" y="438"/>
      <point x="236" y="344" type="curve"/>
      <point x="217" y="324" type="line"/>
      <point x="200" y="338"/>
      <point x="176" y="342"/>
    </contour>
  </outline>
</glyph>
<glyph name="dvGH_RA" format="1">
  <advance width="708"/>
  <outline>
    <contour>
      <point x="556" y="154" type="line"/>
      <point x="525" y="104"/>
      <point x="478" y="17"/>
      <point x="376" y="-64" type="curve"/>
      <point x="292" y="2" type="line"/>
      <point x="381" y="68"/>
      <point x="463" y="130"/>
      <point x="525" y="203" type="curve"/>
    </contour>
    <component base="dvGHA"/>
  </outline>
</glyph>
<glyph name="dvG_DA" format="1">
  <advance width="894"/>
  <outline>
    <contour>
      <point x="562" y="-231" type="move" name="blwm.virama"/>
    </contour>
    <contour>
      <point x="767" y="662" type="move" name="abvm.bindu"/>
    </contour>
    <contour>
      <point x="782" y="-160" type="move" name="blwm.u"/>
    </contour>
    <contour>
      <point x="766" y="672" type="move" name="abvm.e"/>
    </contour>
    <component base="dvDA" xOffset="335"/>
    <component base="dvG" xOffset="-2"/>
  </outline>
</glyph>
<glyph name="dvG_DA_mUU" format="1">
  <advance width="1017"/>
  <outline>
    <contour>
      <point x="782" y="619" type="move" name="abvm.bindu"/>
    </contour>
    <contour>
      <point x="769" y="619" type="move" name="abvm.e"/>
    </contour>
    <component base="dvG"/>
    <component base="dvDA_mUU" xOffset="381"/>
  </outline>
</glyph>
<glyph name="dvG_DH_VA" format="1">
  <advance width="1302"/>
  <outline>
    <contour>
      <point x="-5" y="619" type="line"/>
      <point x="507" y="619" type="line"/>
      <point x="457" y="523" type="line"/>
      <point x="-5" y="523" type="line"/>
    </contour>
    <contour>
      <point x="205" y="526" type="line"/>
      <point x="388" y="330"/>
      <point x="315" y="70"/>
      <point x="141" y="70" type="curve" smooth="yes"/>
      <point x="116" y="70"/>
      <point x="53" y="145"/>
      <point x="44" y="165" type="curve" smooth="yes"/>
      <point x="32" y="193"/>
      <point x="48" y="285"/>
      <point x="84" y="298" type="curve" smooth="yes"/>
      <point x="88" y="299"/>
      <point x="137" y="268"/>
      <point x="145" y="261" type="curve" smooth="yes"/>
      <point x="157" y="250"/>
      <point x="158" y="237"/>
      <point x="164" y="212" type="curve"/>
      <point x="224" y="298"/>
      <point x="215" y="448"/>
      <point x="153" y="526" type="curve"/>
    </contour>
    <contour>
      <point x="660" y="619" type="line"/>
      <point x="987" y="619" type="line"/>
      <point x="987" y="523" type="line"/>
      <point x="699" y="523" type="line"/>
    </contour>
    <component base="dvVA" xOffset="725"/>
    <component base="dvDH" xOffset="310"/>
  </outline>
</glyph>
<glyph name="dvH_NA" format="1">
  <advance width="690"/>
  <outline>
    <contour>
      <point x="392" y="-322" type="move" name="blwm.virama"/>
    </contour>
    <contour>
      <point x="501" y="662" type="move" name="abvm.bindu"/>
    </contour>
    <contour>
      <point x="392" y="-332" type="move" name="blwm.u"/>
    </contour>
    <contour>
      <point x="501" y="672" type="move" name="abvm.e"/>
    </contour>
  </outline>
</glyph>
<glyph name="dvH_RA" format="1">
  <advance width="543"/>
  <outline>
    <contour>
      <point x="357" y="-290" type="move" name="blwm.virama"/>
    </contour>
    <contour>
      <point x="462" y="662" type="move" name="abvm.bindu"/>
    </contour>
    <contour>
      <point x="357" y="-300" type="move" name="blwm.u"/>
    </contour>
    <contour>
      <point x="462" y="672" type="move" name="abvm.e"/>
    </contour>
    <contour>
      <point x="-13" y="619" type="line"/>
      <point x="547" y="619" type="line"/>
      <point x="547" y="523" type="line"/>
      <point x="-13" y="523" type="line"/>
    </contour>
    <contour>
      <point x="133" y="210" type="line"/>
      <point x="104" y="235"/>
      <point x="77" y="260"/>
      <point x="56" y="283" type="curve" smooth="yes"/>
      <point x="14" y="328"/>
      <point x="73" y="452"/>
      <point x="127" y="455" type="curve" smooth="yes"/>
      <point x="311" y="466" type="line"/>
      <point x="311" y="544" type="line"/>
      <point x="422" y="544" type="line"/>
      <point x="422" y="381" type="line"/>
      <point x="201" y="381" type="line" smooth="yes"/>
      <point x="118" y="381"/>
      <point x="84" y="273"/>
      <point x="154" y="236" type="curve"/>
    </contour>
    <contour>
      <point x="308" y="309" type="curve" smooth="yes"/>
      <point x="361" y="308"/>
      <point x="537" y="100"/>
      <point x="524" y="78" type="curve" smooth="yes"/>
      <point x="513" y="59"/>
      <point x="513" y="39"/>
      <point x="470" y="-20" type="curve"/>
      <point x="377" y="41" type="line"/>
      <point x="417" y="84"/>
      <point x="437" y="130"/>
      <point x="399" y="174" type="curve" smooth="yes"/>
      <point x="301" y="288"/>
      <point x="54" y="136"/>
      <point x="178" y="-25" type="curve" smooth="yes"/>
      <point x="208" y="-64"/>
      <point x="265" y="-118"/>
      <point x="373" y="-64" type="curve"/>
      <point x="438" y="-144" type="line"/>
      <point x="370" y="-168"/>
      <point x="271" y="-178"/>
      <point x="253" y="-164" type="curve" smooth="yes"/>
      <point x="176" y="-105"/>
      <point x="38" y="25"/>
      <point x="36" y="102" type="curve" smooth="yes"/>
      <point x="34" y="185"/>
      <point x="242" y="311"/>
    </contour>
    <contour>
      <point x="413" y="188" type="line"/>
      <point x="379" y="136"/>
      <point x="333" y="67"/>
      <point x="283" y="-15" type="curve"/>
      <point x="195" y="40" type="line"/>
      <point x="273" y="116"/>
      <point x="302" y="149"/>
      <point x="375" y="216" type="curve"/>
    </contour>
  </outline>
</glyph>
<glyph name="dvH_VA" format="1">
  <advance width="658"/>
  <outline>
    <contour>
      <point x="401" y="-270" type="move" name="blwm.virama"/>
    </contour>
    <contour>
      <point x="455" y="619" type="move" name="abvm.bindu"/>
    </contour>
    <contour>
      <point x="405" y="-269" type="move" name="blwm.u"/>
    </contour>
    <contour>
      <point x="461" y="619" type="move" name="abvm.e"/>
    </contour>
    <contour>
      <point x="-13" y="619" type="line"/>
      <point x="676" y="619" type="line"/>
      <point x="676" y="523" type="line"/>
      <point x="-13" y="523" type="line"/>
    </contour>
    <contour>
      <point x="148" y="200" type="line"/>
      <point x="119" y="225"/>
      <point x="77" y="260"/>
      <point x="56" y="283" type="curve" smooth="yes"/>
      <point x="14" y="328"/>
      <point x="73" y="452"/>
      <point x="127" y="455" type="curve"/>
      <point x="401" y="466" type="line"/>
      <point x="401" y="544" type="line"/>
      <point x="512" y="544" type="line"/>
      <point x="512" y="381" type="line"/>
      <point x="201" y="381" type="line" smooth="yes"/>
      <point x="118" y="381"/>
      <point x="99" y="263"/>
      <point x="169" y="226" type="curve"/>
    </contour>
    <contour>
      <point x="369" y="327" type="curve" smooth="yes"/>
      <point x="442" y="325"/>
      <point x="633" y="45"/>
      <point x="620" y="23" type="curve" smooth="yes"/>
      <point x="555" y="-85"/>
      <point x="399" y="-151"/>
      <point x="335" y="-106" type="curve" smooth="yes"/>
      <point x="298" y="-80"/>
      <point x="267" y="-50"/>
      <point x="234" y="14" type="curve" smooth="yes"/>
      <point x="198" y="83"/>
      <point x="343" y="178"/>
      <point x="398" y="160" type="curve" smooth="yes"/>
      <point x="425" y="151"/>
      <point x="508" y="106"/>
      <point x="532" y="80" type="curve"/>
      <point x="527" y="37" type="line"/>
      <point x="406" y="143"/>
      <point x="269" y="10"/>
      <point x="313" y="-36" type="curve" smooth="yes"/>
      <point x="355" y="-83"/>
      <point x="646" y="-1"/>
      <point x="473" y="170" type="curve" smooth="yes"/>
      <point x="312" y="330"/>
      <point x="67" y="95"/>
      <point x="199" y="-66" type="curve" smooth="yes"/>
      <point x="230" y="-104"/>
      <point x="325" y="-223"/>
      <point x="461" y="-165" type="curve"/>
      <point x="526" y="-245" type="line"/>
      <point x="458" y="-269"/>
      <point x="340" y="-280"/>
      <point x="322" y="-266" type="curve" smooth="yes"/>
      <point x="245" y="-207"/>
      <point x="38" y="25"/>
      <point x="36" y="102" type="curve" smooth="yes"/>
      <point x="34" y="185"/>
      <point x="303" y="328"/>
    </contour>
  </outline>
</glyph>
<glyph name="dvII" format="1">
  <advance width="595"/>
  <outline>
    <contour>
      <point x="539" y="-140" type="line"/>
      <point x="446" y="-80"/>
      <point x="202" y="134"/>
      <point x="155" y="156" type="curve"/>
      <point x="120" y="147"/>
      <point x="83" y="106"/>
      <point x="83" y="92" type="curve" smooth="yes"/>
      <point x="83" y="48"/>
      <point x="134" y="5"/>
      <point x="141" y="-1" type="curve"/>
      <point x="168" y="-29"/>
      <point x="251" y="-16"/>
      <point x="306" y="-12" type="curve"/>
      <point x="377" y="-71"/>
      <point x="436" y="-123"/>
      <point x="500" y="-182" type="curve"/>
    </contour>
    <contour>
      <point x="-5" y="522" type="line"/>
      <point x="597" y="522" type="line"/>
      <point x="597" y="619" type="line"/>
      <point x="-5" y="619" type="line"/>
    </contour>
    <contour>
      <point x="266" y="-3" type="line"/>
      <point x="516" y="-65"/>
      <point x="610" y="157"/>
      <point x="569" y="197" type="curve" smooth="yes"/>
      <point x="536" y="230"/>
      <point x="483" y="279"/>
      <point x="431" y="317" type="curve" smooth="yes"/>
      <point x="416" y="327"/>
      <point x="281" y="277"/>
      <point x="235" y="265" type="curve" smooth="yes"/>
      <point x="148" y="242"/>
      <point x="181" y="381"/>
      <point x="227" y="381" type="curve" smooth="yes"/>
      <point x="450" y="381" type="line"/>
      <point x="447" y="554" type="line"/>
      <point x="336" y="554" type="line"/>
      <point x="336" y="476" type="line"/>
      <point x="152" y="465" type="line"/>
      <point x="98" y="461"/>
      <point x="40" y="337"/>
      <point x="81" y="292" type="curve" smooth="yes"/>
      <point x="118" y="252"/>
      <point x="176" y="205"/>
      <point x="226" y="165" type="curve" smooth="yes"/>
      <point x="279" y="122"/>
      <point x="432" y="269"/>
      <point x="479" y="221" type="curve" smooth="yes"/>
      <point x="533" y="167"/>
      <point x="363" y="36"/>
      <point x="229" y="86" type="curve"/>
    </contour>
    <contour>
      <point x="440" y="615" type="line"/>
      <point x="384" y="665"/>
      <point x="336" y="700"/>
      <point x="336" y="739" type="curve" smooth="yes"/>
      <point x="336" y="774"/>
      <point x="371" y="824"/>
      <point x="404" y="824" type="curve" smooth="yes"/>
      <point x="433" y="824"/>
      <point x="495" y="792"/>
      <point x="518" y="779" type="curve"/>
      <point x="534" y="803" type="line"/>
      <point x="481" y="843"/>
      <point x="406" y="894"/>
      <point x="386" y="894" type="curve" smooth="yes"/>
      <point x="326" y="894"/>
      <point x="223" y="828"/>
      <point x="223" y="762" type="curve" smooth="yes"/>
      <point x="223" y="719"/>
      <point x="299" y="646"/>
      <point x="374" y="615" type="curve"/>
    </contour>
  </outline>
</glyph>
<glyph name="dvJ_DA" format="1">
  <advance width="1035"/>
  <outline>
    <contour>
      <point x="703" y="-231" type="move" name="blwm.virama"/>
    </contour>
    <contour>
      <point x="908" y="662" type="move" name="abvm.bindu"/>
    </contour>
    <contour>
      <point x="923" y="-160" type="move" name="blwm.u"/>
    </contour>
    <contour>
      <point x="907" y="672" type="move" name="abvm.e"/>
    </contour>
    <component base="dvDA" xOffset="476"/>
  </outline>
</glyph>
<glyph name="dvJ_JA" format="1">
  <advance width="1338"/>
  <outline>
    <contour>
      <point x="-14" y="619" type="line"/>
      <point x="780" y="619" type="line"/>
      <point x="780" y="523" type="line"/>
      <point x="-14" y="523" type="line"/>
    </contour>
    <contour>
      <point x="419" y="345" type="line"/>
      <point x="474" y="315"/>
      <point x="538" y="242"/>
      <point x="546" y="216" type="curve" smooth="yes"/>
      <point x="580" y="112"/>
      <point x="345" y="10"/>
      <point x="258" y="69" type="curve" smooth="yes"/>
      <point x="206" y="105"/>
      <point x="113" y="233"/>
      <point x="27" y="360" type="curve"/>
      <point x="53" y="376" type="line"/>
      <point x="115" y="301"/>
      <point x="236" y="138"/>
      <point x="351" y="171" type="curve" smooth="yes"/>
      <point x="392" y="183"/>
      <point x="479" y="232"/>
      <point x="396" y="325" type="curve"/>
    </contour>
    <contour>
      <point x="231" y="401" type="line"/>
      <point x="567" y="401" type="line"/>
      <point x="646" y="305" type="line"/>
      <point x="340" y="305" type="line"/>
    </contour>
    <component base="dvJA" xOffset="526"/>
  </outline>
</glyph>
<glyph name="dvJ_J_YA" format="1">
  <advance width="1780"/>
  <outline>
    <contour>
      <point x="-13" y="619" type="line"/>
      <point x="781" y="619" type="line"/>
      <point x="781" y="523" type="line"/>
      <point x="-13" y="523" type="line"/>
    </contour>
    <contour>
      <point x="420" y="345" type="line"/>
      <point x="475" y="315"/>
      <point x="539" y="242"/>
      <point x="547" y="216" type="curve" smooth="yes"/>
      <point x="581" y="112"/>
      <point x="346" y="10"/>
      <point x="259" y="69" type="curve" smooth="yes"/>
      <point x="207" y="105"/>
      <point x="114" y="233"/>
      <point x="28" y="360" type="curve"/>
      <point x="54" y="376" type="line"/>
      <point x="116" y="301"/>
      <point x="237" y="138"/>
      <point x="352" y="171" type="curve" smooth="yes"/>
      <point x="393" y="183"/>
      <point x="480" y="232"/>
      <point x="397" y="325" type="curve"/>
    </contour>
    <contour>
      <point x="232" y="401" type="line"/>
      <point x="568" y="401" type="line"/>
      <point x="647" y="305" type="line"/>
      <point x="341" y="305" type="line"/>
    </contour>
    <component base="dvYA" xOffset="1114"/>
    <component base="dvJ" xOffset="527"/>
  </outline>
</glyph>
<glyph name="dvJ_NA" format="1">
  <advance width="939"/>
  <outline>
    <contour>
      <point x="738" y="0" type="line"/>
      <point x="862" y="-56" type="line"/>
      <point x="862" y="523" type="line"/>
      <point x="948" y="523" type="line"/>
      <point x="948" y="619" type="line"/>
      <point x="-6" y="619" type="line"/>
      <point x="-6" y="523" type="line"/>
      <point x="738" y="523" type="line"/>
      <point x="738" y="401" type="line"/>
      <point x="239" y="401" type="line"/>
      <point x="348" y="305" type="line"/>
      <point x="420" y="305" type="line"/>
      <point x="474" y="225"/>
      <point x="397" y="182"/>
      <point x="359" y="171" type="curve" smooth="yes"/>
      <point x="244" y="138"/>
      <point x="123" y="301"/>
      <point x="61" y="376" type="curve"/>
      <point x="35" y="360" type="line"/>
      <point x="121" y="233"/>
      <point x="214" y="105"/>
      <point x="266" y="69" type="curve" smooth="yes"/>
      <point x="353" y="10"/>
      <point x="588" y="112"/>
      <point x="554" y="216" type="curve" smooth="yes"/>
      <point x="548" y="233"/>
      <point x="518" y="272"/>
      <point x="481" y="305" type="curve"/>
      <point x="738" y="305" type="line"/>
      <point x="738" y="170" type="line"/>
      <point x="624" y="127"/>
      <point x="438" y="55"/>
      <point x="426" y="48" type="curve"/>
      <point x="378" y="4"/>
      <point x="357" y="-81"/>
      <point x="425" y="-116" type="curve" smooth="yes"/>
      <point x="469" y="-139"/>
      <point x="500" y="-151"/>
      <point x="557" y="-170" type="curve" smooth="yes"/>
      <point x="606" y="-186"/>
      <point x="707" y="-44"/>
      <point x="609" y="20" type="curve"/>
      <point x="738" y="68" type="line"/>
    </contour>
    <contour>
      <point x="558" y="0" type="curve"/>
      <point x="577" y="-72"/>
      <point x="518" y="-123"/>
      <point x="479" y="-89" type="curve" smooth="yes"/>
      <point x="444" y="-58"/>
      <point x="505" y="-14"/>
    </contour>
  </outline>
</glyph>
<glyph name="dvJ_NY" format="1">
  <advance width="596"/>
  <outline>
    <contour>
      <point x="207" y="319" type="line"/>
      <point x="701" y="319" type="line"/>
      <point x="607" y="402" type="line"/>
      <point x="114" y="401" type="line"/>
    </contour>
    <contour>
      <point x="283" y="322" type="line"/>
      <point x="411" y="238"/>
      <point x="369" y="93"/>
      <point x="253" y="98" type="curve"/>
      <point x="207" y="9" type="line"/>
      <point x="401" y="-40"/>
      <point x="514" y="159"/>
      <point x="481" y="203" type="curve" smooth="yes"/>
      <point x="448" y="247"/>
      <point x="372" y="309"/>
      <point x="314" y="350" type="curve"/>
    </contour>
    <contour>
      <point x="544" y="-128" type="line"/>
      <point x="452" y="-68"/>
      <point x="208" y="146"/>
      <point x="161" y="168" type="curve"/>
      <point x="126" y="159"/>
      <point x="89" y="118"/>
      <point x="89" y="104" type="curve" smooth="yes"/>
      <point x="89" y="60"/>
      <point x="140" y="17"/>
      <point x="147" y="11" type="curve"/>
      <point x="174" y="-17"/>
      <point x="257" y="-4"/>
      <point x="312" y="0" type="curve"/>
      <point x="383" y="-59"/>
      <point x="441" y="-111"/>
      <point x="505" y="-170" type="curve"/>
    </contour>
    <contour>
      <point x="-17" y="522" type="line"/>
      <point x="797" y="522" type="line"/>
      <point x="797" y="619" type="line"/>
      <point x="-17" y="619" type="line"/>
    </contour>
  </outline>
</glyph>
<glyph name="dvJx_YA" format="1">
  <advance width="1240"/>
  <outline>
    <contour>
      <point x="247" y="401" type="line"/>
      <point x="720" y="402" type="line"/>
      <point x="734" y="319" type="line"/>
      <point x="458" y="319" type="line"/>
      <point x="497" y="288"/>
      <point x="528" y="250"/>
      <point x="534" y="231" type="curve" smooth="yes"/>
      <point x="570" y="128"/>
      <point x="334" y="29"/>
      <point x="247" y="88" type="curve" smooth="yes"/>
      <point x="195" y="124"/>
      <point x="113" y="237"/>
      <point x="27" y="364" type="curve"/>
      <point x="52" y="382" type="line"/>
      <point x="111" y="306"/>
      <point x="221" y="123"/>
      <point x="367" y="178" type="curve" smooth="yes"/>
      <point x="417" y="196"/>
      <point x="484" y="234"/>
      <point x="416" y="319" type="curve"/>
      <point x="340" y="319" type="line"/>
    </contour>
    <contour>
      <point x="-14" y="619" type="line"/>
      <point x="780" y="619" type="line"/>
      <point x="780" y="523" type="line"/>
      <point x="-14" y="523" type="line"/>
    </contour>
    <component base="dvYA" xOffset="565"/>
    <component base="dvNukta" xOffset="469" yOffset="150"/>
  </outline>
</glyph>
<glyph name="dvKH_MA" format="1">
  <advance width="1273"/>
  <outline>
    <contour>
      <point x="714" y="227" type="line"/>
      <point x="541" y="505"/>
      <point x="390" y="257"/>
      <point x="443" y="200" type="curve" smooth="yes"/>
      <point x="471" y="170"/>
      <point x="597" y="119"/>
      <point x="710" y="305" type="curve"/>
      <point x="710" y="305"/>
      <point x="749" y="252"/>
      <point x="749" y="252" type="curve"/>
      <point x="749" y="252"/>
      <point x="632" y="70"/>
      <point x="569" y="74" type="curve" smooth="yes"/>
      <point x="463" y="81"/>
      <point x="383" y="190"/>
      <point x="346" y="262" type="curve" smooth="yes"/>
      <point x="302" y="347"/>
      <point x="504" y="495"/>
      <point x="563" y="455" type="curve" smooth="yes"/>
      <point x="597" y="431"/>
      <point x="722" y="285"/>
      <point x="759" y="262" type="curve"/>
    </contour>
    <contour>
      <point x="430" y="619" type="line"/>
      <point x="430" y="522" type="line"/>
      <point x="-15" y="522" type="line"/>
      <point x="-15" y="619" type="line"/>
    </contour>
    <contour>
      <point x="312" y="531" type="line"/>
      <point x="411" y="389"/>
      <point x="388" y="202"/>
      <point x="197" y="143" type="curve"/>
      <point x="211" y="97"/>
      <point x="271" y="17"/>
      <point x="397" y="17" type="curve" smooth="yes"/>
      <point x="546" y="17"/>
      <point x="596" y="123"/>
      <point x="639" y="228" type="curve"/>
      <point x="686" y="177" type="line"/>
      <point x="632" y="61"/>
      <point x="544" y="-57"/>
      <point x="408" y="-57" type="curve" smooth="yes"/>
      <point x="150" y="-57"/>
      <point x="42" y="164"/>
      <point x="37" y="291" type="curve"/>
      <point x="49" y="324"/>
      <point x="65" y="359"/>
      <point x="83" y="380" type="curve" smooth="yes"/>
      <point x="97" y="397"/>
      <point x="139" y="368"/>
      <point x="158" y="349" type="curve" smooth="yes"/>
      <point x="171" y="336"/>
      <point x="171" y="305"/>
      <point x="182" y="273" type="curve"/>
      <point x="298" y="311"/>
      <point x="283" y="440"/>
      <point x="248" y="531" type="curve"/>
    </contour>
    <contour>
      <point x="712" y="619" type="line"/>
      <point x="712" y="522" type="line"/>
      <point x="270" y="522" type="line"/>
      <point x="270" y="619" type="line"/>
    </contour>
    <contour>
      <point x="1079" y="537" type="line"/>
      <point x="1203" y="537" type="line"/>
      <point x="1203" y="-56" type="line"/>
      <point x="1079" y="0" type="line"/>
    </contour>
    <contour>
      <point x="568" y="619" type="line"/>
      <point x="1278" y="619" type="line"/>
      <point x="1278" y="523" type="line"/>
      <point x="568" y="523" type="line"/>
    </contour>
    <contour>
      <point x="747" y="173" type="curve"/>
      <point x="661" y="177"/>
      <point x="663" y="135"/>
      <point x="686" y="115" type="curve" smooth="yes"/>
      <point x="707" y="96"/>
      <point x="747" y="95"/>
    </contour>
    <contour>
      <point x="872" y="172" type="line"/>
      <point x="872" y="134" type="line" smooth="yes"/>
      <point x="872" y="29"/>
      <point x="745" y="21"/>
      <point x="719" y="43" type="curve" smooth="yes"/>
      <point x="698" y="60"/>
      <point x="655" y="97"/>
      <point x="624" y="122" type="curve" smooth="yes"/>
      <point x="570" y="166"/>
      <point x="627" y="268"/>
      <point x="688" y="268" type="curve" smooth="yes"/>
      <point x="748" y="268" type="line"/>
      <point x="748" y="530" type="line"/>
      <point x="872" y="571" type="line"/>
      <point x="872" y="268" type="line"/>
      <point x="1079" y="269" type="line"/>
      <point x="1079" y="172" type="line"/>
    </contour>
  </outline>
</glyph>
<glyph name="dvKH_NA" format="1">
  <advance width="865"/>
  <outline>
    <contour>
      <point x="-15" y="619" type="line"/>
      <point x="-15" y="523" type="line"/>
      <point x="251" y="523" type="line"/>
      <point x="284" y="432"/>
      <point x="294" y="310"/>
      <point x="182" y="273" type="curve"/>
      <point x="171" y="305"/>
      <point x="171" y="336"/>
      <point x="158" y="349" type="curve" smooth="yes"/>
      <point x="139" y="368"/>
      <point x="97" y="397"/>
      <point x="83" y="380" type="curve" smooth="yes"/>
      <point x="65" y="359"/>
      <point x="49" y="324"/>
      <point x="37" y="291" type="curve"/>
      <point x="41" y="172"/>
      <point x="166" y="50"/>
      <point x="327" y="38" type="curve"/>
      <point x="299" y="26" type="line"/>
      <point x="252" y="-20"/>
      <point x="234" y="-103"/>
      <point x="303" y="-137" type="curve" smooth="yes"/>
      <point x="348" y="-158"/>
      <point x="380" y="-169"/>
      <point x="436" y="-188" type="curve"/>
      <point x="486" y="-201"/>
      <point x="581" y="-58"/>
      <point x="483" y="3" type="curve"/>
      <point x="672" y="81" type="line"/>
      <point x="672" y="0" type="line"/>
      <point x="796" y="-56" type="line"/>
      <point x="796" y="523" type="line"/>
      <point x="872" y="523" type="line"/>
      <point x="872" y="619" type="line"/>
    </contour>
    <contour>
      <point x="580" y="459" type="curve"/>
      <point x="539" y="486"/>
      <point x="424" y="423"/>
      <point x="369" y="354" type="curve"/>
      <point x="371" y="410"/>
      <point x="352" y="469"/>
      <point x="317" y="523" type="curve"/>
      <point x="672" y="523" type="line"/>
      <point x="672" y="396" type="line"/>
      <point x="639" y="418"/>
      <point x="602" y="443"/>
    </contour>
    <contour>
      <point x="440" y="211" type="curve" smooth="yes"/>
      <point x="393" y="264"/>
      <point x="533" y="413"/>
      <point x="672" y="341" type="curve"/>
      <point x="672" y="270" type="line"/>
      <point x="563" y="159"/>
      <point x="463" y="184"/>
    </contour>
  </outline>
</glyph>
<glyph name="dvKH_R" format="1">
  <advance width="677"/>
  <outline>
    <contour>
      <point x="-15" y="619" type="line"/>
      <point x="-15" y="523" type="line"/>
      <point x="251" y="523" type="line"/>
      <point x="284" y="432"/>
      <point x="294" y="310"/>
      <point x="182" y="273" type="curve"/>
      <point x="171" y="305"/>
      <point x="171" y="336"/>
      <point x="158" y="349" type="curve" smooth="yes"/>
      <point x="139" y="368"/>
      <point x="97" y="397"/>
      <point x="83" y="380" type="curve" smooth="yes"/>
      <point x="65" y="359"/>
      <point x="49" y="324"/>
      <point x="37" y="291" type="curve"/>
      <point x="82" y="117"/>
      <point x="254" y="35"/>
      <point x="415" y="55" type="curve"/>
      <point x="385" y="37"/>
      <point x="359" y="21"/>
      <point x="339" y="10" type="curve"/>
      <point x="423" y="-56" type="line"/>
      <point x="490" y="7"/>
      <point x="592" y="85"/>
      <point x="658" y="143" type="curve"/>
      <point x="686" y="161"/>
      <point x="712" y="187"/>
      <point x="734" y="223" type="curve"/>
      <point x="710" y="315" type="line"/>
      <point x="587" y="154"/>
      <point x="466" y="181"/>
      <point x="440" y="211" type="curve" smooth="yes"/>
      <point x="389" y="270"/>
      <point x="563" y="444"/>
      <point x="713" y="313" type="curve"/>
      <point x="717" y="367" type="line"/>
      <point x="680" y="390"/>
      <point x="614" y="435"/>
      <point x="580" y="459" type="curve" smooth="yes"/>
      <point x="540" y="486"/>
      <point x="427" y="425"/>
      <point x="372" y="357" type="curve"/>
      <point x="373" y="409"/>
      <point x="354" y="467"/>
      <point x="317" y="523" type="curve"/>
      <point x="800" y="523" type="line"/>
      <point x="800" y="619" type="line"/>
    </contour>
    <contour>
      <point x="346" y="262" type="line" smooth="yes"/>
      <point x="378" y="198"/>
      <point x="428" y="153"/>
      <point x="482" y="130" type="curve"/>
      <point x="392" y="103"/>
      <point x="291" y="120"/>
      <point x="216" y="170" type="curve"/>
      <point x="277" y="192"/>
      <point x="319" y="225"/>
      <point x="344" y="265" type="curve"/>
    </contour>
  </outline>
</glyph>
<glyph name="dvKH_SHA" format="1">
  <advance width="1334"/>
  <outline>
    <contour>
      <point x="-8" y="619" type="line"/>
      <point x="-8" y="522" type="line"/>
      <point x="258" y="522" type="line"/>
      <point x="290" y="431"/>
      <point x="301" y="310"/>
      <point x="189" y="273" type="curve"/>
      <point x="178" y="305"/>
      <point x="178" y="336"/>
      <point x="165" y="349" type="curve" smooth="yes"/>
      <point x="146" y="368"/>
      <point x="104" y="397"/>
      <point x="90" y="380" type="curve" smooth="yes"/>
      <point x="72" y="359"/>
      <point x="56" y="324"/>
      <point x="44" y="291" type="curve"/>
      <point x="49" y="164"/>
      <point x="157" y="-57"/>
      <point x="415" y="-57" type="curve" smooth="yes"/>
      <point x="551" y="-57"/>
      <point x="677" y="47"/>
      <point x="731" y="163" type="curve"/>
      <point x="727" y="167" type="line"/>
      <point x="736" y="182"/>
      <point x="741" y="193"/>
      <point x="741" y="193" type="curve"/>
      <point x="721" y="218" type="line"/>
      <point x="735" y="223" type="line"/>
      <point x="702" y="261"/>
      <point x="621" y="415"/>
      <point x="587" y="439" type="curve"/>
      <point x="546" y="466"/>
      <point x="429" y="402"/>
      <point x="375" y="332" type="curve"/>
      <point x="382" y="394"/>
      <point x="364" y="462"/>
      <point x="325" y="522" type="curve"/>
      <point x="619" y="522" type="line"/>
      <point x="619" y="619" type="line"/>
    </contour>
    <contour>
      <point x="404" y="17" type="curve" smooth="yes"/>
      <point x="278" y="17"/>
      <point x="218" y="97"/>
      <point x="204" y="143" type="curve"/>
      <point x="274" y="164"/>
      <point x="322" y="204"/>
      <point x="349" y="252" type="curve"/>
      <point x="350" y="248"/>
      <point x="351" y="245"/>
      <point x="353" y="242" type="curve" smooth="yes"/>
      <point x="386" y="177"/>
      <point x="452" y="72"/>
      <point x="542" y="53" type="curve"/>
      <point x="504" y="30"/>
      <point x="459" y="17"/>
    </contour>
    <contour>
      <point x="437" y="207" type="curve" smooth="yes"/>
      <point x="398" y="272"/>
      <point x="577" y="447"/>
      <point x="674" y="221" type="curve"/>
      <point x="567" y="78"/>
      <point x="457" y="172"/>
    </contour>
    <component base="dvSHA" xOffset="600"/>
  </outline>
</glyph>
<glyph name="dvKHx_MA" format="1">
  <advance width="1296"/>
  <outline>
    <contour>
      <point x="718" y="264" type="line"/>
      <point x="556" y="471"/>
      <point x="399" y="257"/>
      <point x="452" y="200" type="curve" smooth="yes"/>
      <point x="480" y="170"/>
      <point x="586" y="143"/>
      <point x="714" y="266" type="curve"/>
      <point x="714" y="266"/>
      <point x="743" y="213"/>
      <point x="743" y="213" type="curve"/>
      <point x="743" y="213"/>
      <point x="676" y="71"/>
      <point x="574" y="70" type="curve"/>
      <point x="468" y="70"/>
      <point x="392" y="190"/>
      <point x="355" y="262" type="curve" smooth="yes"/>
      <point x="311" y="347"/>
      <point x="530" y="499"/>
      <point x="589" y="459" type="curve" smooth="yes"/>
      <point x="623" y="435"/>
      <point x="746" y="312"/>
      <point x="779" y="264" type="curve"/>
    </contour>
    <contour>
      <point x="439" y="619" type="line"/>
      <point x="439" y="522" type="line"/>
      <point x="-6" y="522" type="line"/>
      <point x="-6" y="619" type="line"/>
    </contour>
    <contour>
      <point x="321" y="531" type="line"/>
      <point x="420" y="389"/>
      <point x="397" y="202"/>
      <point x="206" y="143" type="curve"/>
      <point x="220" y="97"/>
      <point x="280" y="17"/>
      <point x="406" y="17" type="curve" smooth="yes"/>
      <point x="555" y="17"/>
      <point x="624" y="112"/>
      <point x="667" y="217" type="curve"/>
      <point x="714" y="166" type="line"/>
      <point x="660" y="50"/>
      <point x="553" y="-57"/>
      <point x="417" y="-57" type="curve" smooth="yes"/>
      <point x="159" y="-57"/>
      <point x="51" y="164"/>
      <point x="46" y="291" type="curve"/>
      <point x="58" y="324"/>
      <point x="74" y="359"/>
      <point x="92" y="380" type="curve" smooth="yes"/>
      <point x="106" y="397"/>
      <point x="148" y="368"/>
      <point x="167" y="349" type="curve" smooth="yes"/>
      <point x="180" y="336"/>
      <point x="180" y="305"/>
      <point x="191" y="273" type="curve"/>
      <point x="307" y="311"/>
      <point x="292" y="440"/>
      <point x="257" y="531" type="curve"/>
    </contour>
    <contour>
      <point x="721" y="619" type="line"/>
      <point x="721" y="522" type="line"/>
      <point x="279" y="522" type="line"/>
      <point x="279" y="619" type="line"/>
    </contour>
    <component base="dvMA" xOffset="615"/>
    <component base="dvNukta" xOffset="512" yOffset="55"/>
  </outline>
</glyph>
<glyph name="dvK_CA" format="1">
  <advance width="1423"/>
  <outline>
    <contour>
      <point x="513" y="385" type="line"/>
      <point x="546" y="415"/>
      <point x="599" y="468"/>
      <point x="661" y="466" type="curve" smooth="yes"/>
      <point x="705" y="464"/>
      <point x="803" y="375"/>
      <point x="812" y="319" type="curve"/>
      <point x="720" y="319" type="line"/>
      <point x="663" y="374"/>
      <point x="549" y="307"/>
      <point x="519" y="245" type="curve"/>
    </contour>
    <contour>
      <point x="395" y="537" type="line"/>
      <point x="520" y="537" type="line"/>
      <point x="520" y="-56" type="line"/>
      <point x="395" y="0" type="line"/>
    </contour>
    <contour>
      <point x="-7" y="619" type="line"/>
      <point x="863" y="619" type="line"/>
      <point x="863" y="523" type="line"/>
      <point x="-7" y="523" type="line"/>
    </contour>
    <contour>
      <point x="422" y="313" type="line"/>
      <point x="272" y="444"/>
      <point x="98" y="257"/>
      <point x="152" y="200" type="curve" smooth="yes"/>
      <point x="179" y="170"/>
      <point x="305" y="119"/>
      <point x="418" y="305" type="curve"/>
      <point x="418" y="305"/>
      <point x="443" y="213"/>
      <point x="443" y="213" type="curve"/>
      <point x="443" y="213"/>
      <point x="375" y="71"/>
      <point x="273" y="70" type="curve"/>
      <point x="167" y="70"/>
      <point x="92" y="190"/>
      <point x="55" y="262" type="curve" smooth="yes"/>
      <point x="10" y="347"/>
      <point x="229" y="499"/>
      <point x="288" y="459" type="curve" smooth="yes"/>
      <point x="322" y="435"/>
      <point x="389" y="390"/>
      <point x="425" y="367" type="curve"/>
    </contour>
    <component base="dvCA" xOffset="660"/>
  </outline>
</glyph>
<glyph name="dvK_DA_mU" format="1">
  <advance width="1273"/>
  <outline>
    <contour>
      <point x="1083" y="618" type="move" name="abvm.bindu"/>
    </contour>
    <contour>
      <point x="1069" y="619" type="move" name="abvm.e"/>
    </contour>
    <component base="dvK"/>
    <component base="dvDA" xOffset="670"/>
    <component base="dvmU" xOffset="1164"/>
  </outline>
</glyph>
<glyph name="dvK_NA" format="1">
  <advance width="882"/>
  <outline>
    <contour>
      <point x="474" y="0" type="move" name="blwm.virama"/>
    </contour>
    <contour>
      <point x="501" y="662" type="move" name="abvm.bindu"/>
    </contour>
    <contour>
      <point x="474" y="-10" type="move" name="blwm.u"/>
    </contour>
    <contour>
      <point x="501" y="672" type="move" name="abvm.e"/>
    </contour>
    <contour>
      <point x="-27" y="619" type="line"/>
      <point x="893" y="619" type="line"/>
      <point x="893" y="523" type="line"/>
      <point x="540" y="523" type="line"/>
      <point x="540" y="411" type="line"/>
      <point x="573" y="440"/>
      <point x="622" y="461"/>
      <point x="682" y="459" type="curve" smooth="yes"/>
      <point x="723" y="457"/>
      <point x="832" y="332"/>
      <point x="865" y="283" type="curve" smooth="yes"/>
      <point x="912" y="211"/>
      <point x="811" y="98"/>
      <point x="703" y="61" type="curve"/>
      <point x="609" y="147" type="line"/>
      <point x="678" y="171"/>
      <point x="724" y="195"/>
      <point x="750" y="233" type="curve" smooth="yes"/>
      <point x="814" y="325"/>
      <point x="745" y="385"/>
      <point x="651" y="344" type="curve" smooth="yes"/>
      <point x="596" y="319"/>
      <point x="559" y="284"/>
      <point x="540" y="225" type="curve"/>
      <point x="540" y="-56" type="line"/>
      <point x="415" y="0" type="line"/>
      <point x="415" y="104" type="line"/>
      <point x="268" y="48" type="line"/>
      <point x="366" y="-16"/>
      <point x="265" y="-158"/>
      <point x="216" y="-142" type="curve" smooth="yes"/>
      <point x="159" y="-123"/>
      <point x="128" y="-111"/>
      <point x="84" y="-88" type="curve" smooth="yes"/>
      <point x="16" y="-53"/>
      <point x="37" y="32"/>
      <point x="85" y="76" type="curve" smooth="yes"/>
      <point x="91" y="81"/>
      <point x="85" y="77"/>
      <point x="199" y="121" type="curve"/>
      <point x="142" y="155"/>
      <point x="100" y="213"/>
      <point x="75" y="262" type="curve" smooth="yes"/>
      <point x="30" y="347"/>
      <point x="249" y="499"/>
      <point x="308" y="459" type="curve"/>
      <point x="334" y="440"/>
      <point x="379" y="409"/>
      <point x="415" y="386" type="curve"/>
      <point x="415" y="523" type="line"/>
      <point x="-27" y="523" type="line"/>
    </contour>
    <contour>
      <point x="172" y="200" type="curve"/>
      <point x="197" y="172"/>
      <point x="307" y="152"/>
      <point x="415" y="276" type="curve"/>
      <point x="415" y="333" type="line"/>
      <point x="272" y="422"/>
      <point x="121" y="253"/>
    </contour>
  </outline>
</glyph>
<glyph name="dvK_RA" format="1">
  <advance width="850"/>
  <outline>
    <contour>
      <point x="400" y="0" type="move" name="blwm.virama"/>
    </contour>
    <contour>
      <point x="446" y="619" type="move" name="abvm.bindu"/>
    </contour>
    <contour>
      <point x="400" y="-10" type="move" name="blwm.u"/>
    </contour>
    <contour>
      <point x="437" y="619" type="move" name="abvm.e"/>
    </contour>
    <contour>
      <point x="375" y="0" type="line"/>
      <point x="500" y="-56" type="line"/>
      <point x="500" y="225" type="line"/>
      <point x="519" y="284"/>
      <point x="556" y="319"/>
      <point x="611" y="344" type="curve" smooth="yes"/>
      <point x="705" y="385"/>
      <point x="774" y="325"/>
      <point x="710" y="233" type="curve" smooth="yes"/>
      <point x="684" y="195"/>
      <point x="638" y="171"/>
      <point x="569" y="147" type="curve"/>
      <point x="663" y="61" type="line"/>
      <point x="771" y="98"/>
      <point x="872" y="211"/>
      <point x="825" y="283" type="curve" smooth="yes"/>
      <point x="792" y="332"/>
      <point x="683" y="457"/>
      <point x="642" y="459" type="curve" smooth="yes"/>
      <point x="582" y="461"/>
      <point x="533" y="440"/>
      <point x="500" y="411" type="curve"/>
      <point x="500" y="523" type="line"/>
      <point x="855" y="523" type="line"/>
      <point x="855" y="619" type="line"/>
      <point x="-27" y="619" type="line"/>
      <point x="-27" y="523" type="line"/>
      <point x="375" y="523" type="line"/>
      <point x="375" y="386" type="line"/>
      <point x="339" y="409"/>
      <point x="294" y="440"/>
      <point x="268" y="459" type="curve"/>
      <point x="209" y="499"/>
      <point x="-10" y="347"/>
      <point x="35" y="262" type="curve" smooth="yes"/>
      <point x="65" y="203"/>
      <point x="120" y="128"/>
      <point x="198" y="103" type="curve"/>
      <point x="164" y="80"/>
      <point x="131" y="58"/>
      <point x="102" y="37" type="curve"/>
      <point x="186" y="-29" type="line"/>
      <point x="254" y="36"/>
      <point x="328" y="102"/>
      <point x="375" y="152" type="curve"/>
    </contour>
    <contour>
      <point x="132" y="200" type="curve"/>
      <point x="81" y="253"/>
      <point x="232" y="422"/>
      <point x="375" y="333" type="curve"/>
      <point x="375" y="276" type="line"/>
      <point x="267" y="152"/>
      <point x="157" y="172"/>
    </contour>
  </outline>
</glyph>
<glyph name="dvK_SHA" format="1">
  <advance width="1419"/>
  <outline>
    <contour>
      <point x="502" y="385" type="line"/>
      <point x="535" y="415"/>
      <point x="588" y="468"/>
      <point x="650" y="466" type="curve" smooth="yes"/>
      <point x="691" y="464"/>
      <point x="782" y="335"/>
      <point x="823" y="250" type="curve"/>
      <point x="761" y="208" type="line"/>
      <point x="676" y="416"/>
      <point x="547" y="327"/>
      <point x="508" y="245" type="curve"/>
    </contour>
    <contour>
      <point x="384" y="537" type="line"/>
      <point x="509" y="537" type="line"/>
      <point x="509" y="-56" type="line"/>
      <point x="384" y="0" type="line"/>
    </contour>
    <contour>
      <point x="-18" y="619" type="line"/>
      <point x="902" y="619" type="line"/>
      <point x="902" y="523" type="line"/>
      <point x="-18" y="523" type="line"/>
    </contour>
    <contour>
      <point x="411" y="313" type="line"/>
      <point x="261" y="444"/>
      <point x="87" y="257"/>
      <point x="141" y="200" type="curve" smooth="yes"/>
      <point x="168" y="170"/>
      <point x="294" y="119"/>
      <point x="407" y="305" type="curve"/>
      <point x="407" y="305"/>
      <point x="432" y="213"/>
      <point x="432" y="213" type="curve"/>
      <point x="432" y="213"/>
      <point x="364" y="71"/>
      <point x="262" y="70" type="curve"/>
      <point x="156" y="70"/>
      <point x="81" y="190"/>
      <point x="44" y="262" type="curve" smooth="yes"/>
      <point x="-1" y="347"/>
      <point x="218" y="499"/>
      <point x="277" y="459" type="curve" smooth="yes"/>
      <point x="311" y="435"/>
      <point x="378" y="390"/>
      <point x="414" y="367" type="curve"/>
    </contour>
    <component base="dvSHA" xOffset="722"/>
  </outline>
</glyph>
<glyph name="dvK_SSA" format="1">
  <advance width="721"/>
  <outline>
    <contour>
      <point x="441" y="522" type="line"/>
      <point x="534" y="522" type="line"/>
      <point x="534" y="407" type="line"/>
      <point x="509" y="362"/>
      <point x="420" y="315"/>
      <point x="327" y="326" type="curve"/>
      <point x="383" y="371"/>
      <point x="423" y="414"/>
      <point x="399" y="456" type="curve" smooth="yes"/>
      <point x="365" y="515"/>
      <point x="257" y="625"/>
      <point x="232" y="625" type="curve" smooth="yes"/>
      <point x="137" y="625"/>
      <point x="48" y="492"/>
      <point x="78" y="444" type="curve" smooth="yes"/>
      <point x="100" y="407"/>
      <point x="143" y="373"/>
      <point x="192" y="345" type="curve"/>
      <point x="101" y="277"/>
      <point x="0" y="207"/>
      <point x="51" y="137" type="curve" smooth="yes"/>
      <point x="95" y="76"/>
      <point x="103" y="61"/>
      <point x="167" y="9" type="curve" smooth="yes"/>
      <point x="233" y="-45"/>
      <point x="311" y="-38"/>
      <point x="375" y="1" type="curve"/>
      <point x="492" y="-146" type="line"/>
      <point x="531" y="-119" type="line"/>
      <point x="413" y="27" type="line"/>
      <point x="469" y="77" type="line" smooth="yes"/>
      <point x="501" y="105"/>
      <point x="482" y="153"/>
      <point x="455" y="185" type="curve" smooth="yes"/>
      <point x="423" y="223"/>
      <point x="388" y="251"/>
      <point x="341" y="221" type="curve" smooth="yes"/>
      <point x="323" y="210"/>
      <point x="286" y="182"/>
      <point x="271" y="152" type="curve" smooth="yes"/>
      <point x="267" y="145"/>
      <point x="272" y="134"/>
      <point x="303" y="92" type="curve"/>
      <point x="255" y="59"/>
      <point x="200" y="47"/>
      <point x="161" y="89" type="curve" smooth="yes"/>
      <point x="95" y="159"/>
      <point x="201" y="230"/>
      <point x="293" y="300" type="curve"/>
      <point x="374" y="266"/>
      <point x="460" y="255"/>
      <point x="534" y="289" type="curve"/>
      <point x="534" y="1" type="line"/>
      <point x="658" y="-55" type="line"/>
      <point x="658" y="522" type="line"/>
      <point x="731" y="522" type="line"/>
      <point x="731" y="619" type="line"/>
      <point x="402" y="619" type="line"/>
    </contour>
    <contour>
      <point x="210" y="378" type="line" smooth="yes"/>
      <point x="100" y="464"/>
      <point x="245" y="578"/>
      <point x="294" y="523" type="curve" smooth="yes"/>
      <point x="338" y="473"/>
      <point x="289" y="421"/>
      <point x="222" y="369" type="curve"/>
    </contour>
  </outline>
</glyph>
<glyph name="dvK_SS_MA" format="1">
  <advance width="1175"/>
  <outline>
    <contour>
      <point x="410" y="456" type="curve" smooth="yes"/>
      <point x="376" y="515"/>
      <point x="268" y="625"/>
      <point x="243" y="625" type="curve" smooth="yes"/>
      <point x="148" y="625"/>
      <point x="59" y="492"/>
      <point x="89" y="444" type="curve" smooth="yes"/>
      <point x="112" y="406"/>
      <point x="157" y="370"/>
      <point x="209" y="342" type="curve"/>
      <point x="117" y="273"/>
      <point x="11" y="207"/>
      <point x="62" y="137" type="curve" smooth="yes"/>
      <point x="106" y="76"/>
      <point x="114" y="61"/>
      <point x="178" y="9" type="curve" smooth="yes"/>
      <point x="244" y="-45"/>
      <point x="322" y="-38"/>
      <point x="386" y="1" type="curve"/>
      <point x="503" y="-146" type="line"/>
      <point x="542" y="-119" type="line"/>
      <point x="424" y="27" type="line"/>
      <point x="480" y="77" type="line" smooth="yes"/>
      <point x="512" y="105"/>
      <point x="493" y="153"/>
      <point x="466" y="185" type="curve" smooth="yes"/>
      <point x="434" y="223"/>
      <point x="399" y="251"/>
      <point x="352" y="221" type="curve" smooth="yes"/>
      <point x="334" y="210"/>
      <point x="297" y="182"/>
      <point x="282" y="152" type="curve" smooth="yes"/>
      <point x="278" y="145"/>
      <point x="283" y="134"/>
      <point x="314" y="92" type="curve"/>
      <point x="266" y="59"/>
      <point x="211" y="47"/>
      <point x="172" y="89" type="curve" smooth="yes"/>
      <point x="106" y="160"/>
      <point x="213" y="231"/>
      <point x="305" y="301" type="curve"/>
      <point x="423" y="262"/>
      <point x="641" y="293"/>
      <point x="731" y="393" type="curve"/>
      <point x="730" y="394"/>
      <point x="677" y="481"/>
      <point x="676" y="480" type="curve" smooth="yes"/>
      <point x="641" y="407"/>
      <point x="463" y="323"/>
      <point x="341" y="329" type="curve"/>
      <point x="395" y="372"/>
      <point x="433" y="415"/>
    </contour>
    <contour>
      <point x="460" y="523" type="line"/>
      <point x="748" y="523" type="line"/>
      <point x="748" y="619" type="line"/>
      <point x="421" y="619" type="line"/>
    </contour>
    <contour>
      <point x="221" y="378" type="curve"/>
      <point x="111" y="464"/>
      <point x="247" y="588"/>
      <point x="298" y="530" type="curve" smooth="yes"/>
      <point x="349" y="471"/>
      <point x="304" y="417"/>
      <point x="239" y="365" type="curve"/>
      <point x="232" y="369"/>
      <point x="226" y="373"/>
    </contour>
    <component base="dvMA" xOffset="494"/>
  </outline>
</glyph>
<glyph name="dvK_SS_VA" format="1">
  <advance width="1014"/>
  <outline>
    <contour>
      <point x="408" y="523" type="line"/>
      <point x="696" y="523" type="line"/>
      <point x="696" y="619" type="line"/>
      <point x="369" y="619" type="line"/>
    </contour>
    <component base="dvK_SS" xOffset="3"/>
    <component base="dvVA" xOffset="425"/>
  </outline>
</glyph>
<glyph name="dvK_SS_YA" format="1">
  <advance width="1079"/>
  <outline>
    <contour>
      <point x="887" y="1" type="line"/>
      <point x="1011" y="-55" type="line"/>
      <point x="1011" y="523" type="line"/>
      <point x="1087" y="523" type="line"/>
      <point x="1087" y="619" type="line"/>
      <point x="375" y="619" type="line"/>
      <point x="414" y="523" type="line"/>
      <point x="568" y="523" type="line"/>
      <point x="608" y="480"/>
      <point x="604" y="442"/>
      <point x="525" y="370" type="curve" smooth="yes"/>
      <point x="491" y="338"/>
      <point x="425" y="295"/>
      <point x="428" y="284" type="curve" smooth="yes"/>
      <point x="436" y="259"/>
      <point x="604" y="71"/>
      <point x="726" y="71" type="curve" smooth="yes"/>
      <point x="792" y="71"/>
      <point x="850" y="124"/>
      <point x="887" y="167" type="curve"/>
    </contour>
    <contour>
      <point x="543" y="231" type="curve"/>
      <point x="631" y="309"/>
      <point x="704" y="364"/>
      <point x="699" y="426" type="curve" smooth="yes"/>
      <point x="696" y="455"/>
      <point x="671" y="492"/>
      <point x="634" y="523" type="curve"/>
      <point x="887" y="523" type="line"/>
      <point x="887" y="339" type="line"/>
      <point x="820" y="209"/>
      <point x="668" y="101"/>
    </contour>
    <component base="dvK_SS" xOffset="2"/>
  </outline>
</glyph>
<glyph name="dvK_TA" format="1">
  <advance width="1011"/>
  <outline>
    <contour>
      <point x="593" y="0" type="move" name="blwm.virama"/>
    </contour>
    <contour>
      <point x="628" y="619" type="move" name="abvm.bindu"/>
    </contour>
    <contour>
      <point x="593" y="-10" type="move" name="blwm.u"/>
    </contour>
    <contour>
      <point x="647" y="619" type="move" name="abvm.e"/>
    </contour>
    <contour>
      <point x="131" y="322" type="line"/>
      <point x="214" y="322" type="line"/>
      <point x="181" y="273"/>
      <point x="165" y="216"/>
      <point x="169" y="195" type="curve"/>
      <point x="178" y="133"/>
      <point x="296" y="31"/>
      <point x="395" y="-56" type="curve"/>
      <point x="430" y="-27" type="line"/>
      <point x="381" y="20"/>
      <point x="371" y="32"/>
      <point x="344" y="62" type="curve" smooth="yes"/>
      <point x="237" y="182"/>
      <point x="291" y="313"/>
      <point x="413" y="310" type="curve" smooth="yes"/>
      <point x="552" y="307" type="line"/>
      <point x="552" y="1" type="line"/>
      <point x="676" y="-55" type="line"/>
      <point x="676" y="263" type="line"/>
      <point x="697" y="294"/>
      <point x="726" y="316"/>
      <point x="764" y="333" type="curve" smooth="yes"/>
      <point x="858" y="374"/>
      <point x="927" y="314"/>
      <point x="863" y="222" type="curve" smooth="yes"/>
      <point x="837" y="184"/>
      <point x="791" y="160"/>
      <point x="722" y="136" type="curve"/>
      <point x="816" y="50" type="line"/>
      <point x="924" y="87"/>
      <point x="1025" y="200"/>
      <point x="978" y="272" type="curve" smooth="yes"/>
      <point x="945" y="321"/>
      <point x="836" y="446"/>
      <point x="795" y="448" type="curve"/>
      <point x="748" y="449"/>
      <point x="707" y="437"/>
      <point x="676" y="417" type="curve"/>
      <point x="676" y="523" type="line"/>
      <point x="1019" y="523" type="line"/>
      <point x="1019" y="619" type="line"/>
      <point x="-12" y="619" type="line"/>
      <point x="-12" y="523" type="line"/>
      <point x="552" y="523" type="line"/>
      <point x="552" y="405" type="line"/>
      <point x="391" y="404" type="line"/>
      <point x="342" y="405" type="line" smooth="yes"/>
      <point x="338" y="405"/>
      <point x="334" y="405"/>
      <point x="330" y="404" type="curve"/>
      <point x="38" y="404" type="line"/>
    </contour>
  </outline>
</glyph>
<glyph name="dvK_T_RA" format="1">
  <advance width="1202"/>
  <outline>
    <contour>
      <point x="-9" y="619" type="line"/>
      <point x="861" y="619" type="line"/>
      <point x="861" y="523" type="line"/>
      <point x="518" y="523" type="line"/>
      <point x="518" y="391" type="line"/>
      <point x="551" y="421"/>
      <point x="601" y="468"/>
      <point x="659" y="466" type="curve" smooth="yes"/>
      <point x="685" y="465"/>
      <point x="735" y="428"/>
      <point x="778" y="380" type="curve"/>
      <point x="743" y="317" type="line"/>
      <point x="667" y="387"/>
      <point x="551" y="314"/>
      <point x="518" y="247" type="curve"/>
      <point x="518" y="-56" type="line"/>
      <point x="393" y="0" type="line"/>
      <point x="393" y="140" type="line"/>
      <point x="363" y="105"/>
      <point x="321" y="70"/>
      <point x="271" y="70" type="curve" smooth="yes"/>
      <point x="165" y="70"/>
      <point x="90" y="190"/>
      <point x="53" y="262" type="curve" smooth="yes"/>
      <point x="8" y="347"/>
      <point x="227" y="499"/>
      <point x="286" y="459" type="curve"/>
      <point x="312" y="440"/>
      <point x="357" y="409"/>
      <point x="393" y="386" type="curve"/>
      <point x="393" y="523" type="line"/>
      <point x="-9" y="523" type="line"/>
    </contour>
    <contour>
      <point x="150" y="200" type="curve"/>
      <point x="175" y="172"/>
      <point x="286" y="126"/>
      <point x="393" y="270" type="curve"/>
      <point x="393" y="333" type="line"/>
      <point x="250" y="422"/>
      <point x="99" y="253"/>
    </contour>
    <component base="dvT_RA" xOffset="687"/>
  </outline>
</glyph>
<glyph name="dvKx_KxA" format="1">
  <advance width="1326"/>
  <outline>
    <contour>
      <point x="1090" y="-3" type="move" name="blwm.virama"/>
    </contour>
    <contour>
      <point x="992" y="662" type="move" name="abvm.bindu"/>
    </contour>
    <contour>
      <point x="1090" y="-10" type="move" name="blwm.u"/>
    </contour>
    <contour>
      <point x="992" y="672" type="move" name="abvm.e"/>
    </contour>
    <component base="dvNukta" xOffset="548" yOffset="55"/>
    <component base="dvNukta" xOffset="1082" yOffset="55"/>
  </outline>
</glyph>
<glyph name="dvLA" format="1">
  <advance width="724"/>
  <outline>
    <contour>
      <point x="526" y="1" type="line"/>
      <point x="650" y="-55" type="line"/>
      <point x="650" y="523" type="line"/>
      <point x="728" y="523" type="line"/>
      <point x="728" y="619" type="line"/>
      <point x="-9" y="619" type="line"/>
      <point x="-9" y="523" type="line"/>
      <point x="526" y="523" type="line"/>
      <point x="526" y="405" type="line"/>
      <point x="469" y="396"/>
      <point x="398" y="351"/>
      <point x="346" y="302" type="curve"/>
      <point x="309" y="341"/>
      <point x="247" y="401"/>
      <point x="209" y="414" type="curve" smooth="yes"/>
      <point x="154" y="432"/>
      <point x="8" y="319"/>
      <point x="16" y="253" type="curve" smooth="yes"/>
      <point x="24" y="190"/>
      <point x="159" y="30"/>
      <point x="258" y="-57" type="curve"/>
      <point x="285" y="-23" type="line"/>
      <point x="175" y="65"/>
      <point x="99" y="226"/>
      <point x="159" y="285" type="curve" smooth="yes"/>
      <point x="193" y="318"/>
      <point x="246" y="316"/>
      <point x="315" y="270" type="curve"/>
      <point x="293" y="244"/>
      <point x="277" y="219"/>
      <point x="274" y="200" type="curve"/>
      <point x="357" y="132" type="line"/>
      <point x="394" y="197"/>
      <point x="467" y="273"/>
      <point x="526" y="309" type="curve"/>
    </contour>
  </outline>
</glyph>
